<svg xmlns="http://www.w3.org/2000/svg" viewBox="0 0 186.94 34.45"><title>Asset 1</title><g id="Layer_2" data-name="Layer 2"><g id="Layer_1-2" data-name="Layer 1"><path d="M30,33.91H22.4L12.53,22.59H6.39V33.91H0V0C5.37,0,10.74,0,16.11,0c8,0,12.19,5.37,12.19,11.22,0,4.65-2.13,9.34-8.56,10.64L30,33.48ZM6.39,6V16.84h9.72c4.06,0,5.81-2.71,5.81-5.42S20.13,6,16.11,6Z" style="fill:#007dc5"/><path d="M54.67,22c0,6.87-4.69,12.43-12.43,12.43S29.85,28.88,29.85,22,34.59,9.58,42.18,9.58A12.06,12.06,0,0,1,54.67,22M35.75,22c0,3.63,2.18,7,6.48,7s6.48-3.39,6.48-7S46.2,15,42.23,15C38,15,35.75,18.43,35.75,22" style="fill:#007dc5"/><path d="M54.94,33.48,65.2,21.92c-6.43-1.31-8.56-6-8.56-10.64C56.63,5.42,60.84.1,68.82,0c5.37,0,10.74,0,16.11,0V33.91H78.55V22.59H72.4L62.53,33.91h-7.6ZM68.82,6C64.81,6,63,8.71,63,11.42s1.74,5.42,5.81,5.42h9.72V6Z" style="fill:#007dc5"/><rect x="88.68" y="10.18" width="5.9" height="23.95" style="fill:#939598"/><path d="M109.94,10.15h-1.88l-2.45-2.81h-1.52v2.81H102.5V1.75h4a2.78,2.78,0,0,1,3,2.78,2.49,2.49,0,0,1-2.12,2.64L109.94,10Zm-5.85-6.92V5.92h2.41a1.31,1.31,0,0,0,1.44-1.34,1.32,1.32,0,0,0-1.44-1.34Z" style="fill:#007dc5"/><polygon points="116.85 10.15 110.56 10.15 110.56 1.76 116.85 1.76 116.85 3.29 112.14 3.29 112.14 5.23 116.68 5.23 116.68 6.7 112.14 6.7 112.14 8.6 116.85 8.6 116.85 10.15" style="fill:#007dc5"/><path d="M123.51,3.79a2.41,2.41,0,0,0-2-.94c-1.18,0-1.74.49-1.74,1.12s.86.94,1.87,1.05c1.75.22,3.38.67,3.38,2.67s-1.65,2.67-3.53,2.67c-1.71,0-3-.53-3.66-2.06l1.32-.68A2.39,2.39,0,0,0,121.53,9c1,0,1.93-.35,1.93-1.26s-.83-1.12-1.94-1.23c-1.72-.2-3.3-.66-3.3-2.54,0-1.73,1.7-2.43,3.25-2.45a3.39,3.39,0,0,1,3.3,1.67Z" style="fill:#007dc5"/><polygon points="132.52 10.15 126.24 10.15 126.24 1.76 132.52 1.76 132.52 3.29 127.81 3.29 127.81 5.23 132.35 5.23 132.35 6.7 127.81 6.7 127.81 8.6 132.52 8.6 132.52 10.15" style="fill:#007dc5"/><path d="M139.71,8.57h-4.39l-.72,1.58h-1.72l3.77-8.39h1.73l3.77,8.39h-1.73Zm-2.19-5L136,7.1h3.12Z" style="fill:#007dc5"/><path d="M150.31,10.15h-1.88L146,7.35h-1.52v2.81h-1.58V1.75h4a2.78,2.78,0,0,1,3,2.78,2.49,2.49,0,0,1-2.12,2.64L150.31,10Zm-5.85-6.92V5.92h2.41a1.31,1.31,0,0,0,1.44-1.34,1.32,1.32,0,0,0-1.44-1.34Z" style="fill:#007dc5"/><path d="M158.36,9.1a4.43,4.43,0,0,1-3.19,1.25A4.13,4.13,0,0,1,150.72,6a4.23,4.23,0,0,1,4.45-4.43,4.34,4.34,0,0,1,3.08,1.28l-1.06,1a2.89,2.89,0,0,0-2-.79A2.75,2.75,0,0,0,152.28,6a2.69,2.69,0,0,0,2.89,2.84A3.09,3.09,0,0,0,157.28,8Z" style="fill:#007dc5"/><polygon points="164.97 10.17 164.97 6.77 160.84 6.77 160.84 10.17 159.26 10.17 159.26 1.77 160.84 1.77 160.84 5.31 164.97 5.31 164.97 1.77 166.54 1.77 166.54 10.17 164.97 10.17" style="fill:#007dc5"/><path d="M110.74,18a4.31,4.31,0,1,1-8.62,0,4.31,4.31,0,1,1,8.62,0m-7.06,0a2.75,2.75,0,1,0,5.5,0,2.76,2.76,0,1,0-5.5,0" style="fill:#007dc5"/><polygon points="117.43 13.75 119.01 13.75 119.01 22.16 118.03 22.16 118.03 22.17 113.61 16.5 113.61 22.16 112.03 22.16 112.03 13.76 113.31 13.76 117.43 18.96 117.43 13.75" style="fill:#007dc5"/><path d="M130.34,22.15h-1.88L126,19.35h-1.52v2.81H122.9V13.75h4a2.78,2.78,0,0,1,3,2.78,2.49,2.49,0,0,1-2.12,2.64L130.34,22Zm-5.85-6.92v2.69h2.41a1.35,1.35,0,1,0,0-2.69Z" style="fill:#007dc5"/><polygon points="137.25 22.16 130.96 22.16 130.96 13.76 137.25 13.76 137.25 15.29 132.53 15.29 132.53 17.23 137.08 17.23 137.08 18.7 132.53 18.7 132.53 20.6 137.25 20.6 137.25 22.16" style="fill:#007dc5"/><path d="M143.91,15.79a2.41,2.41,0,0,0-2-.94c-1.18,0-1.74.49-1.74,1.12s.86.94,1.87,1.05c1.75.22,3.38.67,3.38,2.67s-1.65,2.67-3.53,2.67c-1.71,0-3-.53-3.66-2.06l1.32-.68A2.39,2.39,0,0,0,141.93,21c1,0,1.93-.35,1.93-1.26s-.83-1.12-1.94-1.23c-1.72-.2-3.3-.66-3.3-2.54,0-1.73,1.7-2.43,3.25-2.45a3.39,3.39,0,0,1,3.3,1.67Z" style="fill:#007dc5"/><polygon points="152.92 22.16 146.64 22.16 146.64 13.76 152.92 13.76 152.92 15.29 148.21 15.29 148.21 17.23 152.75 17.23 152.75 18.7 148.21 18.7 148.21 20.6 152.92 20.6 152.92 22.16" style="fill:#007dc5"/><path d="M160.11,20.57h-4.39L155,22.15h-1.72l3.77-8.39h1.73l3.77,8.39h-1.73Zm-2.19-5-1.56,3.57h3.12Z" style="fill:#007dc5"/><path d="M170.7,22.15h-1.88l-2.45-2.81h-1.52v2.81h-1.58V13.75h4a2.78,2.78,0,0,1,3,2.78,2.49,2.49,0,0,1-2.12,2.64L170.7,22Zm-5.85-6.92v2.69h2.41a1.35,1.35,0,1,0,0-2.69Z" style="fill:#007dc5"/><path d="M178.76,21.1a4.43,4.43,0,0,1-3.19,1.25A4.13,4.13,0,0,1,171.12,18a4.23,4.23,0,0,1,4.45-4.43,4.34,4.34,0,0,1,3.08,1.28l-1.06,1a2.89,2.89,0,0,0-2-.79A2.75,2.75,0,0,0,172.68,18a2.69,2.69,0,0,0,2.89,2.84,3.09,3.09,0,0,0,2.11-.85Z" style="fill:#007dc5"/><polygon points="185.37 22.17 185.37 18.77 181.24 18.77 181.24 22.17 179.66 22.17 179.66 13.77 181.24 13.77 181.24 17.31 185.37 17.31 185.37 13.77 186.94 13.77 186.94 22.17 185.37 22.17" style="fill:#007dc5"/><rect x="102.5" y="25.76" width="1.57" height="8.4" style="fill:#939598"/><polygon points="111.08 25.75 112.66 25.75 112.66 34.16 111.68 34.16 111.68 34.17 107.27 28.5 107.27 34.16 105.68 34.16 105.68 25.76 106.97 25.76 111.08 30.96 111.08 25.75" style="fill:#939598"/><path d="M119.43,27.79a2.41,2.41,0,0,0-2-.94c-1.18,0-1.74.49-1.74,1.12s.86.94,1.87,1.05c1.75.22,3.38.67,3.38,2.67s-1.65,2.67-3.53,2.67c-1.71,0-3-.53-3.66-2.06l1.32-.68A2.39,2.39,0,0,0,117.45,33c1,0,1.93-.35,1.93-1.26s-.83-1.12-1.94-1.23c-1.72-.2-3.3-.66-3.3-2.54,0-1.73,1.7-2.43,3.25-2.45a3.39,3.39,0,0,1,3.3,1.67Z" style="fill:#939598"/><polygon points="124.35 27.2 121.69 27.2 121.69 25.76 128.6 25.76 128.6 27.2 125.94 27.2 125.94 34.16 124.35 34.16 124.35 27.2" style="fill:#939598"/><rect x="129.57" y="25.76" width="1.57" height="8.4" style="fill:#939598"/><polygon points="135.19 27.2 132.53 27.2 132.53 25.76 139.43 25.76 139.43 27.2 136.77 27.2 136.77 34.16 135.19 34.16 135.19 27.2" style="fill:#939598"/><path d="M148,25.77v4.81a3.41,3.41,0,0,1-3.63,3.75,3.5,3.5,0,0,1-3.73-3.75V25.77h1.57v4.81a2.06,2.06,0,0,0,2.17,2.32c1.31,0,2.05-.87,2.05-2.32V25.77Z" style="fill:#939598"/><polygon points="151.74 27.2 149.07 27.2 149.07 25.76 155.98 25.76 155.98 27.2 153.32 27.2 153.32 34.16 151.74 34.16 151.74 27.2" style="fill:#939598"/><polygon points="163.21 34.16 156.92 34.16 156.92 25.76 163.21 25.76 163.21 27.3 158.49 27.3 158.49 29.23 163.04 29.23 163.04 30.7 158.49 30.7 158.49 32.6 163.21 32.6 163.21 34.16" style="fill:#939598"/></g></g></svg>