<svg xmlns="http://www.w3.org/2000/svg" viewBox="0 0 186.94 34.45"><path d="M30 33.91h-7.6l-9.87-11.32H6.39v11.32H0V0h16.11c8 0 12.19 5.37 12.19 11.22 0 4.65-2.13 9.34-8.56 10.64L30 33.48zM6.39 6v10.84h9.72c4.06 0 5.81-2.71 5.81-5.42S20.13 6 16.11 6zm48.28 16c0 6.87-4.69 12.43-12.43 12.43S29.85 28.88 29.85 22 34.59 9.58 42.18 9.58A12.06 12.06 0 0 1 54.67 22m-18.92 0c0 3.63 2.18 7 6.48 7s6.48-3.39 6.48-7-2.51-7-6.48-7c-4.23 0-6.48 3.43-6.48 7m19.19 11.48L65.2 21.92c-6.43-1.31-8.56-6-8.56-10.64C56.63 5.42 60.84.1 68.82 0h16.11v33.91h-6.38V22.59H72.4l-9.87 11.32h-7.6zM68.82 6C64.81 6 63 8.71 63 11.42s1.74 5.42 5.81 5.42h9.72V6z" fill="#007dc5"/><path d="M88.68 10.18h5.9v23.95h-5.9z" fill="#939598"/><path d="M109.94 10.15h-1.88l-2.45-2.81h-1.52v2.81h-1.59v-8.4h4a2.78 2.78 0 0 1 3 2.78 2.49 2.49 0 0 1-2.12 2.64l2.56 2.83zm-5.85-6.92v2.69h2.41a1.31 1.31 0 0 0 1.44-1.34 1.32 1.32 0 0 0-1.44-1.34zm12.76 6.92h-6.29V1.76h6.29v1.53h-4.71v1.94h4.54V6.7h-4.54v1.9h4.71v1.55zm6.66-6.36a2.41 2.41 0 0 0-2-.94c-1.18 0-1.74.49-1.74 1.12s.86.94 1.87 1.05c1.75.22 3.38.67 3.38 2.67s-1.65 2.67-3.53 2.67c-1.71 0-3-.53-3.66-2.06l1.32-.68A2.39 2.39 0 0 0 121.53 9c1 0 1.93-.35 1.93-1.26s-.83-1.12-1.94-1.23c-1.72-.2-3.3-.66-3.3-2.54 0-1.73 1.7-2.43 3.25-2.45a3.39 3.39 0 0 1 3.3 1.67zm9.01 6.36h-6.28V1.76h6.28v1.53h-4.71v1.94h4.54V6.7h-4.54v1.9h4.71v1.55zm7.19-1.58h-4.39l-.72 1.58h-1.72l3.77-8.39h1.73l3.77 8.39h-1.73zm-2.19-5L136 7.1h3.12zm12.79 6.58h-1.88L146 7.35h-1.52v2.81h-1.58V1.75h4a2.78 2.78 0 0 1 3 2.78 2.49 2.49 0 0 1-2.12 2.64l2.53 2.83zm-5.85-6.92v2.69h2.41a1.31 1.31 0 0 0 1.44-1.34 1.32 1.32 0 0 0-1.44-1.34zm13.9 5.87a4.43 4.43 0 0 1-3.19 1.25A4.13 4.13 0 0 1 150.72 6a4.23 4.23 0 0 1 4.45-4.43 4.34 4.34 0 0 1 3.08 1.28l-1.06 1a2.89 2.89 0 0 0-2-.79A2.75 2.75 0 0 0 152.28 6a2.69 2.69 0 0 0 2.89 2.84 3.09 3.09 0 0 0 2.11-.84zm6.61 1.07v-3.4h-4.13v3.4h-1.58v-8.4h1.58v3.54h4.13V1.77h1.57v8.4h-1.57zM110.74 18a4.31 4.31 0 1 1-8.62 0 4.31 4.31 0 1 1 8.62 0m-7.06 0a2.75 2.75 0 1 0 5.5 0 2.76 2.76 0 1 0-5.5 0m13.75-4.25h1.58v8.41h-.98v.01l-4.42-5.67v5.66h-1.58v-8.4h1.28l4.12 5.2v-5.21zm12.91 8.4h-1.88l-2.46-2.8h-1.52v2.81h-1.58v-8.41h4a2.78 2.78 0 0 1 3 2.78 2.49 2.49 0 0 1-2.12 2.64l2.56 2.83zm-5.85-6.92v2.69h2.41a1.35 1.35 0 1 0 0-2.69zm12.76 6.93h-6.29v-8.4h6.29v1.53h-4.72v1.94h4.55v1.47h-4.55v1.9h4.72v1.56zm6.66-6.37a2.41 2.41 0 0 0-2-.94c-1.18 0-1.74.49-1.74 1.12s.86.94 1.87 1.05c1.75.22 3.38.67 3.38 2.67s-1.65 2.67-3.53 2.67c-1.71 0-3-.53-3.66-2.06l1.32-.68a2.39 2.39 0 0 0 2.38 1.38c1 0 1.93-.35 1.93-1.26s-.83-1.12-1.94-1.23c-1.72-.2-3.3-.66-3.3-2.54 0-1.73 1.7-2.43 3.25-2.45a3.39 3.39 0 0 1 3.3 1.67zm9.01 6.37h-6.28v-8.4h6.28v1.53h-4.71v1.94h4.54v1.47h-4.54v1.9h4.71v1.56zm7.19-1.59h-4.39l-.72 1.58h-1.72l3.77-8.39h1.73l3.77 8.39h-1.73zm-2.19-5l-1.56 3.57h3.12zm12.78 6.58h-1.88l-2.45-2.81h-1.52v2.81h-1.58v-8.4h4a2.78 2.78 0 0 1 3 2.78 2.49 2.49 0 0 1-2.12 2.64L170.7 22zm-5.85-6.92v2.69h2.41a1.35 1.35 0 1 0 0-2.69zm13.91 5.87a4.43 4.43 0 0 1-3.19 1.25 4.13 4.13 0 0 1-4.45-4.35 4.23 4.23 0 0 1 4.45-4.43 4.34 4.34 0 0 1 3.08 1.28l-1.06 1a2.89 2.89 0 0 0-2-.79 2.75 2.75 0 0 0-2.91 2.94 2.69 2.69 0 0 0 2.89 2.84 3.09 3.09 0 0 0 2.11-.85zm6.61 1.07v-3.4h-4.13v3.4h-1.58v-8.4h1.58v3.54h4.13v-3.54h1.57v8.4h-1.57z" fill="#007dc5"/><path d="M102.5 25.76h1.57v8.4h-1.57zm8.58-.01h1.58v8.41h-.98v.01l-4.41-5.67v5.66h-1.59v-8.4h1.29l4.11 5.2v-5.21zm8.35 2.04a2.41 2.41 0 0 0-2-.94c-1.18 0-1.74.49-1.74 1.12s.86.94 1.87 1.05c1.75.22 3.38.67 3.38 2.67s-1.65 2.67-3.53 2.67c-1.71 0-3-.53-3.66-2.06l1.32-.68a2.39 2.39 0 0 0 2.38 1.38c1 0 1.93-.35 1.93-1.26s-.83-1.12-1.94-1.23c-1.72-.2-3.3-.66-3.3-2.54 0-1.73 1.7-2.43 3.25-2.45a3.39 3.39 0 0 1 3.3 1.67zm4.92-.59h-2.66v-1.44h6.91v1.44h-2.66v6.96h-1.59V27.2zm5.22-1.44h1.57v8.4h-1.57zm5.62 1.44h-2.66v-1.44h6.9v1.44h-2.66v6.96h-1.58V27.2zM148 25.77v4.81a3.41 3.41 0 0 1-3.63 3.75 3.5 3.5 0 0 1-3.73-3.75v-4.81h1.57v4.81a2.06 2.06 0 0 0 2.17 2.32c1.31 0 2.05-.87 2.05-2.32v-4.81zm3.74 1.43h-2.67v-1.44h6.91v1.44h-2.66v6.96h-1.58V27.2zm11.47 6.96h-6.29v-8.4h6.29v1.54h-4.72v1.93h4.55v1.47h-4.55v1.9h4.72v1.56z" fill="#939598"/></svg>