<?xml version="1.0" encoding="utf-8"?>
<!-- Generator: Adobe Illustrator 25.3.1, SVG Export Plug-In . SVG Version: 6.00 Build 0)  -->
<svg version="1.1" id="Layer_1" xmlns="http://www.w3.org/2000/svg" xmlns:xlink="http://www.w3.org/1999/xlink" x="0px" y="0px"
	 viewBox="0 0 3304.61 561" style="enable-background:new 0 0 3304.61 561;" xml:space="preserve">
<style type="text/css">
	.st0{fill:#1C6A83;}
	.st1{fill:#1B6983;}
	.st2{fill:#06BDE1;}
	.st3{fill:#0BA7C6;}
	.st4{fill:#08B6D6;}
	.st5{fill:#03C4ED;}
	.st6{fill:#01DCFC;}
	.st7{fill:#02ECFC;}
	.st8{fill:#01D7FB;}
	.st9{fill:#01E5FD;}
	.st10{fill:#06F1F6;}
	.st11{fill:#04C8EB;}
	.st12{fill:#03C9ED;}
	.st13{fill:#00F4FE;}
	.st14{fill:#07F1F6;}
	.st15{fill:#02F8FC;}
	.st16{fill:#09F2F4;}
	.st17{fill:#13FDEB;}
	.st18{fill:#1BFEE2;}
	.st19{fill:#0EFDF0;}
	.st20{fill:#23FEDA;}
	.st21{fill:#39FEC4;}
	.st22{fill:#2AFED3;}
	.st23{fill:#32FECB;}
	.st24{fill:#4EFEAF;}
	.st25{fill:#4AFEB4;}
	.st26{fill:#40FEBE;}
	.st27{fill:#44FEBA;}
	.st28{fill:#6FFE8E;}
	.st29{fill:#6AFE94;}
	.st30{fill:#45FEB8;}
	.st31{fill:#4CFEB1;}
	.st32{fill:#5DFEA0;}
	.st33{fill:#67FE96;}
	.st34{fill:#5AFEA3;}
	.st35{fill:#A6FE57;}
	.st36{fill:#BBFE42;}
	.st37{fill:#8AFE73;}
	.st38{fill:#86FE77;}
	.st39{fill:#58FEA5;}
	.st40{fill:#71FE8D;}
	.st41{fill:#79FE85;}
	.st42{fill:#68FE95;}
	.st43{fill:#7CFE81;}
	.st44{fill:#95FE68;}
	.st45{fill:#D3FD2A;}
	.st46{fill:#5FFE9F;}
	.st47{fill:#88FE75;}
	.st48{fill:#96FE67;}
	.st49{fill:#F6EC07;}
	.st50{fill:#9AFE63;}
	.st51{fill:#AFFE4F;}
	.st52{fill:#ACFE51;}
	.st53{fill:#FEBA00;}
	.st54{fill:#B3FE4B;}
	.st55{fill:#ACFE52;}
	.st56{fill:#C7FE36;}
	.st57{fill:#FE8000;}
	.st58{fill:#C8FE35;}
	.st59{fill:#DBFE22;}
	.st60{fill:#FE5B00;}
	.st61{fill:#DAFE23;}
	.st62{fill:#E6FE17;}
	.st63{fill:#FAF404;}
	.st64{fill:#FE3A00;}
	.st65{fill:#FDDD01;}
	.st66{fill:#FE3000;}
	.st67{fill:#FED600;}
	.st68{fill:#F50900;}
	.st69{fill:#FEBF00;}
	.st70{fill:#CE0100;}
	.st71{fill:#CC0000;}
	.st72{fill:#A90000;}
	.st73{fill:#830000;}
	.st74{fill:#4C4C4C;}
</style>
<path class="st0" d="M83.3,49.1c6.5-8.3,4.9-19.4,9.4-28.4c10.1-20.1,21.6-24.8,42.8-17.3c9.4,3.3,19,5.9,28.1,9.9
	c9.8,4.4,13.5,13.8,11.5,23.4c-2.4,11.7,2.9,21.7,3.7,32.6c0.9,10.5,7.4,14.1,16.5,17.7c17.1,6.7,32.5,32.5,22,50.5
	c-4.6,8-13.1,11.5-21.2,12.7c-11.6,1.8-14,10-16.7,18.7c-0.8,2.6-1.4,5.2-2.2,7.8c3.2,0.7,4.4-2.6,6.8-3.6c7.2-3.1,14-7.3,21.3-10.1
	c17.2-6.6,31.8,3.4,32.3,21.9c0.1,4.5-0.3,9-0.6,13.4c-0.3,3.8,2.9,4.2,5,4.2c22.6-0.1,39.9,11.6,57.2,24.3
	c10,7.3,20.1,14.1,27.5,24.3c15.8,21.7,6.3,50.1-19.7,59.8c-18.2,6.8-33.5,1.8-45.6-11.8c-8.8-9.9-17.2-10.8-28.7-6
	c-21,8.8-38.9,5.4-52.9-10.9c-9.5-11.1-14.8-24.9-16.5-39.8c-2.1-18,4.2-34.9,7-52.3c0.1-0.9,0-1.8,0-2.8c-0.7,0.4-1.6,0.7-2.2,1.2
	c-13.9,12.2-30.4,15.8-48.4,14.6c-4.1-0.3-8.2,0.2-12.3,0.7c-2.9,0.3-4.2,2-2.9,5c4.5,10.7,8.8,21.4,13.5,32
	c4,8.9,2.6,17.9,1.7,27.1c-0.8,8-0.3,16.2-0.6,24.3c-0.8,24-8.7,45.3-26.6,61.3c-17.6,15.7-38.9,24-63.1,23.1
	c-10-0.4-23-9.9-25.4-18.1c2.1-2.1,2.7,0,3.5,1.3c1.5,2.5,3.1,4.9,5.7,6.8c10.6,7.8,22,8,34.5,5.8c40.3-7,68.4-39.8,68.6-80.7
	c0-8.9-0.3-17.8,1-26.8c1.2-8,1.6-16.5-2.3-24.6c-4.9-10.1-8.9-20.6-13.1-30.9c-1.9-4.6,0.2-7.7,4.6-8.1c10.2-0.9,20.5-1.3,30.8-1.6
	c13.8-0.3,31.8-12.4,36.8-25c4.8-12.1,6.7-26.6,24-28c1.2-0.1,2.4-0.7,3.5-1.1c7.3-2.9,14.4-6.6,15.7-15.1
	c2.5-16.4-7.4-35.1-23.3-40.8c-11.3-4-17.5-10.3-18.5-21.8c-0.9-10.2-6-19.6-3.4-30.7c2.6-11.2-4.3-20.8-14.4-23.9
	C147.5,10.2,137.3,7,127,4.1C119.4,2,111.9,2,105.5,7.7C99,13.5,94.7,20.6,92.9,29.2c-1.3,6.2-2.1,12.6-5.4,18.1
	C86.9,48.6,86,51.7,83.3,49.1L83.3,49.1z M170.9,232.6c0,13,1.6,20.6,7,31.7c4.6,9.4,10.4,17.8,20.3,22.5c11.8,5.6,23.2,3,34.6-1.6
	c6.3-2.6,12.8-4.4,19.9-2.5c7.7,2.1,11.3,8.7,16.6,13.5c6,5.5,12.9,9.4,20.8,9.9c15.2,0.9,30.3-9,35.6-24.1c4.6-13-2-23.6-10.5-33.1
	c-10.1-11.2-24-17.2-35.5-26.5c-10.8-8.8-24.1-11.9-38-12.3c-9.2-0.3-13.7-4.1-12.7-11.5c0.5-3.9,1.8-7.7,1.3-11.8
	c-1.3-12.4-8.7-24.2-23.7-16.5c-3.7,1.9-7.7,3.4-11.4,5.4c-7.7,4.1-16.5,8.3-17.5,17.9C176.2,207.2,169.2,219.7,170.9,232.6
	L170.9,232.6z"/>
<path class="st1" d="M83.3,49.1c2.7,2.6,3.5-0.4,4.3-1.7c3.3-5.6,4.1-11.9,5.4-18.1c1.8-8.6,6.1-15.7,12.6-21.5
	c6.4-5.7,13.9-5.7,21.5-3.6c10.3,2.9,20.5,6.1,30.7,9.2c10.1,3,17,12.7,14.4,23.9c-2.6,11.1,2.5,20.5,3.4,30.7
	c1,11.5,7.2,17.8,18.5,21.8c15.9,5.7,25.8,24.3,23.3,40.8c-1.3,8.4-8.4,12.2-15.7,15.1c-1.1,0.5-2.3,1-3.5,1.1
	c-17.2,1.5-19.2,16-24,28c-5,12.6-23,24.7-36.8,25c-10.3,0.2-20.6,0.7-30.8,1.6c-4.5,0.4-6.5,3.5-4.6,8.1
	c4.3,10.4,8.3,20.9,13.1,30.9c3.9,8.1,3.5,16.6,2.3,24.6c-1.3,9-1,17.9-1,26.8c-0.2,40.9-28.3,73.7-68.6,80.7
	c-12.5,2.2-23.9,2-34.5-5.8c-2.6-1.9-4.1-4.2-5.7-6.8c-0.8-1.3-1.4-3.4-3.5-1.3c-5.4-8.4-4.3-17.9-2.9-26.8
	c1.9-11.8,5.4-23.5,8.8-35c4-13.4,0.7-25.5-5.4-37.2c-4.9-9.4-6.5-19.3-1.8-28.4c4.5-8.8,13.9-11.1,23.4-11.3
	c8.6-0.2,21.1-12.3,22.9-23.1c3-18.1,3.2-35.7-5.4-53.1c-9.4-19-6.3-37.3,8.2-53.2c5.4-5.9,9.6-12.3,13-19.5
	C69.3,62.1,75.6,55,83.3,49.1L83.3,49.1z M131.9,10.7c-13.9-6.7-25-2.8-31,11.3C94.8,36.2,94.1,52.4,80,63.6
	C71.8,70.1,68,81.9,61.8,91c-4.6,6.7-10.8,12.3-13.7,20.2c-3,5.7-3.6,11.9-1.2,17.7c8,19.2,13.2,38.7,11,59.8
	c-0.7,6.7-1.4,13.1-5.2,18.7c-6.7,9.9-12.5,19.2-27.3,20c-18.5,1-22.6,12.7-13.7,29.2c6.8,12.8,9.8,26.7,5.9,41.3
	c-3.2,12.3-7,24.5-9.7,37c-4.2,19.6,8.9,36.7,28.6,34.7c25.6-2.5,48.3-12.2,62.7-35.7c9.6-15.7,13.9-32.5,13.3-50.8
	c-0.1-3.7-1.8-7-0.8-11.3c2.1-8.7,4.3-17.7,0.2-26.7c-4.4-9.9-8.7-19.8-13-29.7c-5.5-12.7-1.8-18.4,11.9-18.7
	c7.9-0.2,15.9,0.2,23.8-0.9c17.1-2.3,32.7-10.9,38.1-29.4c2.6-8.7,4-19,15.8-21.5c4.8-1,9.6-2.7,14.1-4.6c6.8-3,11.5-7.8,11.1-16
	c-0.5-12.2-12.5-28.2-24.2-31.5c-10-2.8-15.7-8.4-17.4-19.1c-1.1-6.6-1.1-13.6-4.7-19.7c-1.4-5.5-1.3-11.1-0.3-16.7
	c1.3-7.4-0.6-13.8-7.3-16.8C150.9,16.5,141.2,13.9,131.9,10.7L131.9,10.7z"/>
<path class="st2" d="M170.9,232.6c-1.7-12.9,5.2-25.4,6.7-38.9c1.1-9.6,9.8-13.8,17.5-17.9c3.7-2,7.7-3.5,11.4-5.4
	c15-7.7,22.4,4.1,23.7,16.5c0.4,4-0.8,7.9-1.3,11.8c-1,7.4,3.6,11.2,12.7,11.5c13.9,0.4,27.2,3.5,38,12.3
	c11.5,9.4,25.4,15.4,35.5,26.5c8.5,9.5,15.1,20,10.5,33.1c-5.3,15.1-20.4,25-35.6,24.1c-7.9-0.5-14.8-4.4-20.8-9.9
	c-5.3-4.8-8.9-11.4-16.6-13.5c-7.1-1.9-13.6-0.1-19.9,2.5c-11.4,4.6-22.8,7.2-34.6,1.6c-9.9-4.7-15.7-13.1-20.3-22.5
	C172.5,253.3,170.9,245.7,170.9,232.6L170.9,232.6z M172.6,234.7c-0.9,6.4,1.2,13.3,3.6,20.4c8.5,24.9,26.1,42.4,58.5,27.6
	c4.7-2.1,9.9-2.8,15.3-2.4c9.7,0.9,13.9,9,20.2,14.4c9.2,8,19.4,13.2,31.7,8.1c20.9-8.8,32.5-28.6,14.5-49.8
	c-6.6-7.9-15.2-12.9-23.3-18.9c-15.8-11.6-31.5-22.7-52.3-22.5c-11.6,0.1-15.9-6.7-12.7-17.8c2.1-7.3,0-14.5-5.1-20.5
	c-4.6-5.3-10-4-15.3-1.3c-6.9,3.5-13.9,6.8-20.5,10.7c-3.4,2-6.6,5.1-7.2,9.3C178.1,206,171.6,219.1,172.6,234.7L172.6,234.7z"/>
<path class="st3" d="M167.4,54c3.7,6,3.7,13.1,4.7,19.7c1.7,10.6,7.4,16.3,17.4,19.1c11.7,3.3,23.7,19.3,24.2,31.5
	c0.4,8.2-4.3,13-11.1,16c-4.5,2-9.3,3.6-14.1,4.6c-11.8,2.5-13.2,12.7-15.8,21.5c-5.5,18.5-21,27.1-38.1,29.4
	c-7.8,1.1-15.8,0.7-23.8,0.9c-13.7,0.3-17.3,6.1-11.9,18.7c4.3,9.9,8.5,19.9,13,29.7c4,9,1.9,18-0.2,26.7c-1,4.2,0.6,7.5,0.8,11.3
	c0.7,18.3-3.6,35.1-13.3,50.8c-14.4,23.6-37.1,33.2-62.7,35.7c-19.7,2-32.8-15.1-28.6-34.7c2.7-12.5,6.5-24.7,9.7-37
	c3.8-14.6,0.9-28.5-5.9-41.3c-8.8-16.5-4.8-28.1,13.7-29.2c14.8-0.8,20.6-10.2,27.3-20c3.8-5.6,4.5-12.1,5.2-18.7
	c2.2-21.1-3.1-40.6-11-59.8c-2.4-5.8-1.9-12,1.2-17.7c0.2,0.3,0.5,0.5,0.7,0.8c-2.1,6.6-2.1,13.1,0.5,19.7
	c2.7,6.9,5.2,13.9,7.8,20.8c3.5,17.3,3.7,34.6-0.7,51.8c-1.2,1.8-2.3,3.5-3.5,5.3c-6.4,9.3-12.1,19.4-25.7,19.5
	c-17.6,0.1-23.1,10.8-14.9,26.4c5.7,10.9,9.7,22.4,7.6,35.6c-1.3,8.5-5.3,16.3-5.6,25c-0.2,1.3-0.5,2.5-0.7,3.8
	c-1.2,4.2-2.7,8.3-3.6,12.5c-3.9,18.9,5.9,34.8,21.9,35.5c32.7,1.4,63.7-20,73.9-51c5.2-11.9,6.4-24.3,4.4-37.1
	c-0.4-2.6-0.4-5,0.1-7.6c1.5-8.6,4.3-17.2,0.6-25.9c-4.1-9.6-8.1-19.3-12.5-28.8c-7-15.1-3.1-21.2,13.5-22.4
	c8.5-0.6,17.1,1.4,25.4-1.3c1.2-0.3,2.5-0.5,3.7-0.8c15.1-4.2,26.3-12.4,29.9-28.5c2.5-6.6,4.2-13.7,9.9-18.7
	c6.1-1.8,12.1-3.6,18.1-5.5c10.6-3.3,15.5-12.9,11.1-21.6c-3.2-11.5-9.9-19.9-21.5-24.1c-6.3-2.3-12.9-4.2-15.8-11.7
	c-3-7.8-4-16-5.6-24.1C167.3,57.1,167.3,55.5,167.4,54L167.4,54z"/>
<path class="st4" d="M48.7,111.9c-0.2-0.3-0.5-0.5-0.7-0.8c2.8-7.9,9.1-13.5,13.7-20.2c6.2-9.1,10-20.9,18.2-27.4
	C94,52.3,94.7,36.1,100.8,21.9c6.1-14.1,17.1-17.9,31-11.3c-0.7,0.2-1.4,0.5-2.1,0.7c-6.4-0.8-13-4.6-19.2,1
	c-6.5,6-10.9,13-12.4,21.9c-1.6,9.1-4.2,17.4-11.3,24.5C71.2,74.2,62.2,94.7,48.7,111.9z"/>
<path class="st5" d="M129.7,11.4c0.7-0.2,1.4-0.5,2.1-0.7c9.4,3.2,19,5.8,28,9.8c6.7,3,8.6,9.5,7.3,16.8c-1,5.5-1.1,11.1,0.3,16.7
	c0,1.5-0.1,3.1-0.1,4.6c-3.3-6.1-3.8-12.9-2.7-19.4c1.8-10.8-1.8-17-12.5-19.8C144.4,17.4,136.7,15.4,129.7,11.4L129.7,11.4z"/>
<path class="st6" d="M172.6,234.7c-1-15.6,5.6-28.7,7.5-42.7c0.6-4.2,3.8-7.3,7.2-9.3c6.6-3.9,13.6-7.2,20.5-10.7
	c5.3-2.7,10.8-4,15.3,1.3c5.1,5.9,7.2,13.1,5.1,20.5c-3.1,11.1,1.2,18,12.7,17.8c20.8-0.2,36.5,10.9,52.3,22.5
	c8.1,6,16.7,11,23.3,18.9c18,21.3,6.4,41.1-14.5,49.8c-12.3,5.2-22.5-0.1-31.7-8.1c-6.3-5.4-10.6-13.6-20.2-14.4
	c-5.4-0.5-10.6,0.2-15.3,2.4c-32.5,14.8-50-2.7-58.5-27.6C173.8,248,171.7,241.1,172.6,234.7L172.6,234.7z M288.1,233.4
	c-16.9-13.4-35.4-21.3-57.7-19c-9.1,1-13.3-5.6-10.4-14.2c1.1-3.4,2.7-6.8,3.1-10.4c0.7-6-1.4-11.4-7.8-12.6
	c-12.3-2.2-29.3,8.8-33,20.7c-2.1,6.5-4,13.1-6,19.7c-4.9,11.6-4.1,23,0.8,34.3c10.2,23.4,23.2,40.9,55.4,29.3
	c14.6-5.3,26.1-3.1,36.2,9.9c7,9,17.2,14,29.8,11.4c15.2-3.2,28.7-21.1,24.7-34.5C317.8,250.2,303.3,241.4,288.1,233.4L288.1,233.4z
	"/>
<path class="st7" d="M180.8,145.7c-5.6,5-7.3,12-9.9,18.7c-3.1-11.6,7.4-24.6,21.8-27c5.9-3.1,12.6-5.6,12.7-14
	c0.2-13.8-8.8-23.9-23.4-26.5c-5.7-1-10.9-3-12.8-8.9c-4.4-13.7-9.3-27.4-12.3-41.5c-2.3-11-4.8-20-16.7-24.9
	c-21-8.7-31.4-5.3-36.3,14.5c-1.5,6.2-1.2,13.4-5.7,17.8C84.1,67.7,74.3,84.8,61.8,99.7c-8.4,10-12.2,20.8-6.6,33.4
	c2.8,6.3,5.6,12.5,8.5,18.7c5.7,12.3,3.2,26.4,8.2,38.9c1.3,3.3-0.2,5.5-2.3,7.6c-3,3.2-6.2,6.1-8.9,9.5c-10.1,12.5-18,27.5-37,29.2
	c-5.1,0.5-7.8,5.5-6.5,10.9c2,8.7,4.5,17.2,6.7,25.9c1.4,16.7-3.7,32.1-9.7,47.3c-0.2-0.5-0.4-1-0.6-1.5c0.2-1.3,0.5-2.5,0.7-3.8
	c0.5-0.5,1.2-0.9,1.4-1.5c7.9-20.6,9.1-40.9-0.4-61.6c-5.4-11.8-1.5-18.5,11.5-20.1c10.5-1.3,17.9-6.5,23.4-14.8
	c5.3-8,14.2-14.7,14.8-24.7c1.1-18.3,0.1-36.5-9.4-53.3c-5.1-9.1-8.8-19.8-2.8-29.6c9.1-14.8,18.5-29.7,30-42.7
	C92.3,57,100.2,46.8,102.3,32c1.9-12.9,10.5-19.7,21.9-18.2c10.7,1.4,20.7,6.2,30.4,11c2.6,1.3,5.1,4.2,4.9,7.2
	c-1.3,17.4,6.9,32.8,10,49.2c1.4,7.4,5.9,11.7,13.3,13.4c12.8,3.1,22.1,10.2,25.3,23.7c0.2,0.8,0,2.6,1.9,1.8
	c0.9,9.5-3.7,15-12.2,18.7C192.2,141.3,185.4,140.8,180.8,145.7L180.8,145.7z"/>
<path class="st8" d="M210,120.2c-2,0.8-1.7-1.1-1.9-1.8c-3.2-13.5-12.4-20.6-25.3-23.7c-7.4-1.8-11.9-6-13.3-13.4
	c-3.1-16.4-11.3-31.8-10-49.2c0.2-3-2.3-5.9-4.9-7.2c-9.7-4.9-19.7-9.6-30.4-11c-11.4-1.5-20,5.3-21.9,18.2
	c-2.1,14.8-10.1,25-19.6,35.7c-11.5,12.9-20.8,27.9-30,42.7c-6,9.8-2.3,20.6,2.8,29.6c9.5,16.8,10.5,35,9.4,53.3
	c-0.6,10-9.4,16.7-14.8,24.7c-5.5,8.3-12.9,13.5-23.4,14.8c-13,1.6-16.9,8.3-11.5,20.1c9.5,20.7,8.4,41,0.4,61.6
	c-0.2,0.6-0.9,1-1.4,1.5c0.3-8.6,4.2-16.5,5.6-25c2.1-13.2-1.9-24.7-7.6-35.6c-8.2-15.6-2.7-26.3,14.9-26.4
	c13.5-0.1,19.3-10.2,25.7-19.5c1.2-1.7,2.3-3.5,3.5-5.3c0.7-1,1.6-1.8,2-2.9c4.5-12,2.2-24.4,2.1-36.6c0-4,0.8-9.1-3.4-12.3
	c-2.6-6.9-5.1-13.9-7.8-20.8c-2.5-6.5-2.6-13.1-0.5-19.7c13.5-17.2,22.4-37.7,38.1-53.2c7.2-7.1,9.8-15.4,11.3-24.5
	c1.5-8.9,5.9-16,12.4-21.9c6.1-5.6,12.7-1.8,19.2-1c6.9,4,14.6,6,22.3,8c10.7,2.8,14.3,9.1,12.5,19.8c-1.1,6.5-0.6,13.3,2.7,19.4
	c1.6,8.1,2.6,16.3,5.6,24.1c2.8,7.5,9.4,9.4,15.8,11.7c11.6,4.2,18.3,12.6,21.5,24.1C210,119.1,210,119.6,210,120.2z"/>
<path class="st9" d="M141,192.9c-1.2,0.3-2.5,0.5-3.7,0.8c-10.5,0.2-21,0.3-31.6,0.8s-15,7.3-11,17c3.8,9.2,8.1,18.2,11.8,27.4
	c7.8,19,0.2,39,3.4,58.4c0.2,0.9-0.8,2-1.3,3c0.2-6.6,0-13.2-2.3-19.5c-2.2-11.2-1.1-22.5-1.6-33.8c-0.3-6.1-2.1-12.1-5.9-17.2
	c-1.5-3.5-3-7-4.5-10.5c-2.1-4.2-4.2-8.4-6.3-12.7c-2.7-5.6-4-10.7,4.3-12.6c2.7-0.6,5.3-1.2,8-1.8c10.8,0.3,21.5,0.4,32.3,0.8
	C135.5,193.1,138.3,190.9,141,192.9L141,192.9z"/>
<path class="st10" d="M141,192.9c-2.7-2-5.5,0.2-8.2,0.1c-10.8-0.5-21.5-0.6-32.3-0.8c1.3-0.5,2.7-0.9,5.3-1.8
	c-5.6-0.8-9.9-1.3-14.3-1.9c9.6,0.6,19.2,0.3,28.6,1.8c23.4,3.9,42.9-7.7,48.7-30.7c3.3-13,7.4-24.2,23.2-25.2c0.2,1,0.5,2,0.7,3
	c-14.4,2.4-24.9,15.3-21.8,27C167.3,180.5,156.1,188.7,141,192.9L141,192.9z"/>
<path class="st9" d="M13.6,319.8l0.6,1.5c-0.9,4-1.7,8-2.6,12c-3.2,13.7,4.9,29.6,16.9,31.2c24.9,3.5,45.5-6,62.1-23.9
	c10.1-10.8,14.2-24.9,18.1-38.9c0.5,5.3-2.5,9.9-3,15c-10.2,31-41.2,52.4-73.9,51C15.8,367,6,351.2,9.9,332.2
	C10.8,328,12.3,323.9,13.6,319.8L13.6,319.8z"/>
<path class="st11" d="M105.8,316.7c0.5-5.1,3.5-9.7,3-15c0-0.5,0-1,0-1.5c0.4-1,1.4-2.1,1.3-3c-3.3-19.3,4.4-39.4-3.4-58.4
	c-3.8-9.2-8-18.2-11.8-27.4c-4-9.6,0.3-16.5,11-17c10.5-0.5,21-0.5,31.6-0.8c-8.3,2.6-16.9,0.7-25.4,1.3
	c-16.6,1.2-20.5,7.3-13.5,22.4c4.4,9.5,8.3,19.2,12.5,28.8c3.7,8.7,1,17.4-0.6,25.9c-0.5,2.7-0.5,5-0.1,7.6
	C112.1,292.4,110.9,304.8,105.8,316.7z"/>
<path class="st5" d="M57,152.4c4.2,3.2,3.3,8.3,3.4,12.3c0.1,12.2,2.3,24.7-2.1,36.6c-0.4,1.1-1.3,1.9-2,2.9
	C60.7,187,60.5,169.7,57,152.4L57,152.4z"/>
<path class="st12" d="M210,120.2c0-0.5,0-1,0-1.5c4.4,8.7-0.5,18.3-11.1,21.6c-6,1.9-12.1,3.6-18.1,5.5c4.6-4.9,11.4-4.4,17.1-6.9
	C206.3,135.1,210.9,129.6,210,120.2L210,120.2z"/>
<path class="st13" d="M176.3,217.7c2-6.6,3.9-13.1,6-19.7c3.7-11.9,20.7-22.9,33-20.7c6.4,1.2,8.5,6.6,7.8,12.6
	c-0.4,3.5-2,6.9-3.1,10.4c-2.8,8.6,1.4,15.1,10.4,14.2c22.3-2.4,40.8,5.5,57.7,19c-1.8,1.6-2.9-0.1-4.2-0.8
	c-3.9-2.2-7.7-4.4-11.5-6.7c-12.3-7.7-25.5-9-39.8-7.8c-17.1,1.5-23.3-6.4-20.3-23.1c1.1-6.4-3.3-10-9.8-8.5
	c-14.6,3.4-16.4,17.1-22.4,27.4c-0.7,1.3-1.4,2.6-2.3,3.7c-0.3,0.4,0,2-1.4,1.1C176.2,218.6,176.3,218.1,176.3,217.7L176.3,217.7z"
	/>
<path class="st14" d="M272.3,225.9c3.8,2.2,7.7,4.5,11.5,6.7c1.3,0.7,2.4,2.4,4.2,0.8c15.3,7.9,29.7,16.8,35.1,34.6
	c4,13.4-9.5,31.4-24.7,34.5c-12.6,2.6-22.8-2.4-29.8-11.4c-10.1-13-21.7-15.1-36.2-9.9c-32.2,11.6-45.2-5.9-55.4-29.3
	c-4.9-11.3-5.8-22.8-0.8-34.3c0,0.4-0.1,0.9,0.1,1.1c1.3,0.9,1.1-0.7,1.4-1.1c0.9-1.2,1.5-2.5,2.3-3.7c-6.9,15.4-5.3,29.8,2.9,44.6
	c10.9,19.5,23.7,25.8,45.4,21c7.5-1.7,14.8-4.7,22.7-3.8c10.6,1.2,15.2,10.7,22.2,16.8c7.2,6.2,14.9,10,24.6,7.5
	c14.8-3.8,26-18.6,23.3-30.4c-3-12.9-11.7-21.1-22.4-27.6C289.8,236.8,280.4,232.5,272.3,225.9L272.3,225.9z"/>
<path class="st15" d="M91.5,188.4c4.3,0.6,8.6,1.2,14.3,1.9c-2.6,0.9-3.9,1.4-5.3,1.8c-2.7,0.6-5.3,1.2-8,1.8c-8.3,1.8-7,7-4.3,12.6
	c2.1,4.2,4.2,8.4,6.3,12.7c-3.3-1.7-4.8-5-6.8-7.7c-6-8.1-13.6-9.6-21.7-3.9c-5,3.5-9.4,7.9-12.8,13c-6.1,8.9-12.9,16.8-23.8,20.1
	c-3.6,1.1-6.5,3.7-6.8,7.8c-0.4,7.3,0.2,14.7,2.1,21.8c-0.3,1.3-0.5,2.5-0.8,3.8c-2.3-8.6-4.7-17.2-6.7-25.9
	c-1.3-5.4,1.4-10.4,6.5-10.9c19-1.8,26.9-16.7,37-29.2c2.7-3.4,5.9-6.3,8.9-9.5c2-2.2,3.6-4.4,2.3-7.6c-5-12.5-2.5-26.5-8.2-38.9
	c-2.9-6.2-5.7-12.5-8.5-18.7c-5.6-12.7-1.7-23.5,6.6-33.4c12.5-15,22.3-32,36.4-45.8c4.5-4.4,4.2-11.7,5.7-17.8
	c4.9-19.9,15.3-23.3,36.3-14.5c11.9,4.9,14.3,13.9,16.7,24.9c3,14.1,7.9,27.7,12.3,41.5c1.9,5.9,7.1,7.9,12.8,8.9
	c14.6,2.6,23.6,12.7,23.4,26.5c-0.1,8.4-6.8,10.9-12.7,14c-0.2-1-0.5-2-0.7-3c3.6-1.5,6.5-3.8,8.4-7.1c6.5-11.4-3.2-26.3-17.4-26.6
	c-9.6-0.2-16.1-3.6-17.3-14c-0.3-2.3-1-4.6-1.5-6.9c-2.9-14-12-25.5-15.6-39.2c-1.4-5.3-4.3-9.3-8.6-12.7c-12.6-9.9-29-7.2-30.9,6.1
	c-2,14-8.3,24.3-18.9,33.3c-10.5,8.9-15.8,22.3-25,32.4c-12,13.2-11.6,27.1-3.2,41.9c5.2,9.3,8.8,19.2,11,29.7
	C75.7,184.1,80.6,188.3,91.5,188.4L91.5,188.4z"/>
<path class="st16" d="M24,274c0.3-1.3,0.5-2.5,0.8-3.8c1.3,7.5,1.7,15.2,0,22.5c-3.1,13.1-7.4,25.8-10.7,38.9
	c-3.9,15.3,4.4,30.6,18.1,31.4c24.2,1.5,45-7.2,59.5-26.7c13.1-17.7,19.5-37.8,12-60.1l3,4.5c2.3,6.3,2.5,12.9,2.3,19.5v1.5
	c-3.9,13.9-8,28.1-18.1,38.9c-16.7,17.9-37.2,27.3-62.1,23.9c-12-1.7-20.1-17.6-16.9-31.2c0.9-4,1.8-8,2.6-12
	C20.3,306.1,25.3,290.7,24,274L24,274z"/>
<path class="st17" d="M103.5,276.2c7.6,22.3,1.1,42.4-12,60.1C77,355.8,56.2,364.4,32,363c-13.7-0.8-22-16.1-18.1-31.4
	c3.3-13,7.6-25.8,10.7-38.9c1.8-7.3,1.4-15,0-22.5c-2-7.1-2.6-14.5-2.1-21.8c0.2-4,3.2-6.7,6.8-7.8c10.9-3.3,17.7-11.2,23.8-20.1
	c3.5-5.1,7.8-9.5,12.8-13c8.2-5.8,15.7-4.2,21.7,3.9c2.1,2.8,3.5,6.1,6.8,7.7l4.5,10.5c1.8,8.8,2.7,17.7,2.3,26.8
	C101,263.1,100.8,269.8,103.5,276.2L103.5,276.2z M15,339.9c0,14.6,9.6,24.5,25.7,22.4c22.7-3.1,42.5-11.8,54.3-33.1
	c8.1-14.7,13.6-30.1,8.3-46.8c-3.1-10-6.5-19.8-4.9-30.3c1.7-11.2-0.7-21.4-6.4-30.8c-4.2-6.9-8.6-14.1-18.6-13.4
	c-7.8,0.5-12.3,5.9-16.3,11.3c-7.2,9.8-14.3,19.4-25.6,25.1c-5.9,3-5.9,9.1-5.6,14.7c0.7,13.5,2.4,26.8-1.2,40.3
	C21.4,312.2,14.5,324.1,15,339.9L15,339.9z"/>
<path class="st15" d="M103.5,276.2c-2.7-6.4-2.5-13.1-2.2-19.8c0.4-9-0.5-17.9-2.3-26.8c3.8,5.1,5.6,11.1,5.9,17.2
	c0.6,11.3-0.6,22.6,1.6,33.8C105.5,279.2,104.5,277.7,103.5,276.2L103.5,276.2z"/>
<path class="st18" d="M91.5,188.4c-10.8-0.1-15.8-4.4-18.5-17.1c-2.2-10.5-5.7-20.4-11-29.7c-8.4-14.8-8.8-28.7,3.2-41.9
	c9.2-10.2,14.5-23.5,25-32.4c10.6-9,16.9-19.3,18.9-33.3c1.9-13.3,18.3-16,30.9-6.1c4.3,3.4,7.2,7.4,8.6,12.7
	c3.6,13.7,12.6,25.2,15.6,39.2c0.5,2.3,1.2,4.6,1.5,6.9c1.2,10.4,7.8,13.8,17.3,14c14.2,0.2,24,15.2,17.4,26.6
	c-1.9,3.3-4.9,5.7-8.4,7.1c-15.9,1-19.9,12.2-23.2,25.2c-5.8,23-25.3,34.5-48.7,30.7C110.7,188.7,101,189,91.5,188.4z M162.8,170.4
	c1.5-3.5,3-7,4.5-10.5c0.8-2.3,1.8-4.6,2.2-7c1.7-10.8,5.5-19.4,18.3-20.3c3.4-0.2,6.5-2.2,8.9-5.1c3.7-4.5,3.8-9.5,1.5-14.4
	c-3.1-6.4-8.9-9.7-15.8-9.3c-9.5,0.5-16.6-1.9-17.9-12.3c-2.5-21.1-14.7-37.8-24.2-55.8c-3.3-6.2-9.6-9.6-16.6-9
	c-7.5,0.7-10.2,6.9-11.4,13.5c-1.4,8.1-5.4,14.6-11.5,20C96.5,64.1,92,68,88.4,72.5C81.6,80.9,75.6,90,68.7,98.3
	c-11.2,13.4-13.3,27.1-4.4,42.7c5.5,9.7,9.7,20.2,12.7,31.1c2,7,6.6,11.5,13.8,12.7c12.1,1.9,24.3,4.1,36.5,5
	C142.6,191,157.7,182.2,162.8,170.4L162.8,170.4z"/>
<path class="st19" d="M272.3,225.9c8.1,6.5,17.5,10.9,26.3,16.2c10.7,6.5,19.4,14.7,22.4,27.6c2.7,11.8-8.4,26.6-23.3,30.4
	c-9.6,2.5-17.4-1.3-24.6-7.5c-7-6.1-11.6-15.6-22.2-16.8c-7.8-0.9-15.2,2.1-22.7,3.8c-21.7,4.8-34.5-1.6-45.4-21
	c-8.3-14.7-9.8-29.2-2.9-44.6c6-10.3,7.8-24,22.4-27.4c6.5-1.5,10.9,2.1,9.8,8.5c-3,16.8,3.2,24.6,20.3,23.1
	C246.8,217,260,218.3,272.3,225.9L272.3,225.9z M177.8,236.1c0,26.1,25.9,47.4,53,40.3c16.5-4.3,29.1-3.5,40.7,11.4
	c11.5,14.8,27.6,14.5,39.7,2.5c11.6-11.6,10.6-25.4-3.2-38.7c-11.4-11-27.1-15.2-39.8-24.3c-9.3-6.7-20-7.3-30.8-6.5
	c-20.1,1.6-26.9-1.9-35.7-19.6c-1.4-2.8-4.1-3.7-6.1-1.5C186.9,209.8,177.2,219.4,177.8,236.1L177.8,236.1z"/>
<path class="st20" d="M15,339.9c-0.5-15.8,6.4-27.8,9.8-40.5c3.6-13.5,1.9-26.9,1.2-40.3c-0.3-5.6-0.3-11.7,5.6-14.7
	c11.3-5.7,18.4-15.3,25.6-25.1c4-5.4,8.6-10.8,16.3-11.3c10-0.7,14.4,6.5,18.6,13.4c5.7,9.4,8.1,19.6,6.4,30.8
	c-1.6,10.5,1.8,20.3,4.9,30.3c5.2,16.8-0.2,32.2-8.3,46.8c-11.8,21.3-31.7,30.1-54.3,33.1C24.6,364.5,15,354.6,15,339.9L15,339.9z
	 M16.5,337.6c0,16,7.5,23.6,23.6,23.3c9.2-0.2,17.7-3.6,26.2-6.8c25.3-9.8,47.6-50.6,33.3-78.4c-3.4-6.7-5.8-14-4-21.7
	c1.7-7.5,1.9-14.9-0.6-22.1c-3.3-9.6-7.5-19.5-18.8-21.4c-9.7-1.6-15.4,6-20.5,13.2c-5.7,8.1-11.5,15.9-19.9,21.6
	c-5.6,3.8-7.7,9.5-7.5,16.6c0.3,16,1.3,32.2-5.2,47.6C19.3,318.4,15.7,327.5,16.5,337.6L16.5,337.6z"/>
<path class="st21" d="M167.3,159.9c-1.5,3.5-3,7-4.5,10.5c-0.7,0.3-1.5,0.5-2.2,0.8c6.2-10,7.7-21.3,9.2-32.7
	c0.7-5.4,2.7-10.1,10-10.4c6.9-0.4,15.5-1.4,13.4-11.5c-1.6-7.7-8.9-8-15.3-6.5c-10.8,2.6-13.6,1.9-14.9-9.3
	c-2.6-22.7-11.5-41.7-28.7-56.9c-6.1-5.4-10-5.2-14.7,1.3c-3.3,4.5-6.4,9.5-10.8,12.8c-15.7,11.5-26.5,27.2-37.5,42.7
	c-7.9,7.9-10.9,17.5-8.3,28.3c2.7,11.3,9.7,20.8,14.1,31.4c7.5,18.1,16.9,24.9,36.3,25.1c8.9,2.9,17.9,2.4,27,1.5
	c-11.6,4.6-23,0.2-34.4-1.2c-10.8-1.3-22.2-2.5-26.8-14.8c-4.5-12.1-10.3-23.5-15.6-35.2c-3.3-7.3-5.7-15.5-1.4-23.1
	c9.9-17.4,21.2-34,36.1-47.6c7.5-6.8,15.4-13.3,17.8-23.8c1.1-4.7,3.4-8.3,8-9.4c5.3-1.3,9.8,1.2,12.6,5.6
	c11.8,18.1,25.3,35.3,27.2,58.2c0.6,7.1,4.3,12.7,13.3,10.7c8.5-1.8,18.4,2.8,19.5,9.1c1.6,9.5-2.3,13.9-14,16
	c-4.5,0.8-9.1,1.7-10.4,7.1C170.3,145.6,168.9,152.8,167.3,159.9L167.3,159.9z"/>
<path class="st22" d="M160.6,171.2c0.7-0.3,1.5-0.5,2.2-0.8c-5,11.8-20.2,20.6-35.6,19.4c-12.2-1-24.4-3.1-36.5-5
	c-7.2-1.1-11.8-5.7-13.8-12.7c-3.1-10.9-7.2-21.4-12.7-31.1c-8.8-15.6-6.8-29.3,4.4-42.7c6.9-8.3,12.9-17.4,19.7-25.8
	c3.7-4.5,8.1-8.4,12.4-12.3c6-5.4,10-11.9,11.5-20c1.2-6.6,3.9-12.8,11.4-13.5c7-0.7,13.3,2.8,16.6,9c9.5,18,21.7,34.7,24.2,55.8
	c1.2,10.4,8.4,12.8,17.9,12.3c6.9-0.3,12.7,2.9,15.8,9.3c2.3,4.9,2.2,9.9-1.5,14.4c-2.4,2.8-5.5,4.8-8.9,5.1
	c-12.8,0.9-16.6,9.5-18.3,20.3c-0.4,2.4-1.4,4.7-2.2,7c1.6-7.1,3.1-14.3,4.8-21.4c1.3-5.3,5.8-6.3,10.4-7.1c11.7-2.1,15.6-6.5,14-16
	c-1.1-6.3-10.9-11-19.5-9.1c-8.9,1.9-12.7-3.6-13.3-10.7c-1.9-22.9-15.4-40.1-27.2-58.2c-2.8-4.3-7.3-6.8-12.6-5.6
	c-4.6,1.1-7,4.7-8,9.4c-2.4,10.5-10.3,17-17.8,23.8c-14.9,13.7-26.2,30.2-36.1,47.6c-4.3,7.6-1.9,15.8,1.4,23.1
	c5.4,11.7,11.2,23.1,15.6,35.2c4.6,12.3,16,13.5,26.8,14.8c11.4,1.4,22.8,5.8,34.4,1.2C148.5,183.6,155.7,178.9,160.6,171.2
	L160.6,171.2z"/>
<path class="st22" d="M177.8,236.1c-0.6-16.7,9.2-26.3,17.8-36.4c1.9-2.2,4.6-1.4,6.1,1.5c8.8,17.6,15.6,21.2,35.7,19.6
	c10.8-0.9,21.5-0.2,30.8,6.5c12.7,9.1,28.4,13.3,39.8,24.3c13.8,13.3,14.7,27.2,3.2,38.7c-12,12-28.1,12.3-39.7-2.5
	c-11.6-14.9-24.3-15.7-40.7-11.4C203.7,283.4,177.8,262.2,177.8,236.1L177.8,236.1z M292,296.5c10,0,19.6-6.3,23.1-16.1
	c3.3-9.1,0.7-17.2-5.6-24.5c-7.6-8.8-18.2-12.4-27.8-17.8c-14.6-8.3-28.7-17.8-46.8-14.3c-12.2,2.3-21.8-2.1-31.1-9.3
	c-3.9-3.1-8.7-4.8-13.5-1.4c-8.3,6-13.1,17.6-9.8,27.2c9.7,28.5,26.7,40.3,56.6,32.5c14.5-3.7,24.9-0.9,33.5,11.6
	C275.6,291.4,282.6,296.6,292,296.5L292,296.5z"/>
<path class="st23" d="M16.5,337.6c-0.7-10.1,2.9-19.2,6.7-28.1c6.6-15.4,5.6-31.5,5.2-47.6c-0.1-7,1.9-12.8,7.5-16.6
	c8.4-5.7,14.2-13.5,19.9-21.6c5.1-7.2,10.8-14.7,20.5-13.2c11.3,1.8,15.4,11.8,18.8,21.4c2.5,7.2,2.3,14.6,0.6,22.1
	c-1.8,7.7,0.5,15,4,21.7c14.3,27.7-8,68.6-33.3,78.4c-8.5,3.3-17,6.7-26.2,6.8C23.9,361.2,16.5,353.6,16.5,337.6z M94.5,244.1
	c0-3.3,0-3.9,0-4.6c0-10.8-7.6-23.3-15.9-26c-7.4-2.5-15.8,1.9-22.9,13.2c-4.6,7.3-9.8,13.9-16.4,19.3c-4.7,3.9-7.9,8.5-8.6,14.7
	c-1.5,13.8,1.4,27.8-3.7,41.3c-3.7,9.8-7.6,19.5-9.5,29.9c-2.5,13.5,4.4,25.5,16.5,27.5c17.8,3,47.2-10.9,56.3-26.7
	c8.6-15.1,17.4-30.7,10.7-48.5C95.7,270.1,89.3,256.8,94.5,244.1L94.5,244.1z"/>
<path class="st24" d="M160.6,171.2c-4.9,7.7-12,12.4-20.3,15.7c-9.1,0.9-18.1,1.4-27-1.5c-0.7-0.3-1.3-0.6-2-0.8
	c-12.2-2.7-24.6-4.9-30.5-18.4c-4.1-9.4-8.8-18.4-13.4-27.6c-3.3-6.7-5.4-13.8-4.2-21.3c1-6.2,5.2-11.2,8.1-16.7
	c11-15.5,21.8-31.2,37.5-42.7c4.4-3.2,7.5-8.2,10.8-12.8c4.7-6.5,8.6-6.7,14.7-1.3c17.1,15.2,26,34.2,28.7,56.9
	c1.3,11.2,4.1,11.9,14.9,9.3c6.4-1.5,13.7-1.3,15.3,6.5c2.1,10.1-6.6,11.2-13.4,11.5c-7.3,0.4-9.3,5-10,10.4
	C168.3,149.9,166.7,161.2,160.6,171.2z M118.5,184.7c18.4,6.2,39.8-4.8,45-23.2c4.8-14.8,6.2-29.6,0.3-44.5
	c-1.3-3.3-2.9-6.8-3.2-10.3c-1.6-16.2-2.2-32.8-14.6-45.2c-11.8-11.8-16.6-15.2-31-5.3C96.9,68.6,84.1,85.4,71.6,103
	c-8.5,12-9.1,23.8-2.5,36.4c3.7,7.1,8,13.9,10.9,21.3C87.1,178.5,102.3,182.2,118.5,184.7L118.5,184.7z"/>
<path class="st25" d="M71.2,100.6c-2.9,5.5-7,10.5-8.1,16.7c-1.3,7.5,0.9,14.6,4.2,21.3c4.5,9.2,9.3,18.2,13.4,27.6
	c5.9,13.5,18.3,15.7,30.5,18.4c0.7,0.2,1.3,0.5,2,0.8c-19.4-0.3-28.8-7-36.3-25.1c-4.4-10.6-11.4-20.1-14.1-31.4
	C60.3,118.1,63.3,108.6,71.2,100.6z"/>
<path class="st26" d="M292,296.5c-9.4,0.1-16.4-5.1-21.3-12.1c-8.6-12.5-19-15.3-33.5-11.6c-30,7.7-46.9-4.1-56.6-32.5
	c-3.3-9.6,1.5-21.3,9.8-27.2c4.8-3.4,9.6-1.6,13.5,1.4c9.2,7.2,18.9,11.7,31.1,9.3c18-3.5,32.2,6.1,46.8,14.3
	c9.6,5.4,20.3,9,27.8,17.8c6.3,7.3,8.9,15.4,5.6,24.5C311.6,290.2,302,296.5,292,296.5L292,296.5z M280.6,290.4
	c2.7,5,7.9,5.3,12.3,4.9c16.5-1.8,28.3-18.8,17.7-35.6c-0.7-1.1-1.4-2.3-2.2-3.3c-8.9-10.9-23.2-12.9-34-20.3
	c-12.9-8.9-26.7-12.9-42-10.7c-10.7,1.6-19.1-2.2-27.5-7.8c-4.6-3.1-9.8-4.9-15-1.1c-11.1,8.3-12.2,25.4-2.4,35.7
	c5.4,8.9,12.7,15.7,22.6,19.1c11.5,4,22.7,1.1,34-1.3c9-1.9,16.7-0.6,22.8,7.5c3.4,4.5,5.8,10.5,12.1,12.2
	C279.6,290,280.1,290.2,280.6,290.4L280.6,290.4z"/>
<path class="st27" d="M94.5,244.1c-5.2,12.7,1.2,26,6.5,40c6.7,17.9-2.1,33.5-10.7,48.5c-9.1,15.8-38.5,29.7-56.3,26.7
	c-12.1-2-19-14-16.5-27.5c1.9-10.4,5.9-20.1,9.5-29.9c5.1-13.5,2.2-27.6,3.7-41.3c0.7-6.2,3.8-10.8,8.6-14.7
	c6.6-5.4,11.8-12,16.4-19.3c7.2-11.3,15.5-15.6,22.9-13.2c8.3,2.7,15.9,15.2,15.9,26V244.1z M57.7,354.2c1.4-0.6,2.7-1.2,4.1-1.7
	c19.9-7.6,30.9-22.8,36.5-42.6c3.8-5.2,4.1-11.1,3.4-17.2c-1-8.7-5-16.2-9.2-23.5c-6-10.2,0.2-20.2-0.1-30.2
	c-0.3-10.1-6.4-20.3-14-22.3c-10.4-2.8-15.9,4-20.9,11.4c-4.3,6.4-7.8,13.5-14,18.3c-5.7,4.5-9.8,10-10.3,17.1
	c-1.3,16.2-0.2,32.7-7.6,47.9c-1.8,5.5-3.5,11-5.3,16.5c-2.9,8.4-0.3,21.3,5.2,25.7C32.3,359.2,49.5,359.5,57.7,354.2L57.7,354.2z"
	/>
<path class="st28" d="M163.5,161.4c-5.2,18.4-26.6,29.4-45,23.2c-2.6-0.8-5.2-1.5-7.8-2.3c-10.5-3-20.6-6.6-26.1-17
	c-5.3-10-11-19.9-15.8-30.1c-3.3-7-5.2-14.7-1.1-22.2c9.6-17.4,20.5-33.9,36.2-46.5c6.7-5.4,13.4-11.7,22.6-12.3
	c13.4-0.8,28.3,16.4,30.5,32.5c1.6,11.5-0.7,23.7,5.2,34.4c3.6,6.5,4,13.7,3.9,20.7c-0.1,4.4,1.4,9.8-2.6,13.6c0-1.2,0-2.5,0-3.7
	h0.7c0.3-1.2,0.6-2.3,0.7-3.5c0.8-10.2-1.2-19.7-5.6-29c-5.2-11.1-1-23.5-4.2-35c-3.4-12.5-9.7-22.8-22.5-26.7
	c-11.8-3.6-20.1,4.3-28.5,10.9c-6.3,4.4-11.3,10.2-15.8,16.3c-7.6,10.1-18.3,19.2-19.8,32.1c-2.7,23.4,11.4,40.9,26.2,56.2
	c9.3,9.6,24,11.8,37.7,11.5c5.1-0.1,11.1-0.4,14.5-5.8c0-0.2,0.1-0.5,0.1-0.7c5.8-4.1,11-8.8,13.4-15.8c1-1.5,2-3,3-4.6
	C163.5,158.9,163.5,160.1,163.5,161.4L163.5,161.4z"/>
<path class="st29" d="M163.6,155.4c4.1-3.9,2.6-9.2,2.6-13.6c0.1-6.9-0.3-14.1-3.9-20.7c-6-10.7-3.7-22.9-5.2-34.4
	c-2.2-16.1-17.1-33.3-30.5-32.5c-9.2,0.6-15.9,6.9-22.6,12.3C88.3,79.1,77.4,95.6,67.8,113c-4.1,7.5-2.2,15.2,1.1,22.2
	c4.8,10.3,10.5,20.1,15.8,30.1c5.6,10.5,15.6,14.1,26.1,17c2.6,0.7,5.2,1.5,7.8,2.3c-16.2-2.4-31.4-6.2-38.4-23.9
	c-2.9-7.4-7.2-14.3-10.9-21.3c-6.6-12.7-6-24.4,2.5-36.4c12.4-17.6,25.3-34.4,43.4-46.8c14.4-9.9,19.2-6.5,31,5.3
	c12.3,12.4,13,29,14.6,45.2c0.3,3.5,1.9,6.9,3.2,10.3c5.9,14.9,4.5,29.7-0.3,44.5c0-1.3,0-2.5,0-3.8
	C163.5,156.9,163.5,156.1,163.6,155.4L163.6,155.4z"/>
<path class="st30" d="M187.5,252.2c-9.8-10.3-8.7-27.4,2.4-35.7c5.1-3.8,10.4-2,15,1.1c8.4,5.6,16.9,9.3,27.5,7.8
	c15.2-2.2,29,1.8,42,10.7c10.8,7.5,25.1,9.5,34,20.3c0.8,1,1.5,2.2,2.2,3.3c-0.5,0.3-1,0.5-1.5,0.8c-1.8-2-3.5-4-5.3-6
	c-0.6-3.2-3.4-4.1-5.7-5.4c-10.8-6.1-22.8-9.9-33.4-16.6c-8.7-5.6-18.5-7.1-29-5.9c-10.2,1.2-20.1,0-29.4-5.9
	c-11.8-7.4-21.3-2.8-23.9,10.6c-1.4,7.2,1.8,13.4,5.1,19.5L187.5,252.2z"/>
<path class="st31" d="M187.5,252.2c0-0.5,0-1,0-1.5c0.6,0.5,1.3,0.8,1.7,1.4c11.8,17.7,28.2,23.1,48.6,18.1
	c10.2-2.5,20.6-5.6,28.6,5c1.6,2.2,3.4,4.2,5.2,6.3c2.5,2.7,5,5.5,7.5,8.2c-6.4-1.7-8.7-7.7-12.1-12.2c-6.1-8.1-13.8-9.4-22.8-7.5
	c-11.3,2.4-22.5,5.3-34,1.3C200.2,267.9,192.9,261.1,187.5,252.2L187.5,252.2z"/>
<path class="st31" d="M309.1,260.4c0.5-0.3,1-0.5,1.5-0.8c10.6,16.8-1.2,33.8-17.7,35.6c-4.4,0.5-9.5,0.1-12.3-4.9
	c3.6,1.2,7.2,3.1,10.9,3.3c3.9,0.2,8.3,0,10.9-4c0-0.2,0-0.5,0-0.7l1.5-1.5c1.9,0.1,2.8-1.1,3.9-2.4
	C314.2,277.2,313.9,268.9,309.1,260.4L309.1,260.4z"/>
<path class="st32" d="M302.3,289.7c-2.6,4.1-7,4.3-10.9,4c-3.7-0.2-7.2-2.1-10.9-3.3c-0.5-0.2-1-0.5-1.5-0.7c-2.5-2.7-5-5.5-7.5-8.2
	c0-0.5,0-1,0-1.5c0.5,0.3,1,0.5,1.5,0.8c2.2,4.2,5.4,7.2,9.8,9c5.4,3.1,10.8,4.4,16.5,0.7C300.3,290.2,301.3,290,302.3,289.7z"/>
<path class="st33" d="M20.2,328c1.8-5.5,3.5-11,5.3-16.5c7.5-12.8,8.8-26.7,8.3-41.1c-0.2-7.2,2.2-13.7,7.7-18.8
	c7.1-6.6,13-14,17.8-22.4c6.2-10.8,16.2-14,23.7-7.2c6,5.5,8.2,13.1,6.6,21.2c-2.1,10.5-4.4,20.6,2.7,30.4c7.9,11,10.8,23.2,6,36.4
	c-5.6,19.8-16.6,35-36.5,42.6c-1.4,0.5-2.7,1.1-4.1,1.7c-3,0.6-6.1,1.2-9.1,1.9c-13.4,3.1-24-0.7-27.4-11.1
	C19.4,339.8,20.4,333.7,20.2,328z M21.7,332.3c0,16.5,8,24.4,19.9,23.2c25.2-2.6,43-14.8,52.8-38.6c5.2-12.6,8-25.5-0.4-37.1
	c-8.9-12.3-11.1-24.4-6.8-38.8c2.2-7.4-0.9-15.6-8.6-18.9c-7.3-3.1-13,1.2-17.1,7.6c-4.4,6.9-7.8,14.5-14.3,20
	c-8.5,7.1-11.8,16.3-11.2,27.2c0.5,9.7-1,19-5.1,28C26.4,314.6,22,324.4,21.7,332.3L21.7,332.3z"/>
<path class="st34" d="M98.3,310c4.8-13.3,2-25.4-6-36.4c-7.1-9.8-4.8-20-2.7-30.4c1.6-8.2-0.7-15.7-6.6-21.2
	c-7.4-6.8-17.5-3.7-23.7,7.2c-4.8,8.4-10.7,15.9-17.8,22.4c-5.5,5.1-7.9,11.6-7.7,18.8c0.5,14.4-0.8,28.4-8.3,41.1
	c7.4-15.2,6.3-31.7,7.6-47.9c0.6-7.1,4.6-12.6,10.3-17.1c6.2-4.9,9.7-11.9,14-18.3c5-7.4,10.4-14.2,20.9-11.4
	c7.6,2,13.7,12.2,14,22.3s-5.8,20,0.1,30.2c4.2,7.3,8.2,14.9,9.2,23.5C102.4,298.9,102.1,304.8,98.3,310L98.3,310z"/>
<path class="st34" d="M20.2,328c0.2,5.7-0.8,11.8,1,17c3.5,10.5,14,14.2,27.4,11.1c3-0.7,6.1-1.3,9.1-1.9c-8.2,5.3-25.4,5-32.4-0.5
	C19.9,349.3,17.3,336.4,20.2,328z"/>
<path class="st35" d="M163.6,155.4c0,0.7,0,1.5-0.1,2.2c-1,1.5-2,3-3,4.6c-0.1-0.9-0.4-2-0.1-2.8c2.4-8.2,3.6-17.1-0.2-24.5
	c-7.6-14.5-7.4-29.7-8.3-45.3c-1.2-23-22.3-32.9-41.9-20.7c-13.5,8.4-21.9,21.4-30.7,34.2c-4.3,6.3-9,13.5-7.7,20.5
	c3.9,20.3,14.3,37.6,31.4,49.4c13.3,9.2,28.4,11.7,44,5c0,0.2-0.1,0.5-0.1,0.7c-11.6,6.4-23.4,5.6-35.3,0.8
	c-7.3-3.6-14.9-6.9-20-13.7c-3.4-4.4-6.6-8.9-10-13.3c-0.8-1.7-1.4-3.4-2.4-5c-7.9-12.6-13.2-25.4-4.4-39.8c2.9-4.9,6-9.6,9.1-14.4
	c5.7-7.6,11.8-14.8,18.7-21.3c14-13.4,31.3-14.8,42.1-3c6.8,7.4,9.3,16.6,9.8,26.4c0.5,9.5-1.7,19.3,3.3,28.3
	c4.9,8.8,6.3,18.3,5.8,28.2C163.5,152.9,163.6,154.2,163.6,155.4L163.6,155.4z"/>
<path class="st36" d="M147.1,178c-15.6,6.7-30.7,4.2-44-5c-17.1-11.9-27.5-29.1-31.4-49.4c-1.3-7.1,3.4-14.2,7.7-20.5
	c8.7-12.7,17.1-25.8,30.7-34.2c19.6-12.2,40.7-2.3,41.9,20.7c0.8,15.6,0.7,30.8,8.3,45.3c3.9,7.4,2.6,16.3,0.2,24.5
	c-0.2,0.9,0.1,1.9,0.1,2.8C158.1,169.2,152.9,173.9,147.1,178L147.1,178z M150.8,105.1c0-5.8,0.1-9.6,0-13.3
	c-0.4-20.7-19.2-32.2-37.6-23C99.9,75.5,92.1,87.4,83.9,99c-5.6,8-12.5,16.5-10,26.5c5.3,21.5,16.8,39.6,37.2,49.9
	c13.1,6.6,27.3,8.5,39.3-2.3c11.4-10.4,13.8-24.1,8.5-38.4C154.9,124.4,148.1,115,150.8,105.1L150.8,105.1z"/>
<path class="st37" d="M111.7,179.4c11.9,4.8,23.6,5.7,35.3-0.8c-3.4,5.4-9.4,5.6-14.5,5.8c-13.7,0.3-28.4-1.9-37.7-11.5
	c-14.8-15.3-28.9-32.8-26.2-56.2c1.5-12.9,12.2-22,19.8-32.1c4.6-6.1,9.5-11.8,15.8-16.3c1.4-0.8,2.8-1.5,4.2-2.3
	c8.3-4.9,16.4-10.4,26.8-5.9c13.2,5.8,17.7,17.1,20.1,30.1c1.9,10.3-1.9,21.2,3.2,30.9c5.1,9.6,6.1,19.8,5.7,30.4
	c-0.2,0-0.5,0-0.7,0c0.6-9.9-0.9-19.4-5.8-28.2c-4.9-9-2.8-18.8-3.3-28.3c-0.5-9.8-3-19-9.8-26.4c-10.8-11.8-28.1-10.4-42.1,3
	c-6.9,6.6-13,13.7-18.7,21.3C66.1,108,65.1,135,81.5,152.2C87.8,165.8,96.7,176.1,111.7,179.4L111.7,179.4z"/>
<path class="st38" d="M164.3,151.7c0.4-10.6-0.6-20.8-5.7-30.4c-5.1-9.7-1.4-20.7-3.2-30.9c-2.4-13.1-7-24.4-20.1-30.1
	c-10.4-4.5-18.5,1-26.8,5.9c-1.4,0.8-2.8,1.5-4.2,2.3c8.4-6.6,16.8-14.6,28.5-10.9c12.8,3.9,19.1,14.3,22.5,26.7
	c3.1,11.5-1.1,23.9,4.2,35c4.4,9.3,6.3,18.8,5.6,29C164.9,149.3,164.5,150.5,164.3,151.7z"/>
<path class="st39" d="M271.6,280v1.5c-1.7-2.1-3.5-4.1-5.2-6.3c-8-10.5-18.4-7.5-28.6-5c-20.3,5-36.7-0.4-48.6-18.1
	c-0.4-0.6-1.1-1-1.7-1.4c-3.3-6.1-6.4-12.3-5.1-19.5c2.6-13.4,12.1-18,23.9-10.6c9.3,5.9,19.2,7.1,29.4,5.9
	c10.5-1.2,20.2,0.3,29,5.9c10.6,6.8,22.6,10.5,33.4,16.6c2.3,1.3,5.1,2.3,5.7,5.4c-5-2.8-10-5.5-15-8.3c-0.5-0.3-1-0.5-1.5-0.8
	c-8.3-4.2-16.7-8.2-24.9-12.5c-8.7-4.6-17.7-6.9-27.6-4.7c-11.7,1.2-22.3-1.7-32.4-7.6c-4.6-2.7-9.6-2.5-13.4,1.4
	c-4.3,4.6-6.7,10.1-4.4,16.6c1.6,14.1,24.7,37,48,31.1C247.4,266.1,262.5,261.4,271.6,280z"/>
<path class="st40" d="M288.8,246.2c5,2.8,10,5.5,15,8.3c1.8,2,3.5,4,5.3,6c4.8,8.5,5.1,16.7-1.4,24.6c-1.1,1.3-2,2.6-3.9,2.4
	c0.6-1,1.1-2.2,1.9-3.1c8.3-9.9,4.7-25.2-7.2-30.7c-1.2-0.8-2.3-1.9-3.6-2.5c-11.5-5.6-24.5-7.7-35.1-15.3
	c-6.3-4.6-13.9-6.9-21.1-5.8c-12.6,1.9-24,0.7-35.4-5c-9-4.5-16.7,1-16.4,11.1c0.2,8.3,5.3,14.3,10.9,19.7
	c11.3,10.8,24.6,15.1,40,11.4c-0.5,0.3-1.1,0.6-1.6,0.8c-18.1,4.8-40.1-5.5-47.9-22.6c-3.2-7-4.4-14.5,1.7-20.5
	c5.8-5.7,12.4-2.2,17.9,1c8.5,4.9,17.7,4.7,26.6,3.6c11-1.3,20.3,1.8,29.4,7.2C271.7,241.2,279.4,245.8,288.8,246.2L288.8,246.2z"/>
<path class="st41" d="M237.8,267.2c-15.5,3.6-28.7-0.7-40-11.4c-5.7-5.4-10.7-11.3-10.9-19.7c-0.3-10.1,7.4-15.6,16.4-11.1
	c11.4,5.7,22.9,6.9,35.4,5c7.3-1.1,14.8,1.3,21.1,5.8c10.6,7.7,23.6,9.8,35.1,15.3c1.3,0.6,2.4,1.7,3.6,2.5
	c-12.9-6.7-28.2-7.2-40.1-16.6c-6.7-5.2-15.1-6.8-23.4-5.8c-10.7,1.3-20.8,0.9-30.5-4.1c-4.7-2.4-9.6-3.3-13.3,1.1
	c-3.6,4.3-4,9.6-1.1,14.7c9.4,16.6,29.4,30.6,54.6,20.9c13.3-5.1,16.1-3.8,24.6,7.4c3.4,4.4,5.9,9.5,10.2,13.3
	c6.4,5.6,16.1,6.5,22.8,1.6c6.9-5,8.7-13.8,5-21.9c-2-4.4-6.2-6.8-8.8-10.6c11.9,5.5,15.5,20.8,7.2,30.7c-0.8,0.9-1.3,2-1.9,3.1
	c-0.5,0.5-1,1-1.5,1.5c-0.5,0-1,0-1.5,0c-4.4,1.2-8.9,1.9-13.5,1.5c-1.5-0.2-3-0.5-4.5-0.7c-4.3-1.8-7.6-4.8-9.8-9
	c-5.1-8.5-9.4-18.2-22-16.4C246.6,264.9,242.2,266.2,237.8,267.2L237.8,267.2z"/>
<path class="st42" d="M300.8,289h1.5v0.7c-1,0.3-2,0.5-3,0.8C299.8,290,300.3,289.5,300.8,289z"/>
<path class="st42" d="M237.8,267.2c4.4-1,8.8-2.3,13.3-2.9c12.6-1.7,16.9,8,22,16.4c-0.5-0.3-1-0.5-1.5-0.8
	c-9-18.6-24.2-13.8-39-10.1c-23.3,5.8-46.5-17-48-31.1c0-17.3,8.6-22.4,23.6-14.1c8.4,4.7,17.4,5.5,26.7,3.6
	c12.2-0.9,23.1,2.5,33.4,9.3c5.7,3.8,12.2,6.7,19.2,7.9c0.5,0.3,1,0.5,1.5,0.8c-9.4-0.4-17.1-5-24.9-9.6c-9.1-5.4-18.4-8.5-29.4-7.2
	c-8.9,1-18.1,1.3-26.6-3.6c-5.6-3.2-12.1-6.6-17.9-1c-6.2,6-4.9,13.5-1.7,20.5c7.8,17.1,29.8,27.4,47.9,22.6
	C236.7,267.8,237.3,267.5,237.8,267.2L237.8,267.2z"/>
<path class="st42" d="M282.8,289.7c1.5,0.2,3,0.5,4.5,0.7c4,1.7,8,0.5,12,0C293.6,294.1,288.2,292.9,282.8,289.7z"/>
<path class="st43" d="M21.7,332.3c0.3-7.9,4.7-17.7,9.1-27.5c4.1-9,5.6-18.3,5.1-28c-0.5-10.9,2.8-20.1,11.2-27.2
	c6.5-5.4,9.8-13.1,14.3-20c4.1-6.4,9.8-10.7,17.1-7.6c7.7,3.3,10.8,11.5,8.6,18.9c-4.2,14.5-2.1,26.6,6.8,38.8
	c8.4,11.6,5.6,24.5,0.4,37.1c-9.8,23.8-27.6,36-52.8,38.6C29.8,356.7,21.7,348.8,21.7,332.3L21.7,332.3z M36.7,295
	c-0.5,1.5-1,3-1.5,4.5c-2.5,5.8-4.9,11.7-7.6,17.4c-3.5,7.5-4.5,15.3-3.5,23.3c1.3,10.7,12.8,15.3,27.8,12.2
	c26-5.4,44.9-30.4,44.9-58.2c1.2-1.5,0.9-3.1,0.3-4.6c-1.6-3.7-2.6-8.2-5.4-11c-11.6-11.8-10.6-25.2-6.9-39.6
	c1.5-5.9-1.2-11.4-6.5-14.2c-5.5-2.9-10.7-0.2-13.6,4.5c-6.5,10.5-14.1,20-22,29.5C34,269.2,40.1,283.1,36.7,295L36.7,295z"/>
<path class="st44" d="M81.7,152.4c-16.5-17.2-15.5-44.2,2.3-59.3c-3,4.8-6.1,9.6-9.1,14.4c-8.8,14.4-3.4,27.3,4.4,39.8
	C80.3,149,81,150.7,81.7,152.4z"/>
<path class="st44" d="M111.7,179.4c-15.1-3.4-23.9-13.7-30-27c3.3,4.4,6.6,8.9,10,13.3C96.9,172.5,104.4,175.8,111.7,179.4z"/>
<path class="st45" d="M150.8,105.1c-2.7,9.9,4.1,19.3,8,29.6c5.4,14.3,2.9,28.1-8.5,38.4c-11.9,10.9-26.2,9-39.3,2.3
	c-20.4-10.3-31.9-28.4-37.2-49.9c-2.5-10.1,4.4-18.6,10-26.5c8.2-11.6,16-23.6,29.3-30.2c18.3-9.2,37.2,2.3,37.6,23
	C150.8,95.5,150.8,99.3,150.8,105.1L150.8,105.1z M148.5,98.5c0-13-2.9-22.6-13-27.8c-9.9-5.1-19.1-2-27.7,4.1
	c-11,7.9-18,19.2-25.2,30.2c-4.9,7.5-9.1,15.5-5.8,24.9c6.3,17.7,17,32.3,32.5,42.6c13.8,9.2,29.7,8.4,40.2-0.5
	c9.6-8.1,13.3-25.1,6.5-38.2C149.8,121.7,145.2,109.9,148.5,98.5L148.5,98.5z"/>
<path class="st46" d="M234.8,228.2c-9.3,1.9-18.3,1-26.7-3.6c-15-8.3-23.6-3.2-23.6,14.1c-2.3-6.6,0.1-12.1,4.4-16.6
	c3.8-4,8.9-4.1,13.4-1.4C212.5,226.5,223.1,229.4,234.8,228.2z"/>
<path class="st46" d="M287.3,245.5c-7-1.2-13.4-4.1-19.2-7.9c-10.2-6.8-21.1-10.2-33.4-9.3c9.8-2.2,18.9,0.1,27.6,4.7
	C270.6,237.3,279,241.3,287.3,245.5L287.3,245.5z"/>
<path class="st47" d="M298.6,253.7c2.6,3.8,6.8,6.2,8.8,10.6c3.7,8.2,1.9,16.9-5,21.9c-6.6,4.8-16.4,4-22.8-1.6
	c-4.3-3.8-6.8-8.8-10.2-13.3c-8.6-11.3-11.4-12.5-24.6-7.4c-25.2,9.7-45.2-4.3-54.6-20.9c-2.9-5.1-2.6-10.4,1.1-14.7
	c3.7-4.4,8.7-3.5,13.3-1.1c9.7,5,19.9,5.4,30.5,4.1c8.3-1,16.7,0.6,23.4,5.8C270.4,246.5,285.7,247,298.6,253.7z M191.3,238.7
	c0.1,0.4,0.4,2.3,1.3,3.9c5.8,10.1,14.7,16.8,25.5,20.8c11,4.1,21.2,0.3,31.5-3.5c11.1-4.1,14.4-2.5,20.1,8
	c2.9,5.3,5.5,10.7,10.2,14.7c6.3,5.4,13.4,7.6,20.7,2.4c6.9-4.9,9.1-11.7,5.2-19.6c-5.5-11.2-15.9-14.3-27-16.2
	c-5.9-1-12.2-0.7-17-5.6c-6.9-7.1-15.4-10.8-25.2-10.1c-11.8,0.9-23.2,1-34.4-4.1C196.1,226.6,191.3,230.7,191.3,238.7L191.3,238.7z
	"/>
<path class="st40" d="M299.3,290.5c-4,0.6-8,1.7-12,0c4.6,0.4,9.1-0.3,13.5-1.5C300.3,289.5,299.8,290,299.3,290.5z"/>
<path class="st48" d="M96.8,294.2c0,27.7-18.9,52.8-44.9,58.2c-14.9,3.1-26.4-1.5-27.8-12.2c-1-8,0.1-15.9,3.5-23.3
	c2.7-5.8,5.1-11.6,7.6-17.4c3.5-2,3-5.7,3.7-8.8c2.3-9.7-2.2-20.8,4.7-29.4c8-10,16.9-19.2,23-30.6c1.6-3,5.6-5.3,9.8-3.5
	c4.1,1.8,5.7,5.3,6.1,9.6c0.4,4.7-1,9.1-2.4,13.5c-2.3,6.7-1.4,12.9,3.2,18.5c0.8,1.1,1.5,2.3,2.3,3.4
	C90.6,278.8,96.3,285.1,96.8,294.2L96.8,294.2z M93.7,307.7C98,299.3,96,287,88.5,279c-10.1-10.8-18.2-21.6-10.1-37.5
	c1.5-2.8,1.4-7.9-3.2-9.5c-4.8-1.7-7,2.2-8.9,5.5c-2.9,5.1-4.5,11.1-9.7,14.4c-10.7,7-16,16.3-14.7,29.3c0.8,7.5-1.1,14.5-4.8,21.2
	c-4.3,7.7-8.2,15.7-10.5,24.3c-3.2,12,1.6,22.6,11.5,24.3c6.7,1.2,13.4,0.3,19.6-2.7c5.2-1.3,9.8-4.2,14.2-7.1
	C83.8,333,88.2,320,93.7,307.7L93.7,307.7z"/>
<path class="st47" d="M96.8,294.2c-0.4-9.1-6.2-15.4-11.3-22.1c-0.8-1.1-1.5-2.2-2.3-3.4c-5.3-9.6-1.3-19,0.3-28.6
	c1-6.1-0.3-11.7-6.7-14.2c-5.7-2.2-9.8,1.2-12.4,5.6c-5.5,9.3-11.4,18.2-19.4,25.8c-4.4,4.2-6.4,10.2-6.2,16.7
	c0.2,7,0.6,14.2-2.2,20.9c3.4-11.9-2.7-25.8,6-36.1c7.9-9.5,15.5-19,22-29.5c2.9-4.7,8.1-7.4,13.6-4.5c5.4,2.8,8.1,8.4,6.5,14.2
	c-3.8,14.4-4.7,27.8,6.9,39.6c2.7,2.8,3.7,7.2,5.4,11C97.7,291.1,98,292.8,96.8,294.2z"/>
<path class="st37" d="M36.7,295c2.8-6.7,2.4-13.9,2.2-20.9c-0.2-6.5,1.8-12.6,6.2-16.7c8-7.6,13.8-16.5,19.4-25.8
	c2.6-4.4,6.8-7.8,12.4-5.6c6.4,2.5,7.7,8.1,6.7,14.2c-1.6,9.5-5.6,19-0.3,28.6c-4.6-5.5-5.4-11.8-3.2-18.5c1.5-4.4,2.8-8.8,2.4-13.5
	c-0.4-4.3-2-7.8-6.1-9.6c-4.2-1.8-8.2,0.5-9.8,3.5c-6.1,11.5-15,20.7-23,30.6c-6.9,8.6-2.4,19.7-4.7,29.4c-0.7,3.1-0.1,6.9-3.7,8.8
	C35.7,298,36.2,296.5,36.7,295z"/>
<path class="st49" d="M148.5,98.5c-3.3,11.4,1.3,23.1,7.6,35.2c6.8,13.1,3.1,30.1-6.5,38.2c-10.4,8.9-26.4,9.7-40.2,0.5
	c-15.6-10.3-26.3-24.9-32.5-42.6c-3.3-9.4,0.9-17.4,5.8-24.9c7.2-11,14.2-22.3,25.2-30.2c8.5-6.1,17.8-9.2,27.7-4.1
	C145.7,75.9,148.5,85.5,148.5,98.5L148.5,98.5z M144.1,99.3c-0.2-11-2.2-19.3-11.3-23.8c-9.2-4.5-17.3-1.2-24.7,4.4
	c-9.6,7.2-15.5,17.4-22,27.1c-8.2,12.1-7,24,1.2,35.7c6.2,8.8,13.2,16.8,21.1,24c10.5,9.7,27.5,11.5,37.6,4.1
	c10.6-7.8,14-23.6,6.2-36.7C145.4,122.6,140.4,111.2,144.1,99.3z"/>
<path class="st50" d="M191.3,238.7c0-8,4.8-12.1,11-9.3c11.2,5.1,22.6,5,34.4,4.1c9.8-0.7,18.3,3,25.2,10.1c4.7,4.8,11,4.6,17,5.6
	c11.1,1.8,21.5,5,27,16.2c3.9,7.9,1.6,14.7-5.2,19.6c-7.3,5.2-14.4,3-20.7-2.4c-4.6-4-7.3-9.4-10.2-14.7c-5.7-10.4-9-12-20.1-8
	c-10.3,3.8-20.6,7.5-31.5,3.5c-10.8-4-19.6-10.6-25.5-20.8C191.7,241.1,191.4,239.2,191.3,238.7L191.3,238.7z M227.6,262.9
	c10-0.4,17.7-3.8,24.8-8.6c4.2-2.8,5.2-6.5,1.7-10.7c-6.1-7.3-14.4-8.3-23-7.6s-17.2,2.4-25.7-1.4c-2.4-1.1-5.8-1.6-8.1,0.8
	c-2.1,2.2-1.4,5.2,0.2,7.3C205.5,253.2,215,261.5,227.6,262.9L227.6,262.9z M279.5,252.2c-9,0-11.4,3.3-8.6,11.8
	c1.9,5.9,4.6,11.4,8.8,15.9c4.3,4.7,9.8,7.5,16.4,5.2c6.2-2.2,9.5-6.7,9.3-13.7C305.1,261.1,293.3,252.2,279.5,252.2L279.5,252.2z"
	/>
<path class="st51" d="M93.7,307.7c-5.5,12.3-9.9,25.3-21.8,33.4c-4.4,3-8.9,5.8-14.2,7.1c-1.8,0.3-3.7,0.4-5.5,0.9
	c-16.4,4.9-27-3.4-25.2-20.1c0.9-7.6,4.3-14.7,8.5-21c6.4-9.9,8.7-20.3,8.1-32c-0.4-7.1,2.6-13.3,8.8-17.6c6.6-4.6,14-8.5,16.4-17.1
	c0.6-2.2,1.4-5.6,4.2-4.6c2.7,1,1.7,4.6,0.6,6.6c-5.4,10.2-1.7,18.7,5,26.1C88.6,280.5,98.9,290.9,93.7,307.7L93.7,307.7z
	 M62.2,344.5c8.4-3.3,15.2-8.4,19.5-16.5c9.4-13.6,20-34,3.1-49.3c-6.7-6-12.8-12.5-17.6-20.2c-1.1-1.8-3.3-2.1-5.4-1.8
	c-8.5,1.4-16,10.5-16.2,19.2c-0.2,6.6,1.1,13.2-1.8,19.6c-4.6,10.2-11.8,19.1-14.9,30.1c-3.2,11.5,0.4,21,10.1,22.9
	C47.2,350.1,55,348.4,62.2,344.5L62.2,344.5z"/>
<path class="st52" d="M93.7,307.7c5.1-16.8-5.2-27.2-15.1-38.2c-6.7-7.4-10.4-16-5-26.1c1.1-2,2-5.6-0.6-6.6
	c-2.8-1.1-3.6,2.4-4.2,4.6c-2.4,8.7-9.8,12.5-16.4,17.1c-6.2,4.3-9.1,10.5-8.8,17.6c0.6,11.6-1.7,22.1-8.1,32
	c-4.1,6.4-7.6,13.4-8.5,21c-1.9,16.7,8.7,24.9,25.2,20.1c1.8-0.5,3.6-0.6,5.5-0.9c-6.3,3-13,3.8-19.6,2.7
	c-9.9-1.7-14.8-12.3-11.5-24.3c2.3-8.6,6.2-16.5,10.5-24.3c3.7-6.6,5.6-13.7,4.8-21.2c-1.3-13,4-22.3,14.7-29.3
	c5.2-3.4,6.8-9.4,9.7-14.4c1.9-3.3,4.1-7.2,8.9-5.5c4.7,1.6,4.7,6.7,3.2,9.5c-8.1,15.8,0,26.7,10.1,37.5
	C96.1,287.1,98,299.3,93.7,307.7L93.7,307.7z"/>
<path class="st53" d="M144.1,99.3c-3.7,11.8,1.2,23.2,8.1,34.8c7.8,13.1,4.4,28.9-6.2,36.7c-10.1,7.4-27,5.6-37.6-4.1
	c-7.9-7.3-15-15.2-21.1-24c-8.2-11.7-9.4-23.6-1.2-35.7c6.6-9.6,12.5-19.9,22-27.1c7.4-5.5,15.5-8.9,24.7-4.4S144,88.3,144.1,99.3
	L144.1,99.3z M84.5,125.6c0.2,1,0.2,3.8,1.2,6.1c6.8,15.3,17.6,27.4,31.2,36.8c8,5.4,17.1,6.5,25.8,1.2c12-7.4,15.1-23.5,6.1-35.8
	c-7.8-10.7-12.2-21.4-8.9-35c1.6-6.9-1.3-14.1-7.7-18.3c-5.8-3.8-12.1-3-18.1,0.2c-5.6,2.9-10,7.1-13.5,12.1
	C93.8,102.4,84.5,110.8,84.5,125.6L84.5,125.6z"/>
<path class="st54" d="M227.6,262.9c-12.6-1.4-22.1-9.7-30.1-20.1c-1.6-2.1-2.3-5.1-0.2-7.3c2.2-2.4,5.6-1.9,8.1-0.8
	c8.5,3.8,17.1,2.1,25.7,1.4c8.7-0.7,16.9,0.2,23,7.6c3.5,4.2,2.5,7.9-1.7,10.7C245.3,259.1,237.6,262.5,227.6,262.9L227.6,262.9z
	 M233,239.4c-7.9-0.6-15.2,2.7-22.7,3.9c-1.1,0.2-1.7,0.8-1.2,2.2c3,7.7,13.4,14.5,21.7,14.2c8.3-0.4,18.5-6.7,17.7-11.6
	C247,239.3,239.5,239.8,233,239.4L233,239.4z"/>
<path class="st55" d="M279.5,252.2c13.8,0,25.6,8.9,25.9,19.2c0.2,7-3.1,11.5-9.3,13.7c-6.6,2.4-12.1-0.5-16.4-5.2
	c-4.2-4.5-6.9-10-8.8-15.9C268.1,255.5,270.5,252.2,279.5,252.2L279.5,252.2z M283.3,255.9c-3.8,0.3-8.2,0.8-8.1,7.5
	c0.3,9.8,8.3,19.6,16.6,19.5c7-0.2,10.6-4.6,11-10.9C303.5,264.1,293.6,256,283.3,255.9z"/>
<path class="st56" d="M62.2,344.5c-7.2,3.9-15.1,5.6-23,4.1c-9.7-1.9-13.4-11.4-10.1-22.9c3.1-11,10.3-19.9,14.9-30.1
	c2.8-6.3,1.6-13,1.8-19.6c0.2-8.7,7.7-17.8,16.2-19.2c2.1-0.4,4.3,0,5.4,1.8c4.8,7.7,10.9,14.2,17.6,20.2
	c16.9,15.2,6.3,35.7-3.1,49.3c0.2-1,0.5-2,0.7-3c2.7-5.8,5.5-11.5,8.2-17.3c4-8.4,2.4-16.2-2.8-23.4c-5.8-7.9-14.1-13.3-21.2-19.9
	c-5.4-5-12.8-2.5-16.5,4.1c-3.8,6.9-1.2,14.5-2.6,21.7c-2.2,11.3-11.4,18.9-15.3,29.3c-3,8-6.2,16.6,0.4,24c4.9,5.5,12,5.8,18.9,3.3
	C55.2,346,58.7,345.2,62.2,344.5L62.2,344.5z"/>
<path class="st56" d="M82.5,325c-0.2,1-0.5,2-0.7,3c-4.3,8.1-11.1,13.2-19.5,16.5c-3.5,0.7-7,1.5-10.5,2.2
	C64.7,343.3,75.3,336.6,82.5,325z"/>
<path class="st57" d="M84.5,125.6c-0.1-14.8,9.3-23.2,16.1-32.8c3.5-5,8-9.2,13.5-12.1c6.1-3.2,12.4-4,18.1-0.2
	c6.4,4.2,9.3,11.4,7.7,18.3c-3.2,13.6,1.1,24.3,8.9,35c9,12.3,5.9,28.4-6.1,35.8c-8.6,5.3-17.8,4.2-25.8-1.2
	c-13.7-9.3-24.4-21.5-31.2-36.8C84.7,129.4,84.7,126.6,84.5,125.6z M136.8,100.2c-0.8-7-1.6-13-7.3-16c-5.9-3.2-11.9-2.1-17.2,1.9
	c-8.6,6.3-14.3,15.2-20.2,23.8c-6.3,9.3-6.2,20.2,0.6,28.9c6.3,8,13,15.8,20,23.1c9.3,9.7,22.7,11.2,31.4,4.1
	c8.6-7,10.3-20.3,2.6-30.9C138.7,124.1,130.8,113.7,136.8,100.2L136.8,100.2z"/>
<path class="st58" d="M233,239.4c6.6,0.4,14-0.2,15.5,8.7c0.8,4.9-9.4,11.3-17.7,11.6c-8.3,0.4-18.8-6.5-21.7-14.2
	c-0.5-1.4,0.1-2,1.2-2.2C217.8,242.1,225,238.8,233,239.4z M231.8,243.1c-4.5,0.2-10.1-0.1-10.3,6.4c-0.2,5.6,4.7,6.2,9.1,6.3
	c5.3,0.1,10.4-1.3,10.7-7.3C241.5,242.9,236.2,243.3,231.8,243.1L231.8,243.1z"/>
<path class="st58" d="M283.3,255.9c10.3,0,20.2,8.2,19.6,16.1c-0.5,6.3-4.1,10.7-11,10.9c-8.3,0.2-16.4-9.6-16.6-19.5
	C275.1,256.7,279.5,256.3,283.3,255.9z M297.9,271.2c-0.6-6.3-5-9.2-10.7-9.8c-3.8-0.4-6.2,2.5-5.8,6.2c0.6,5.3,3.2,9.5,9.2,10
	C295.1,278.1,297.5,275.9,297.9,271.2L297.9,271.2z"/>
<path class="st59" d="M82.5,325c-7.1,11.7-17.8,18.4-30.8,21.8c-16.5,0-23-4.7-21.6-16.1c0.7-6.1,3.1-11.8,6.5-17
	c6.5-10,15.1-19.2,13.3-32.7c-0.3-2.4,0.5-5,1.2-7.3c1.9-6.2,6.3-9.6,12.5-7.1c20.3,8.4,27.8,20.2,27.2,41.2
	C88,313.5,85.2,319.2,82.5,325z M89.2,299.1c0-12.2-14.3-24.9-26.7-23.7c-2.8,0.3-4.2,1.8-4.9,4.4c-2.2,9.1-3.7,18.4-10.7,25.4
	c-4.1,4.1-7.8,8.5-10.3,13.6c-3.1,6.3-5.8,13.1-1.8,19.9c3,5,8.2,6.1,13.8,5.7C73.1,342.3,86,319.1,89.2,299.1z"/>
<path class="st56" d="M90.7,307.7c0.6-21-6.9-32.8-27.2-41.2c-6.2-2.6-10.6,0.8-12.5,7.1c-0.7,2.4-1.5,5-1.2,7.3
	c1.8,13.5-6.8,22.6-13.3,32.7c-3.4,5.2-5.8,10.9-6.5,17c-1.3,11.5,5.1,16.2,21.6,16.1c-6.9,2.5-14,2.2-18.9-3.3
	c-6.7-7.4-3.5-15.9-0.4-24c3.9-10.4,13.1-18,15.3-29.3c1.4-7.1-1.2-14.7,2.6-21.7c3.7-6.7,11-9.2,16.5-4.1
	c7.1,6.5,15.4,11.9,21.2,19.9C93.1,291.5,94.7,299.3,90.7,307.7z"/>
<path class="st60" d="M136.8,100.2c-6,13.5,1.9,23.9,10,35c7.8,10.6,6,23.9-2.6,30.9c-8.7,7.1-22.1,5.6-31.4-4.1
	c-7-7.4-13.7-15.1-20-23.1c-6.9-8.7-6.9-19.6-0.6-28.9c5.9-8.7,11.6-17.5,20.2-23.8c5.4-3.9,11.4-5.1,17.2-1.9
	C135.2,87.2,136,93.2,136.8,100.2L136.8,100.2z M131.7,168.2c7.4,0.6,12.8-3.5,16.2-10.2c3.8-7.5,2.6-15.3-2.5-21.5
	c-8.8-10.7-15.7-20.8-12.4-36.3c2.4-11.4-8.1-17.1-18.7-11.6c-5.4,2.8-8.8,7.6-12.6,12.1c-13.3,15.4-15.1,25.2-6.4,37.4
	c4.5,6.3,9.4,12.2,14.5,18C115.5,162.3,121.4,168.5,131.7,168.2z"/>
<path class="st61" d="M231.8,243.1c4.5,0.1,9.8-0.2,9.5,5.5c-0.2,6-5.4,7.4-10.7,7.3c-4.4-0.1-9.3-0.7-9.1-6.3
	C221.7,243.1,227.3,243.3,231.8,243.1L231.8,243.1z"/>
<path class="st62" d="M297.9,271.2c-0.4,4.7-2.9,6.8-7.2,6.4c-6-0.5-8.6-4.7-9.2-10c-0.4-3.7,2-6.7,5.8-6.2
	C292.9,262.1,297.3,265,297.9,271.2L297.9,271.2z"/>
<path class="st63" d="M89.2,299.1c-3.3,19.9-16.1,43.2-40.7,45.3c-5.5,0.5-10.8-0.7-13.8-5.7c-4-6.8-1.4-13.6,1.8-19.9
	c2.6-5.2,6.2-9.6,10.3-13.6c7-7,8.6-16.3,10.7-25.4c0.6-2.6,2.1-4.1,4.9-4.4C74.9,274.2,89.3,286.9,89.2,299.1z M38.2,327
	c0,10.4,6.3,14.6,14.8,12.7c19-4.3,25.5-19.6,30.8-35.6c2.4-7.2,0.7-13.9-7.4-16.7c-8.1-2.7-11.4,3.2-14.3,9.2
	c-2.2,4.7-5.6,8.3-9.6,11.7C45.6,314,38.6,319.8,38.2,327L38.2,327z"/>
<path class="st64" d="M131.7,168.2c-10.2,0.3-16.2-5.9-21.9-12.2c-5.1-5.7-10.1-11.7-14.5-18c-8.7-12.2-6.8-21.9,6.4-37.4
	c3.8-4.4,7.2-9.3,12.6-12.1c10.6-5.4,21.2,0.2,18.7,11.6c-3.3,15.6,3.6,25.6,12.4,36.3c5.1,6.2,6.3,13.9,2.5,21.5
	C144.5,164.7,139.1,168.8,131.7,168.2z M130.5,108.1c0-3-0.1-4.4,0-5.7c0.3-5.1,0-10.2-5.1-12.7c-5.4-2.7-10,0-14.3,3.5
	c-7,5.7-12.2,12.8-16.6,20.5c-3.8,6.7-4.2,14.6,0.3,21c6.5,9.1,13.6,17.9,21.2,26c7.8,8.3,19.6,8.8,26.6,2.4
	c7.6-7,8.1-18.2,0.6-27.3C136.3,127.1,127.9,119.3,130.5,108.1z"/>
<path class="st65" d="M38.2,327c0.4-7.2,7.4-13,14.3-18.7c4-3.3,7.4-6.9,9.6-11.7c2.8-6,6.2-11.9,14.3-9.2s9.9,9.4,7.4,16.7
	c-5.3,16-11.8,31.3-30.8,35.6C44.6,341.6,38.2,337.4,38.2,327L38.2,327z M81.7,300.5c0.8-4.9-1.4-8.2-5.9-9.5
	c-3.9-1.1-6.9,1.4-8.4,4.6c-4.1,8.4-11.2,13.7-18.4,19.1c-3.8,2.9-6.7,6.7-8,11.4c-1.9,6.5,1.7,11.3,8.6,11.6
	C67,338.7,78.9,316.5,81.7,300.5z"/>
<path class="st66" d="M130.5,108.1c-2.6,11.2,5.8,19,12.9,27.6c7.5,9.1,7,20.2-0.6,27.3c-7,6.5-18.8,5.9-26.6-2.4
	c-7.7-8.1-14.8-16.9-21.2-26c-4.6-6.4-4.2-14.3-0.3-21c4.4-7.6,9.6-14.8,16.6-20.5c4.3-3.5,8.8-6.2,14.3-3.5
	c5.1,2.5,5.4,7.6,5.1,12.7C130.4,103.8,130.5,105.1,130.5,108.1L130.5,108.1z M94.5,125c-0.6,3.2,0.3,6.9,2.6,10
	c6,7.8,11.8,15.7,18.4,23c8.1,8.8,18.5,10.5,25.3,4.9c8.2-6.9,9.5-17.3,0.7-26.7c-9.4-10-14.7-20.3-13.5-34.3
	c0.5-6.1-3.1-11.2-10.7-9C107.7,95.6,94.5,114.2,94.5,125L94.5,125z"/>
<path class="st67" d="M81.7,300.5c-2.8,16-14.7,38.2-32.2,37.2c-6.8-0.4-10.5-5.1-8.6-11.6c1.4-4.7,4.2-8.6,8-11.4
	c7.2-5.4,14.2-10.8,18.4-19.1c1.6-3.2,4.5-5.7,8.4-4.6C80.3,292.3,82.5,295.7,81.7,300.5z M77.2,303.2c0-1.7-0.5-3.2-2.1-4.1
	c-1.5-0.8-3.2-0.3-3.7,0.8c-5.3,9.4-15.8,12.6-23.2,19.5c-3.3,3.1-6.6,7.3-3.9,12.2c2.7,4.7,7.4,4.1,12,2.7
	C65.4,331.5,77.2,314,77.2,303.2z"/>
<path class="st68" d="M94.5,125c0-10.7,13.2-29.4,22.7-32.2c7.6-2.2,11.2,2.9,10.7,9c-1.2,14,4.1,24.3,13.5,34.3
	c8.8,9.4,7.6,19.8-0.7,26.7c-6.7,5.6-17.2,4-25.3-4.9c-6.6-7.2-12.4-15.2-18.4-23C94.7,131.9,93.9,128.2,94.5,125L94.5,125z
	 M131.8,162.2c5.4,0.2,8.9-2.6,11-7.4c2.7-6.3,1-12.3-3.6-16.4c-9.5-8.4-17.6-17.2-19.3-30.4c-0.3-2.3-2.2-3.7-4.6-3.6
	c-9.9,0.7-19.9,17.3-14.7,25.6c5.9,9.6,13,18.5,19.9,27.4C123,160.9,127.2,162.4,131.8,162.2L131.8,162.2z"/>
<path class="st69" d="M77.2,303.2c0,10.7-11.8,28.3-20.9,31.1c-4.6,1.4-9.3,2-12-2.7c-2.8-4.9,0.5-9.1,3.9-12.2
	c7.4-6.9,17.8-10.1,23.2-19.5c0.6-1,2.2-1.6,3.7-0.8C76.8,300.1,77.2,301.5,77.2,303.2z"/>
<path class="st70" d="M131.8,162.2c-4.5,0.1-8.7-1.3-11.4-4.7c-7-8.9-14-17.8-19.9-27.4c-5.1-8.3,4.9-25,14.7-25.6
	c2.4-0.2,4.3,1.2,4.6,3.6c1.8,13.2,9.9,22,19.3,30.4c4.7,4.1,6.4,10.1,3.6,16.4C140.7,159.6,137.2,162.4,131.8,162.2L131.8,162.2z
	 M130.1,160.7c5.8,0,9.5-2,11.4-6.5c2.3-5.6,0.7-10.9-3.5-14.7c-8.2-7.6-17.2-14.3-20.7-25.8c-0.7-2.4-3.3-3.9-6.5-2.6
	c-6.8,2.6-11.4,11.2-8.1,17.6c3.6,7,8.6,13.3,12.8,20.1C119.2,154.7,123.4,159.9,130.1,160.7z"/>
<path class="st71" d="M130.1,160.7c-6.7-0.7-10.9-6-14.6-12c-4.2-6.7-9.2-13-12.8-20.1c-3.3-6.4,1.3-15,8.1-17.6
	c3.2-1.2,5.8,0.3,6.5,2.6c3.5,11.5,12.5,18.2,20.7,25.8c4.1,3.8,5.8,9.1,3.5,14.7C139.6,158.6,135.9,160.7,130.1,160.7z
	 M112.1,116.4c-5.9,0-9.1,7.7-6,13.3c4.2,7.5,8.6,14.8,13.3,22c3,4.6,7.2,7.8,13,7.3c3.7-0.4,6.7-2.3,7.9-6.4c1.8-6-1-10.3-5.1-13.8
	c-7.5-6.2-16.2-11.2-20.3-20.8C114.6,117.1,112.7,116.7,112.1,116.4L112.1,116.4z"/>
<path class="st72" d="M112.1,116.4c0.6,0.3,2.5,0.7,2.9,1.6c4,9.7,12.7,14.6,20.3,20.8c4.2,3.5,6.9,7.8,5.1,13.8
	c-1.2,4-4.2,6-7.9,6.4c-5.8,0.5-10.1-2.7-13-7.3c-4.7-7.2-9.1-14.6-13.3-22C103,124.1,106.2,116.4,112.1,116.4z M137.3,149.1
	c-1-7.2-6.2-9.7-12.5-10.8c-3-0.5-5,1.7-4.6,4.1c1,6.1,3.3,11.9,10.4,12.9C134.5,155.8,136.7,152.9,137.3,149.1L137.3,149.1z"/>
<path class="st73" d="M137.3,149.1c-0.6,3.8-2.8,6.7-6.6,6.2c-7.1-1-9.5-6.8-10.4-12.9c-0.4-2.4,1.6-4.7,4.6-4.1
	C131.1,139.3,136.2,141.9,137.3,149.1z"/>
<g>
	<path class="st74" d="M840.5,173.8c0,31.9-3,56.4-12.7,79.6c-15.9,38.2-44.7,59.3-85.6,64.2c-19.5,2.3-39,1.5-57.9-4.3
		c-31.1-9.6-51-30.7-61.7-61.1c-5.7-16.4-8.4-33.4-9.3-50.7c-1.5-26.1,0-52,8.1-77.1c10.1-31.7,29.5-55.3,61.1-67.7
		c19.7-7.7,40.4-9,61.3-7.3c18.2,1.5,35.3,6.6,50.6,16.9c19.8,13.5,31.6,32.7,38.4,55.2C838.6,140.8,840.6,160.6,840.5,173.8
		L840.5,173.8z M639.2,187.6c0.6,16.9,2,33.7,6.8,50c6.2,21.2,17.4,38.7,37.6,49.2c14.4,7.5,29.9,9.3,45.9,8.9
		c34.9-0.8,59.5-17.2,73.6-49.1c7.1-16,9.7-33,10.7-50.3c1.4-22.6,0-45-6.4-66.8c-6.9-23.2-19.8-41.8-42.7-51.6
		c-17.8-7.6-36.5-8.4-55.3-5.2c-29.6,4.9-49,22.9-60,50.2C640.8,143.6,639.1,165.5,639.2,187.6L639.2,187.6z"/>
	<path class="st74" d="M1648.6,166.1c-4.8,17.6-9.6,35.1-14.5,52.7c-8.2,30-16.5,60-24.7,90c-1.4,5.1-3,6.7-8.3,7.1
		c-5.8,0.4-11.7,0.2-17.6,0c-4.6-0.1-7.3-2.5-8.8-7.2c-18.6-59.2-37.3-118.4-56-177.6c-2-6.3-0.8-8.4,5.7-9c4-0.3,8,0,12,0.1
		c4.3,0,6.4,2.3,7.6,6.3c6.2,20.8,12.5,41.6,18.8,62.4c9.4,31,18.7,61.9,28.1,92.9c0.4,1.3,0.9,2.6,1.6,4.6c0.7-2.2,1.3-3.7,1.7-5.2
		c14.1-51.2,28.1-102.4,42.2-153.6c1.7-6.2,2.6-7,8.9-7.7c0.6-0.1,1.2-0.1,1.9-0.2c12.2-0.8,13.7,0.3,17.1,11.9
		c14.8,50.1,29.6,100.1,44.5,150.2c0.3,1.2,0.8,2.3,1.5,4.2c0.6-1.8,1-2.9,1.4-4c15.5-51.3,30.9-102.6,46.4-153.9
		c2.1-6.9,2.7-7.5,9.7-8.2c3.1-0.3,6.3-0.3,9.4,0c5.8,0.5,7.1,2.2,5.7,7.8c-1.6,6-3.5,12-5.4,17.9c-16.9,53.3-33.9,106.7-50.9,160
		c-2.2,7-3.3,8-10.5,8.4c-5,0.3-10,0.2-15-0.2c-6.3-0.4-7.9-1.9-9.7-7.9c-13.6-46.1-27.1-92.3-40.7-138.4c-0.3-1.2-0.8-2.3-1.2-3.5
		C1649.1,166.1,1648.8,166.1,1648.6,166.1L1648.6,166.1z"/>
	<path class="st74" d="M483.5,287.8c4.8-14,9.3-27.1,13.8-40.3c21.6-63.1,43.2-126.2,64.8-189.3c2-5.9,3.2-6.8,9.4-7.1
		c3.9-0.2,7.8-0.2,11.6,0.1c5.9,0.4,7.3,2.5,5.3,8.1c-4.5,12.8-9.2,25.6-13.8,38.4c-25.2,70-50.5,140.1-75.5,210.2
		c-1.9,5.4-5.3,8-10.7,8.1c-4.6,0.1-9.2,0.2-13.8-0.1c-4.5-0.3-7.4-2.5-9-7.1c-29.6-82.7-59.4-165.3-89.1-247.9
		c-0.4-1.2-0.9-2.4-1.1-3.6c-0.6-2.9,0.3-5.4,3.4-5.6c6.2-0.3,12.5-0.5,18.6,0.3c1.9,0.2,4,3.5,4.9,5.9
		c8.9,24.7,17.6,49.4,26.3,74.2c17.8,50.4,35.6,100.8,53.4,151.2C482.2,284.5,482.7,285.7,483.5,287.8L483.5,287.8z"/>
	<path class="st74" d="M944.4,318.7c-19.6-0.3-39.1-4.9-57.3-14.6c-11-5.9-13.6-11-12.3-23.4c0.7-7.3,4.2-9,10.7-5.5
		c9.7,5.1,19.2,10.9,29.4,14.8c19.5,7.5,39.5,8.7,59.4,1.3c29.1-10.8,33.8-38.6,28.7-57.6c-2.6-9.4-8.5-16.8-16.2-22.4
		c-7.1-5.2-14.8-9.8-22.6-13.9c-13.7-7.2-27.8-13.8-41.5-20.9c-8.9-4.6-16.7-10.9-23.8-18.1c-27.4-27.9-25.2-91.4,31.7-106.3
		c26.1-6.8,51.1-3.4,74.9,8.9c10.2,5.2,13.5,14.3,9.7,25.2c-1.3,3.9-3.2,4.8-6.8,3.1c-2.5-1.2-4.8-2.7-7.1-4.1
		c-16.4-10.1-34-15.4-53.5-13.9c-19.1,1.5-34.1,12-38.7,28.6c-4.2,15-1.6,28.7,8.9,40.6c7.1,8,15.9,13.7,25.3,18.5
		c15.6,7.9,31.4,15.4,47,23.4c10.2,5.2,19,12.4,26.5,21.1c23.4,27.1,18.8,82.6-23.2,104.3C978.4,315.5,962.3,318.6,944.4,318.7
		L944.4,318.7z"/>
	<path class="st74" d="M1352.6,222.4c0.3,17.4,1.8,33.7,10.3,48.5c8.9,15.3,22.8,23.1,39.9,25.5c22.9,3.2,44.8-0.9,65.8-10.3
		c2.2-1,4.4-1.9,6.6-2.6c3.3-1,5.6,0.1,6.3,3.3c2.1,10.2,1,16.2-8.5,20c-28.8,11.5-58.3,15.9-88.7,7.7c-23.5-6.3-40.2-21.2-48.8-44
		c-12.5-33.1-12.9-66.9-0.2-100.1c14-36.6,46.1-52.8,82.5-50.8c16,0.9,30.7,5.3,43.4,15.5c15.7,12.6,23.5,29.6,26.4,48.9
		c1.2,8.1,1.5,16.4,1.7,24.6c0.2,9.8-3.8,13.6-13.6,13.6c-39.1,0-78.3,0-117.4,0C1356.7,222.4,1354.9,222.4,1352.6,222.4
		L1352.6,222.4z M1353,202.4h111.7c-0.3-4.8-0.4-9.4-0.9-13.9c-2.4-21.1-13.6-44.3-45.8-47.7C1376.9,136.3,1353.8,167.8,1353,202.4
		L1353,202.4z"/>
	<path class="st74" d="M1835.8,222.4c0.3,17.8,1.8,34.7,11.1,49.8c8.9,14.6,22.6,21.9,39.1,24.2c22.9,3.3,44.8-0.8,65.8-10.2
		c2.2-1,4.3-1.9,6.6-2.6c3.3-1,5.6,0.1,6.3,3.3c2.1,9.8,1.2,16.2-8.4,20c-28.3,11.4-57.4,15.7-87.3,8.2
		c-24.3-6.1-41.6-21.2-50.4-44.7c-12.3-33-12.7-66.7-0.1-99.7c14-36.7,46.1-52.9,82.5-50.9c16,0.9,30.7,5.3,43.4,15.4
		c15.8,12.7,23.6,29.8,26.5,49.3c1.2,8.2,1.5,16.7,1.6,25c0.2,9-4,12.9-13.2,12.9c-29.3,0-58.5,0-87.8,0c-10.3,0-20.5,0-30.8,0
		C1839.4,222.4,1837.9,222.4,1835.8,222.4L1835.8,222.4z M1948.2,202.5c-0.7-6.8-0.9-13.2-2.1-19.4c-2.8-15.3-9.6-28.5-23.8-35.9
		c-17.7-9.2-36.2-9.8-54.1-1c-19.7,9.7-28.3,27.3-31.5,48.1c-0.4,2.6-0.5,5.3-0.8,8.1C1873.4,202.5,1910.3,202.5,1948.2,202.5
		L1948.2,202.5z"/>
	<path class="st74" d="M1131.1,288.5c1-2.7,1.8-4.6,2.5-6.6c17.8-50.7,35.7-101.3,53.4-152c1.8-5.1,4.6-7.8,9.9-7.8c4,0,8,0,12,0.3
		c3.4,0.2,4.8,2.4,4.3,5.7c-0.3,2-0.9,3.9-1.6,5.8c-21.6,58.2-43.4,116.3-64.9,174.5c-1.9,5.1-4.9,7.6-10.1,7.7
		c-4.6,0.1-9.2,0.1-13.8-0.2c-4.3-0.3-7.1-2.6-8.8-7c-21.8-58.9-43.8-117.8-65.7-176.6c-0.5-1.4-1.1-2.8-1.3-4.3
		c-0.6-2.9,0.7-5.3,3.6-5.4c5.8-0.3,11.7-0.2,17.5,0.2c3.5,0.2,4.7,3.3,5.7,6.2c6.7,18.7,13.4,37.4,20.1,56.1
		c11.8,33,23.7,66.1,35.5,99.1C1129.8,285.3,1130.3,286.6,1131.1,288.5L1131.1,288.5z"/>
	<path class="st74" d="M2048.3,154.9c0.8-1.2,1.6-2.4,2.5-3.4c6.7-7.4,12.7-15.6,20.2-22c15.5-13.1,33.1-11.8,51-5.4
		c2.7,1,4.2,3.2,4.2,6.1c0.1,4,0.2,8-0.1,12c-0.4,5.2-2.5,6.5-7.5,5c-3.9-1.2-7.8-2.5-11.8-3.6c-11.2-3.1-21.2-0.6-30,6.9
		c-9.7,8.2-16.4,18.7-23.6,28.9c-3.4,4.8-4.8,9.7-4.7,15.6c0.2,37.6,0.1,75.2,0.1,112.9c0,6.4-1,7.7-7.4,8.2c-3.9,0.3-8,0-11.9-0.4
		c-3.3-0.3-5.1-2.4-4.9-5.9c0.1-0.9,0-1.7,0-2.6c0-58.7,0-117.5,0-176.2c0-7.1,1.1-8.3,8.3-9h0.4c12.7-1.1,14.4,0.5,14.4,13v19.7
		C2047.7,154.7,2048,154.8,2048.3,154.9L2048.3,154.9z"/>
	<path class="st74" d="M1275.8,219.5V308c0,6.2-1,7.6-7.2,8.1c-4.2,0.3-8.5,0-12.7-0.5c-3-0.3-4.5-2.4-4.4-5.5c0.1-2.7,0-5.5,0-8.2
		c0-57,0-114,0-171c0-7,0.8-8.1,7.7-8.7c3.2-0.3,6.5-0.2,9.7,0.1c5.7,0.6,6.8,1.9,6.8,7.6C1275.8,159.7,1275.8,189.6,1275.8,219.5z"
		/>
	<path class="st74" d="M1279.4,65.3c0,12.9-4,16.8-16.9,16.5c-10.5-0.2-14.3-3.8-14.7-14.2c-0.1-2.7,0-5.5,0.5-8.2
		c1.1-7,4.1-9.8,11.1-10.5c1.1-0.1,2.2-0.1,3.4-0.2C1275.8,48.5,1279.5,52.1,1279.4,65.3z"/>
</g>
<g>
	<path class="st0" d="M51.1,532.6c-0.2,0.5-0.5,1-0.8,1.3c-0.4,0.3-0.8,0.6-1.5,0.8c-0.6,0.2-1.4,0.3-2.4,0.4s-2.2,0.1-3.6,0.1
		c-1.1,0-2.1,0-2.9,0s-1.5-0.1-2.1-0.2c-0.6-0.1-1.1-0.2-1.5-0.3s-0.8-0.3-1.1-0.5c-0.3-0.2-0.5-0.4-0.7-0.7s-0.3-0.6-0.5-1
		L2.3,444.4c-0.4-1.1-0.6-1.9-0.6-2.6s0.2-1.2,0.6-1.5c0.5-0.3,1.2-0.6,2.2-0.7s2.3-0.1,4.1-0.1c1.4,0,2.5,0,3.3,0.1
		s1.5,0.2,1.9,0.4c0.5,0.2,0.8,0.5,1,0.8s0.4,0.7,0.6,1.2l27.8,79.8h0.1l27.1-79.7c0.1-0.5,0.3-1,0.5-1.3s0.5-0.6,1-0.8
		c0.5-0.2,1.2-0.3,2.1-0.4s2.1-0.1,3.6-0.1s2.8,0.1,3.7,0.2c0.9,0.1,1.5,0.4,1.8,0.7c0.3,0.3,0.5,0.8,0.4,1.5s-0.3,1.5-0.7,2.6
		L51.1,532.6z"/>
	<path class="st0" d="M117,444.7c0,2.8-0.6,4.8-1.6,5.8c-1.1,1-3.1,1.5-6.1,1.5c-2.9,0-4.9-0.5-6-1.5s-1.6-2.9-1.6-5.7
		c0-2.8,0.5-4.8,1.7-5.8c1.1-1,3.1-1.5,6.1-1.5c2.9,0,4.9,0.5,6,1.5C116.4,440,117,441.9,117,444.7z M115.5,532.9
		c0,0.4-0.1,0.7-0.3,1s-0.5,0.5-1,0.7s-1.1,0.3-1.9,0.4c-0.8,0.1-1.8,0.1-3.1,0.1c-1.2,0-2.2,0-3-0.1s-1.4-0.2-1.9-0.4
		s-0.8-0.4-1-0.7s-0.3-0.6-0.3-1v-66c0-0.3,0.1-0.7,0.3-1s0.5-0.5,1-0.7s1.1-0.3,1.9-0.4c0.8-0.1,1.8-0.1,3-0.1s2.3,0,3.1,0.1
		s1.4,0.2,1.9,0.4s0.8,0.4,1,0.7c0.2,0.3,0.3,0.6,0.3,1V532.9z"/>
	<path class="st0" d="M186.3,515c0,3.4-0.6,6.4-1.9,9c-1.3,2.6-3.1,4.9-5.4,6.7c-2.4,1.8-5.2,3.2-8.4,4.1c-3.3,0.9-6.8,1.4-10.7,1.4
		c-2.4,0-4.7-0.2-6.9-0.5c-2.2-0.4-4.1-0.8-5.9-1.4s-3.2-1.1-4.4-1.8c-1.2-0.6-2.1-1.2-2.6-1.6c-0.6-0.5-1-1.2-1.2-2.1
		c-0.3-0.9-0.4-2.1-0.4-3.6c0-0.9,0-1.7,0.1-2.3s0.2-1.1,0.4-1.5c0.1-0.4,0.4-0.7,0.6-0.8c0.3-0.2,0.6-0.3,0.9-0.3
		c0.5,0,1.4,0.3,2.4,1c1.1,0.7,2.4,1.4,4,2.2s3.4,1.5,5.6,2.2c2.1,0.7,4.6,1,7.4,1c2.1,0,4-0.2,5.7-0.7c1.7-0.4,3.2-1.1,4.4-1.9
		c1.2-0.9,2.2-1.9,2.9-3.3c0.7-1.3,1-2.9,1-4.7c0-1.9-0.5-3.4-1.5-4.7s-2.3-2.4-3.9-3.4c-1.6-1-3.4-1.8-5.4-2.6s-4.1-1.6-6.2-2.4
		c-2.1-0.8-4.2-1.8-6.2-2.8c-2-1.1-3.8-2.3-5.4-3.8c-1.6-1.5-2.9-3.3-3.9-5.4c-1-2.1-1.5-4.6-1.5-7.6c0-2.6,0.5-5.1,1.5-7.4
		c1-2.4,2.6-4.4,4.6-6.2c2-1.8,4.6-3.2,7.7-4.3c3.1-1.1,6.7-1.6,10.8-1.6c1.8,0,3.6,0.1,5.4,0.4c1.8,0.3,3.4,0.7,4.9,1.1
		c1.4,0.4,2.7,0.9,3.7,1.4s1.8,1,2.3,1.4s0.9,0.7,1.1,1c0.2,0.3,0.3,0.6,0.4,1c0.1,0.4,0.1,0.8,0.2,1.4c0.1,0.5,0.1,1.2,0.1,2
		s0,1.6-0.1,2.2c-0.1,0.6-0.2,1.1-0.4,1.5s-0.4,0.7-0.6,0.8c-0.3,0.2-0.5,0.3-0.8,0.3c-0.5,0-1.1-0.3-2-0.8s-2-1.1-3.3-1.7
		c-1.4-0.6-2.9-1.2-4.8-1.7c-1.8-0.5-3.9-0.8-6.3-0.8c-2.1,0-4,0.2-5.6,0.7s-2.9,1.1-3.9,2s-1.8,1.9-2.3,3c-0.5,1.2-0.8,2.4-0.8,3.8
		c0,1.9,0.5,3.5,1.5,4.8s2.3,2.4,3.9,3.4c1.6,1,3.4,1.9,5.5,2.6c2,0.8,4.1,1.6,6.3,2.4c2.1,0.8,4.2,1.8,6.3,2.8s3.9,2.3,5.5,3.7
		c1.6,1.5,2.9,3.2,3.9,5.3C185.8,509.7,186.3,512.1,186.3,515z"/>
	<path class="st0" d="M267.4,532.9c0,0.4-0.1,0.7-0.3,1c-0.2,0.3-0.5,0.5-0.9,0.7s-1,0.3-1.8,0.4c-0.7,0.1-1.6,0.1-2.7,0.1
		c-1.2,0-2.1,0-2.8-0.1c-0.7-0.1-1.3-0.2-1.7-0.4c-0.4-0.2-0.7-0.4-0.9-0.7s-0.2-0.6-0.2-1v-8.7c-3.9,4.2-7.7,7.2-11.4,9.1
		c-3.8,1.9-7.6,2.9-11.4,2.9c-4.5,0-8.3-0.7-11.4-2.2s-5.6-3.5-7.5-6s-3.3-5.4-4.1-8.8c-0.8-3.3-1.2-7.4-1.2-12.2v-40
		c0-0.4,0.1-0.7,0.3-1s0.5-0.5,1-0.7s1.1-0.4,2-0.4c0.8-0.1,1.8-0.1,3-0.1s2.2,0,3,0.1s1.4,0.2,1.9,0.4c0.5,0.2,0.8,0.5,1,0.7
		c0.2,0.3,0.3,0.6,0.3,1v38.4c0,3.9,0.3,7,0.9,9.3s1.4,4.3,2.6,5.9c1.2,1.6,2.7,2.9,4.5,3.8s3.9,1.4,6.3,1.4c3.1,0,6.2-1.1,9.3-3.2
		s6.3-5.3,9.8-9.5V467c0-0.4,0.1-0.7,0.3-1c0.2-0.3,0.5-0.5,1-0.7s1.1-0.4,1.9-0.4c0.8-0.1,1.8-0.1,3-0.1s2.2,0,3,0.1
		s1.4,0.2,1.9,0.4s0.8,0.5,1,0.7c0.2,0.3,0.3,0.6,0.3,1L267.4,532.9L267.4,532.9z"/>
	<path class="st0" d="M346.6,533c0,0.6-0.2,1-0.6,1.3s-1,0.5-1.6,0.7c-0.7,0.1-1.7,0.2-3.1,0.2c-1.3,0-2.3-0.1-3.1-0.2
		c-0.8-0.1-1.3-0.4-1.7-0.7c-0.4-0.3-0.5-0.7-0.5-1.3v-6.6c-3,3.1-6.2,5.5-9.9,7.2c-3.6,1.7-7.5,2.6-11.5,2.6
		c-3.6,0-6.8-0.5-9.6-1.4c-2.9-0.9-5.3-2.2-7.4-3.9c-2-1.7-3.6-3.8-4.7-6.3s-1.7-5.3-1.7-8.5c0-3.7,0.8-6.9,2.3-9.7
		c1.5-2.7,3.8-5,6.7-6.8c2.9-1.8,6.5-3.2,10.7-4.1c4.2-0.9,8.9-1.4,14.2-1.4h9.3V489c0-2.5-0.3-4.8-0.8-6.7c-0.6-2-1.4-3.6-2.7-4.9
		c-1.2-1.3-2.8-2.3-4.8-2.9c-2-0.7-4.4-1-7.2-1c-3.1,0-5.8,0.4-8.2,1.1c-2.4,0.7-4.6,1.5-6.4,2.3c-1.8,0.9-3.4,1.6-4.6,2.3
		s-2.1,1.1-2.7,1.1c-0.4,0-0.8-0.1-1-0.3c-0.3-0.2-0.6-0.5-0.8-0.9c-0.2-0.4-0.4-0.9-0.5-1.5s-0.1-1.3-0.1-2c0-1.2,0.1-2.2,0.3-2.9
		c0.2-0.7,0.6-1.4,1.3-2c0.7-0.6,1.8-1.4,3.5-2.2c1.7-0.9,3.5-1.6,5.7-2.3c2.1-0.7,4.5-1.3,7.1-1.8s5.1-0.7,7.7-0.7
		c4.8,0,9,0.5,12.4,1.6s6.2,2.7,8.3,4.7s3.6,4.7,4.6,7.7c0.9,3.1,1.4,6.7,1.4,10.8V533H346.6z M334.3,502.9h-10.6
		c-3.4,0-6.4,0.3-8.9,0.8c-2.5,0.6-4.6,1.4-6.2,2.5c-1.7,1.1-2.9,2.4-3.6,4c-0.8,1.5-1.2,3.3-1.2,5.3c0,3.4,1.1,6.1,3.3,8.2
		c2.2,2,5.3,3,9.3,3c3.2,0,6.3-0.8,9-2.4c2.8-1.6,5.7-4.1,8.7-7.4v-14H334.3z"/>
	<path class="st0" d="M387.3,532.9c0,0.4-0.1,0.7-0.3,1c-0.2,0.3-0.5,0.5-1,0.7s-1.1,0.3-1.9,0.4c-0.8,0.1-1.8,0.1-3.1,0.1
		c-1.2,0-2.2,0-3-0.1s-1.4-0.2-1.9-0.4s-0.8-0.4-1-0.7s-0.3-0.6-0.3-1V435c0-0.4,0.1-0.7,0.3-1c0.2-0.3,0.5-0.5,1-0.7
		s1.1-0.3,1.9-0.4s1.8-0.1,3-0.1s2.3,0,3.1,0.1c0.8,0.1,1.4,0.2,1.9,0.4s0.8,0.4,1,0.7c0.2,0.3,0.3,0.6,0.3,1V532.9z"/>
	<path class="st0" d="M429.5,444.7c0,2.8-0.6,4.8-1.6,5.8c-1.1,1-3.1,1.5-6.1,1.5c-2.9,0-4.9-0.5-6-1.5s-1.6-2.9-1.6-5.7
		c0-2.8,0.5-4.8,1.7-5.8c1.1-1,3.1-1.5,6.1-1.5c2.9,0,4.9,0.5,6,1.5C428.9,440,429.5,441.9,429.5,444.7z M428,532.9
		c0,0.4-0.1,0.7-0.3,1c-0.2,0.3-0.5,0.5-1,0.7s-1.1,0.3-1.9,0.4c-0.8,0.1-1.8,0.1-3.1,0.1c-1.2,0-2.2,0-3-0.1s-1.4-0.2-1.9-0.4
		s-0.8-0.4-1-0.7s-0.3-0.6-0.3-1v-66c0-0.3,0.1-0.7,0.3-1c0.2-0.3,0.5-0.5,1-0.7s1.1-0.3,1.9-0.4s1.8-0.1,3-0.1s2.3,0,3.1,0.1
		c0.8,0.1,1.4,0.2,1.9,0.4s0.8,0.4,1,0.7c0.2,0.3,0.3,0.6,0.3,1V532.9z"/>
	<path class="st0" d="M499.5,529.6c0,0.9-0.1,1.7-0.2,2.4s-0.3,1.2-0.5,1.6c-0.2,0.4-0.5,0.7-0.8,0.9c-0.4,0.2-0.7,0.3-1.1,0.3
		h-41.6c-1.1,0-1.9-0.3-2.6-1s-1-1.8-1-3.4v-2.6c0-0.7,0-1.3,0.2-1.8c0.1-0.5,0.2-1.1,0.4-1.6c0.2-0.5,0.5-1.1,0.8-1.7
		c0.3-0.6,0.8-1.3,1.3-2.1l29.8-45.3h-28.9c-0.8,0-1.4-0.4-1.9-1.2s-0.7-2.1-0.7-3.9c0-0.9,0-1.6,0.2-2.3c0.1-0.7,0.3-1.2,0.5-1.6
		s0.5-0.7,0.8-0.9c0.3-0.2,0.7-0.3,1.2-0.3h38.7c0.5,0,1,0.1,1.5,0.2c0.4,0.1,0.8,0.4,1.1,0.7c0.3,0.3,0.5,0.8,0.7,1.3
		s0.3,1.2,0.3,2.1v2.3c0,0.7-0.1,1.3-0.1,1.9c-0.1,0.6-0.3,1.2-0.5,1.7c-0.2,0.6-0.5,1.2-0.8,1.8c-0.4,0.6-0.8,1.3-1.3,2.1
		l-29.6,45.3h31.7c0.4,0,0.8,0.1,1.1,0.3s0.6,0.5,0.8,0.8c0.2,0.4,0.4,0.9,0.6,1.6C499.4,527.9,499.5,528.7,499.5,529.6z"/>
	<path class="st0" d="M536.5,444.7c0,2.8-0.6,4.8-1.6,5.8c-1.1,1-3.1,1.5-6.1,1.5c-2.9,0-4.9-0.5-6-1.5s-1.6-2.9-1.6-5.7
		c0-2.8,0.5-4.8,1.7-5.8c1.1-1,3.1-1.5,6.1-1.5c2.9,0,4.9,0.5,6,1.5C535.9,440,536.5,441.9,536.5,444.7z M535,532.9
		c0,0.4-0.1,0.7-0.3,1s-0.5,0.5-1,0.7s-1.1,0.3-1.9,0.4c-0.8,0.1-1.8,0.1-3.1,0.1c-1.2,0-2.2,0-3-0.1s-1.4-0.2-1.9-0.4
		s-0.8-0.4-1-0.7s-0.3-0.6-0.3-1v-66c0-0.3,0.1-0.7,0.3-1s0.5-0.5,1-0.7s1.1-0.3,1.9-0.4c0.8-0.1,1.8-0.1,3-0.1s2.3,0,3.1,0.1
		s1.4,0.2,1.9,0.4s0.8,0.4,1,0.7c0.2,0.3,0.3,0.6,0.3,1V532.9z"/>
	<path class="st0" d="M621.6,532.9c0,0.4-0.1,0.7-0.3,1s-0.5,0.5-1,0.7s-1.1,0.3-1.9,0.4c-0.8,0.1-1.8,0.1-3,0.1
		c-1.3,0-2.3,0-3.1-0.1s-1.4-0.2-1.9-0.4s-0.8-0.4-1-0.7s-0.3-0.6-0.3-1v-38.6c0-3.8-0.3-6.8-0.9-9.1c-0.6-2.3-1.5-4.3-2.6-5.9
		c-1.2-1.7-2.6-2.9-4.5-3.8c-1.8-0.9-3.9-1.3-6.3-1.3c-3.1,0-6.2,1.1-9.3,3.2c-3.1,2.2-6.4,5.3-9.8,9.5V533c0,0.4-0.1,0.7-0.3,1
		s-0.5,0.5-1,0.7s-1.1,0.3-1.9,0.4c-0.8,0.1-1.8,0.1-3.1,0.1c-1.2,0-2.2,0-3-0.1s-1.4-0.2-1.9-0.4s-0.8-0.4-1-0.7s-0.3-0.6-0.3-1
		v-66c0-0.4,0.1-0.7,0.2-1c0.2-0.3,0.5-0.5,0.9-0.7s1-0.4,1.7-0.4c0.7-0.1,1.6-0.1,2.8-0.1c1.1,0,2,0,2.7,0.1s1.3,0.2,1.7,0.4
		c0.4,0.2,0.7,0.5,0.9,0.7c0.2,0.3,0.3,0.6,0.3,1v8.7c3.8-4.2,7.6-7.2,11.4-9.1c3.8-1.9,7.6-2.9,11.4-2.9c4.5,0,8.3,0.7,11.4,2.2
		c3.1,1.5,5.6,3.5,7.5,6s3.3,5.4,4.1,8.8s1.2,7.4,1.2,12.1v40.1H621.6z"/>
	<path class="st0" d="M706.1,469.9c0,1.7-0.2,2.9-0.7,3.7c-0.5,0.8-1.1,1.1-1.8,1.1h-9.7c1.7,1.8,3,3.7,3.7,5.8s1,4.3,1,6.6
		c0,3.8-0.6,7.2-1.9,10.1c-1.3,2.9-3,5.4-5.4,7.4c-2.3,2-5.1,3.6-8.3,4.7c-3.2,1.1-6.8,1.6-10.7,1.6c-2.8,0-5.4-0.4-7.8-1.1
		c-2.5-0.7-4.4-1.6-5.7-2.7c-0.9,0.9-1.6,1.9-2.2,3c-0.6,1.1-0.9,2.4-0.9,3.9c0,1.7,0.8,3.1,2.4,4.3c1.6,1.1,3.8,1.7,6.5,1.8
		l17.6,0.7c3.3,0.1,6.4,0.5,9.2,1.4c2.8,0.8,5.2,2,7.3,3.4c2,1.5,3.6,3.3,4.8,5.5c1.1,2.2,1.7,4.7,1.7,7.6c0,3-0.7,5.9-2,8.7
		c-1.3,2.7-3.3,5.1-6,7.2c-2.7,2.1-6.1,3.7-10.2,4.9c-4.2,1.2-9.1,1.8-14.7,1.8c-5.5,0-10.1-0.5-13.9-1.4c-3.8-0.9-7-2.1-9.4-3.7
		c-2.5-1.6-4.2-3.4-5.3-5.6c-1.1-2.2-1.7-4.5-1.7-7.1c0-1.6,0.2-3.2,0.6-4.7c0.4-1.5,1-3,1.8-4.3s1.8-2.7,3.1-3.9
		c1.2-1.2,2.6-2.5,4.2-3.7c-2.5-1.2-4.3-2.8-5.4-4.6c-1.2-1.9-1.8-3.9-1.8-6c0-3,0.6-5.6,1.9-8c1.2-2.3,2.8-4.4,4.7-6.3
		c-1.6-1.8-2.8-3.8-3.7-6.1s-1.4-5-1.4-8.2c0-3.8,0.6-7.1,2-10.1c1.3-3,3.1-5.5,5.4-7.6c2.3-2.1,5.1-3.6,8.3-4.7s6.7-1.6,10.5-1.6
		c2,0,4,0.1,5.7,0.3c1.8,0.2,3.4,0.5,5,0.9h20.4c0.8,0,1.5,0.4,1.9,1.2C705.9,467.1,706.1,468.3,706.1,469.9z M693,539.6
		c0-2.8-1.2-5-3.6-6.6c-2.4-1.5-5.6-2.4-9.6-2.5l-17.5-0.6c-1.6,1.2-2.9,2.4-3.9,3.5s-1.8,2.2-2.4,3.2c-0.6,1-1,2-1.2,3
		s-0.3,2-0.3,3c0,3.2,1.7,5.6,5,7.2c3.3,1.6,7.9,2.5,13.8,2.5c3.8,0,6.9-0.4,9.4-1.1c2.5-0.7,4.6-1.6,6.1-2.8s2.7-2.5,3.3-4
		C692.6,542.8,693,541.3,693,539.6z M686.7,487.3c0-4.5-1.3-8-3.8-10.5s-6.1-3.8-10.8-3.8c-2.4,0-4.5,0.4-6.3,1.2
		c-1.8,0.8-3.3,1.9-4.4,3.2c-1.2,1.4-2.1,2.9-2.6,4.7c-0.6,1.8-0.9,3.7-0.9,5.6c0,4.4,1.3,7.8,3.8,10.3s6.1,3.7,10.6,3.7
		c2.4,0,4.6-0.4,6.4-1.1c1.8-0.8,3.3-1.8,4.5-3.2c1.2-1.3,2-2.9,2.6-4.7C686.4,491.1,686.7,489.2,686.7,487.3z"/>
	<path class="st0" d="M810.2,515c0,3.4-0.6,6.4-1.9,9c-1.3,2.6-3.1,4.9-5.4,6.7c-2.4,1.8-5.2,3.2-8.4,4.1c-3.3,0.9-6.8,1.4-10.7,1.4
		c-2.4,0-4.7-0.2-6.9-0.5c-2.2-0.4-4.1-0.8-5.9-1.4s-3.2-1.1-4.4-1.8c-1.2-0.6-2.1-1.2-2.6-1.6c-0.6-0.5-1-1.2-1.2-2.1
		c-0.3-0.9-0.4-2.1-0.4-3.6c0-0.9,0-1.7,0.1-2.3s0.2-1.1,0.4-1.5c0.1-0.4,0.4-0.7,0.6-0.8c0.3-0.2,0.6-0.3,0.9-0.3
		c0.5,0,1.4,0.3,2.4,1c1.1,0.7,2.4,1.4,4,2.2s3.4,1.5,5.6,2.2c2.1,0.7,4.6,1,7.4,1c2.1,0,4-0.2,5.7-0.7c1.7-0.4,3.2-1.1,4.4-1.9
		c1.2-0.9,2.2-1.9,2.9-3.3c0.7-1.3,1-2.9,1-4.7c0-1.9-0.5-3.4-1.5-4.7s-2.3-2.4-3.9-3.4c-1.6-1-3.4-1.8-5.4-2.6s-4.1-1.6-6.2-2.4
		c-2.1-0.8-4.2-1.8-6.2-2.8c-2-1.1-3.8-2.3-5.4-3.8c-1.6-1.5-2.9-3.3-3.9-5.4c-1-2.1-1.5-4.6-1.5-7.6c0-2.6,0.5-5.1,1.5-7.4
		c1-2.4,2.6-4.4,4.6-6.2c2-1.8,4.6-3.2,7.7-4.3c3.1-1.1,6.7-1.6,10.8-1.6c1.8,0,3.6,0.1,5.4,0.4c1.8,0.3,3.4,0.7,4.9,1.1
		c1.4,0.4,2.7,0.9,3.7,1.4s1.8,1,2.3,1.4s0.9,0.7,1.1,1c0.2,0.3,0.3,0.6,0.4,1c0.1,0.4,0.1,0.8,0.2,1.4c0.1,0.5,0.1,1.2,0.1,2
		s0,1.6-0.1,2.2c-0.1,0.6-0.2,1.1-0.4,1.5s-0.4,0.7-0.6,0.8c-0.3,0.2-0.5,0.3-0.8,0.3c-0.5,0-1.1-0.3-2-0.8s-2-1.1-3.3-1.7
		c-1.4-0.6-2.9-1.2-4.8-1.7c-1.8-0.5-3.9-0.8-6.3-0.8c-2.1,0-4,0.2-5.6,0.7s-2.9,1.1-3.9,2s-1.8,1.9-2.3,3c-0.5,1.2-0.8,2.4-0.8,3.8
		c0,1.9,0.5,3.5,1.5,4.8s2.3,2.4,3.9,3.4c1.6,1,3.4,1.9,5.5,2.6c2,0.8,4.1,1.6,6.3,2.4c2.1,0.8,4.2,1.8,6.3,2.8s3.9,2.3,5.5,3.7
		c1.6,1.5,2.9,3.2,3.9,5.3C809.7,509.7,810.2,512.1,810.2,515z"/>
	<path class="st0" d="M881.9,522.9c0,0.8,0,1.6-0.1,2.2c-0.1,0.6-0.1,1.1-0.3,1.5c-0.1,0.4-0.3,0.8-0.5,1.1s-0.6,0.8-1.2,1.4
		c-0.6,0.6-1.7,1.4-3.2,2.3c-1.5,0.9-3.2,1.7-5.1,2.4c-1.9,0.7-3.9,1.3-6.1,1.7c-2.2,0.4-4.5,0.7-6.8,0.7c-4.9,0-9.2-0.8-12.9-2.3
		s-6.9-3.8-9.4-6.9c-2.5-3-4.5-6.7-5.8-11.1c-1.3-4.4-2-9.4-2-15.1c0-6.5,0.8-12.1,2.4-16.8c1.6-4.7,3.9-8.5,6.7-11.5
		s6.2-5.2,10-6.6s8-2.2,12.4-2.2c2.1,0,4.2,0.2,6.3,0.6c2,0.4,3.9,0.9,5.6,1.5c1.7,0.6,3.2,1.4,4.5,2.2c1.3,0.8,2.3,1.5,2.9,2.1
		c0.6,0.6,1,1.1,1.2,1.4s0.4,0.7,0.6,1.2c0.1,0.5,0.2,1,0.3,1.6c0,0.6,0.1,1.3,0.1,2.2c0,1.9-0.2,3.2-0.7,4c-0.4,0.8-1,1.1-1.6,1.1
		c-0.8,0-1.6-0.4-2.6-1.2s-2.2-1.7-3.7-2.7s-3.3-1.9-5.4-2.7c-2.1-0.8-4.6-1.2-7.5-1.2c-6,0-10.5,2.2-13.7,6.7s-4.8,11-4.8,19.5
		c0,4.3,0.4,8,1.2,11.2s2,5.9,3.6,8c1.6,2.2,3.6,3.8,5.9,4.8c2.3,1.1,5,1.6,8,1.6c2.9,0,5.4-0.4,7.5-1.3c2.1-0.9,4-1.8,5.6-2.9
		c1.6-1.1,2.9-2,4-2.9s1.9-1.3,2.5-1.3c0.3,0,0.6,0.1,0.9,0.3c0.2,0.2,0.5,0.5,0.6,1c0.2,0.5,0.3,1.1,0.4,1.8
		C881.9,521.1,881.9,521.9,881.9,522.9z"/>
	<path class="st0" d="M917.7,444.7c0,2.8-0.6,4.8-1.6,5.8c-1.1,1-3.1,1.5-6.1,1.5c-2.9,0-4.9-0.5-6-1.5s-1.6-2.9-1.6-5.7
		c0-2.8,0.5-4.8,1.7-5.8c1.1-1,3.1-1.5,6.1-1.5c2.9,0,4.9,0.5,6,1.5C917.1,440,917.7,441.9,917.7,444.7z M916.2,532.9
		c0,0.4-0.1,0.7-0.3,1s-0.5,0.5-1,0.7s-1.1,0.3-1.9,0.4c-0.8,0.1-1.8,0.1-3.1,0.1c-1.2,0-2.2,0-3-0.1s-1.4-0.2-1.9-0.4
		s-0.8-0.4-1-0.7s-0.3-0.6-0.3-1v-66c0-0.3,0.1-0.7,0.3-1s0.5-0.5,1-0.7s1.1-0.3,1.9-0.4c0.8-0.1,1.8-0.1,3-0.1s2.3,0,3.1,0.1
		s1.4,0.2,1.9,0.4s0.8,0.4,1,0.7c0.2,0.3,0.3,0.6,0.3,1V532.9z"/>
	<path class="st0" d="M1002.3,497.1c0,1.9-0.5,3.3-1.5,4.1s-2.1,1.2-3.4,1.2h-44.5c0,3.7,0.4,7,1.1,9.9c0.8,2.9,2,5.5,3.8,7.6
		s4,3.7,6.9,4.8c2.8,1.1,6.3,1.7,10.3,1.7c3.2,0,6.1-0.3,8.6-0.8s4.7-1.1,6.5-1.7c1.8-0.6,3.3-1.2,4.5-1.7s2.1-0.8,2.7-0.8
		c0.4,0,0.7,0.1,0.9,0.3c0.3,0.2,0.5,0.4,0.6,0.8c0.2,0.3,0.3,0.8,0.3,1.4c0.1,0.6,0.1,1.4,0.1,2.2c0,0.6,0,1.2-0.1,1.6
		c-0.1,0.5-0.1,0.9-0.2,1.2c-0.1,0.4-0.2,0.7-0.4,1c-0.2,0.3-0.4,0.6-0.7,0.8c-0.3,0.3-1.1,0.7-2.4,1.3c-1.4,0.6-3.1,1.2-5.2,1.8
		c-2.2,0.6-4.6,1.1-7.5,1.6c-2.8,0.5-5.8,0.7-9,0.7c-5.6,0-10.4-0.8-14.6-2.3c-4.2-1.5-7.7-3.8-10.5-6.7c-2.9-3-5-6.7-6.5-11.2
		s-2.2-9.7-2.2-15.7c0-5.7,0.8-10.8,2.2-15.3s3.7-8.4,6.5-11.5c2.8-3.2,6.2-5.6,10.2-7.3c4-1.7,8.5-2.5,13.4-2.5
		c5.3,0,9.8,0.8,13.5,2.5c3.7,1.7,6.8,3.9,9.2,6.7c2.4,2.8,4.2,6.1,5.3,9.9c1.1,3.8,1.7,7.8,1.7,12.1v2.3H1002.3z M989.8,493.5
		c0.1-6.4-1.3-11.3-4.3-15c-3-3.6-7.6-5.4-13.5-5.4c-3.1,0-5.8,0.6-8.1,1.7s-4.3,2.6-5.8,4.5c-1.6,1.9-2.8,4-3.6,6.5
		c-0.9,2.5-1.3,5-1.4,7.7H989.8z"/>
	<path class="st0" d="M1084.7,532.9c0,0.4-0.1,0.7-0.3,1c-0.2,0.3-0.5,0.5-1,0.7s-1.1,0.3-1.9,0.4c-0.8,0.1-1.8,0.1-3,0.1
		c-1.3,0-2.3,0-3.1-0.1c-0.8-0.1-1.4-0.2-1.9-0.4c-0.4-0.2-0.8-0.4-1-0.7s-0.3-0.6-0.3-1v-38.6c0-3.8-0.3-6.8-0.9-9.1
		s-1.5-4.3-2.6-5.9c-1.2-1.7-2.6-2.9-4.5-3.8c-1.8-0.9-3.9-1.3-6.3-1.3c-3.1,0-6.2,1.1-9.3,3.2c-3.1,2.2-6.4,5.3-9.8,9.5V533
		c0,0.4-0.1,0.7-0.3,1c-0.2,0.3-0.5,0.5-1,0.7s-1.1,0.3-1.9,0.4c-0.8,0.1-1.8,0.1-3.1,0.1c-1.2,0-2.2,0-3-0.1s-1.4-0.2-1.9-0.4
		s-0.8-0.4-1-0.7s-0.3-0.6-0.3-1v-66c0-0.4,0.1-0.7,0.2-1c0.2-0.3,0.5-0.5,0.9-0.7s1-0.4,1.7-0.4c0.7-0.1,1.6-0.1,2.8-0.1
		c1.1,0,2,0,2.7,0.1s1.3,0.2,1.7,0.4c0.4,0.2,0.7,0.5,0.9,0.7c0.2,0.3,0.3,0.6,0.3,1v8.7c3.8-4.2,7.6-7.2,11.4-9.1s7.6-2.9,11.4-2.9
		c4.5,0,8.3,0.7,11.4,2.2s5.6,3.5,7.5,6s3.3,5.4,4.1,8.8c0.8,3.3,1.2,7.4,1.2,12.1v40.1H1084.7z"/>
	<path class="st0" d="M1170.2,465c1.5,0,2.5,0.3,3.1,1c0.5,0.7,0.8,1.6,0.8,2.9v64c0,0.4-0.1,0.7-0.3,1c-0.2,0.3-0.5,0.5-1,0.7
		s-1.1,0.3-1.9,0.4c-0.8,0.1-1.8,0.1-2.9,0.1c-1.2,0-2.3,0-3.1-0.1c-0.8-0.1-1.4-0.2-1.9-0.4s-0.8-0.4-1-0.7s-0.3-0.6-0.3-1v-57.8
		h-34.9v36.8c0,4.5,0.7,8,2.1,10.3s3.8,3.5,7.4,3.5c1.1,0,2.2-0.1,3.1-0.3s1.7-0.5,2.4-0.7c0.7-0.2,1.3-0.5,1.8-0.7s0.9-0.3,1.4-0.3
		c0.2,0,0.5,0.1,0.7,0.2c0.2,0.1,0.4,0.4,0.5,0.7s0.2,0.8,0.3,1.4c0.1,0.6,0.1,1.3,0.1,2.2c0,1.4-0.1,2.5-0.3,3.3
		c-0.2,0.8-0.5,1.4-0.9,1.8c-0.4,0.4-1,0.8-1.8,1.1s-1.7,0.6-2.7,0.8s-2.1,0.4-3.3,0.5c-1.2,0.1-2.3,0.2-3.5,0.2
		c-3.5,0-6.5-0.5-9-1.4s-4.6-2.3-6.2-4.1s-2.8-4.2-3.5-7s-1.1-6.1-1.1-9.9v-38.6h-9.5c-0.8,0-1.3-0.4-1.8-1.2
		c-0.5-0.8-0.7-2.1-0.7-3.8c0-0.9,0.1-1.7,0.2-2.3c0.1-0.6,0.3-1.2,0.5-1.6s0.5-0.7,0.8-0.9c0.3-0.2,0.7-0.3,1.1-0.3h9.4v-15.7
		c0-0.3,0.1-0.7,0.3-1c0.2-0.3,0.5-0.5,1-0.8c0.5-0.2,1.1-0.4,1.9-0.5s1.8-0.1,3-0.1s2.3,0,3.1,0.1c0.8,0.1,1.4,0.3,1.9,0.5
		s0.8,0.5,1,0.8s0.3,0.6,0.3,1v15.7h43.4V465z M1175.5,444.7c0,2.8-0.6,4.8-1.6,5.8c-1.1,1-3.1,1.5-6.1,1.5c-2.9,0-4.9-0.5-6-1.5
		s-1.6-2.9-1.6-5.7c0-2.8,0.5-4.8,1.7-5.8c1.1-1,3.1-1.5,6.1-1.5c2.9,0,4.9,0.5,6,1.5C1174.9,440,1175.5,441.9,1175.5,444.7z"/>
	<path class="st0" d="M1261,532.9c0,0.4-0.1,0.7-0.3,1c-0.2,0.3-0.5,0.5-1,0.7s-1.1,0.3-1.9,0.4c-0.8,0.1-1.8,0.1-3,0.1
		s-2.2,0-3-0.1s-1.4-0.2-1.9-0.4s-0.8-0.4-1-0.7s-0.3-0.6-0.3-1v-57.8h-30.3v57.8c0,0.4-0.1,0.7-0.3,1c-0.2,0.3-0.5,0.5-1,0.7
		s-1.1,0.3-1.9,0.4c-0.8,0.1-1.8,0.1-3,0.1s-2.2,0-3-0.1s-1.4-0.2-1.9-0.4s-0.8-0.4-1-0.7s-0.3-0.6-0.3-1v-57.8h-9.5
		c-0.8,0-1.4-0.4-1.8-1.2c-0.4-0.8-0.6-2.1-0.6-3.8c0-0.9,0-1.7,0.1-2.3c0.1-0.6,0.2-1.2,0.5-1.6c0.2-0.4,0.5-0.7,0.8-0.9
		c0.3-0.2,0.6-0.3,1.1-0.3h9.5v-7.1c0-4.5,0.5-8.4,1.3-11.7c0.9-3.2,2.2-5.9,4-8s4-3.7,6.6-4.7s5.6-1.5,9-1.5c1.1,0,2.2,0,3.3,0.1
		c1.1,0.1,2.1,0.2,3,0.4c0.9,0.2,1.7,0.4,2.4,0.6c0.7,0.2,1.1,0.5,1.4,0.7c0.2,0.2,0.4,0.5,0.6,0.8s0.3,0.6,0.4,1s0.2,0.9,0.2,1.5
		s0.1,1.3,0.1,2.1c0,1.6-0.1,2.7-0.4,3.4c-0.3,0.7-0.7,1-1.3,1c-0.4,0-0.8-0.1-1.2-0.3c-0.4-0.2-1-0.4-1.6-0.5
		c-0.7-0.2-1.4-0.4-2.4-0.5c-0.9-0.2-2.1-0.3-3.5-0.3c-3.5,0-5.9,1.2-7.4,3.7s-2.2,6.5-2.2,12v7.3h38.9c1.3,0,2.3,0.3,2.9,1
		s0.9,1.6,0.9,2.7L1261,532.9L1261,532.9z M1262.3,444.7c0,1.4-0.1,2.5-0.3,3.4c-0.2,0.9-0.6,1.7-1.2,2.2c-0.6,0.6-1.3,1-2.3,1.2
		s-2.2,0.4-3.7,0.4s-2.7-0.1-3.6-0.4c-1-0.2-1.8-0.6-2.3-1.2c-0.6-0.6-1-1.3-1.2-2.2c-0.3-0.9-0.4-2.1-0.4-3.4
		c0-1.4,0.1-2.5,0.4-3.4c0.2-0.9,0.7-1.7,1.2-2.3c0.6-0.6,1.3-1,2.3-1.2s2.2-0.3,3.6-0.3c1.5,0,2.7,0.1,3.7,0.3
		c1,0.2,1.7,0.6,2.3,1.2c0.5,0.6,0.9,1.4,1.2,2.3C1262.2,442.2,1262.3,443.4,1262.3,444.7z"/>
	<path class="st0" d="M1337.9,522.9c0,0.8,0,1.6-0.1,2.2c-0.1,0.6-0.1,1.1-0.3,1.5c-0.1,0.4-0.3,0.8-0.5,1.1s-0.6,0.8-1.2,1.4
		c-0.6,0.6-1.7,1.4-3.2,2.3c-1.5,0.9-3.2,1.7-5.1,2.4s-3.9,1.3-6.1,1.7s-4.5,0.7-6.8,0.7c-4.9,0-9.2-0.8-12.9-2.3s-6.9-3.8-9.4-6.9
		c-2.5-3-4.5-6.7-5.8-11.1c-1.3-4.4-2-9.4-2-15.1c0-6.5,0.8-12.1,2.4-16.8s3.8-8.5,6.7-11.5c2.8-3,6.2-5.2,10-6.6s8-2.2,12.4-2.2
		c2.1,0,4.2,0.2,6.3,0.6c2,0.4,3.9,0.9,5.6,1.5s3.2,1.4,4.5,2.2c1.3,0.8,2.3,1.5,2.9,2.1s1,1.1,1.2,1.4s0.4,0.7,0.6,1.2
		s0.2,1,0.3,1.6c0,0.6,0.1,1.3,0.1,2.2c0,1.9-0.2,3.2-0.7,4s-1,1.1-1.7,1.1c-0.8,0-1.6-0.4-2.6-1.2s-2.2-1.7-3.7-2.7
		s-3.3-1.9-5.4-2.7s-4.6-1.2-7.5-1.2c-6,0-10.5,2.2-13.7,6.7s-4.8,11-4.8,19.5c0,4.3,0.4,8,1.2,11.2c0.8,3.2,2,5.9,3.6,8
		c1.6,2.2,3.6,3.8,5.9,4.8c2.3,1.1,5,1.6,8,1.6c2.8,0,5.3-0.4,7.5-1.3c2.1-0.9,4-1.8,5.6-2.9c1.6-1.1,2.9-2,4-2.9s1.9-1.3,2.5-1.3
		c0.3,0,0.6,0.1,0.9,0.3c0.2,0.2,0.5,0.5,0.6,1c0.2,0.5,0.3,1.1,0.4,1.8C1337.9,521.1,1337.9,521.9,1337.9,522.9z"/>
	<path class="st0" d="M1412.5,532.9c0,0.4-0.1,0.7-0.3,1c-0.2,0.3-0.5,0.5-1,0.7s-1.1,0.3-1.9,0.4c-0.8,0.1-1.8,0.1-3.1,0.1
		c-1.2,0-2.2,0-3-0.1s-1.4-0.2-1.9-0.4s-0.8-0.4-1-0.7s-0.3-0.6-0.3-1V435c0-0.4,0.1-0.7,0.3-1c0.2-0.3,0.5-0.5,1-0.7
		s1.1-0.3,1.9-0.4s1.8-0.1,3-0.1s2.3,0,3.1,0.1c0.8,0.1,1.4,0.2,1.9,0.4c0.4,0.2,0.8,0.4,1,0.7c0.2,0.3,0.3,0.6,0.3,1V532.9z"/>
	<path class="st0" d="M1491.8,533c0,0.6-0.2,1-0.6,1.3s-1,0.5-1.7,0.7s-1.7,0.2-3.1,0.2c-1.3,0-2.3-0.1-3.1-0.2
		c-0.8-0.1-1.3-0.4-1.7-0.7c-0.4-0.3-0.5-0.7-0.5-1.3v-6.6c-3,3.1-6.2,5.5-9.9,7.2c-3.6,1.7-7.5,2.6-11.5,2.6
		c-3.6,0-6.8-0.5-9.6-1.4c-2.9-0.9-5.3-2.2-7.4-3.9c-2-1.7-3.6-3.8-4.7-6.3s-1.7-5.3-1.7-8.5c0-3.7,0.8-6.9,2.3-9.7
		c1.5-2.7,3.8-5,6.7-6.8c2.9-1.8,6.5-3.2,10.7-4.1s8.9-1.4,14.2-1.4h9.3V489c0-2.5-0.3-4.8-0.8-6.7c-0.6-2-1.4-3.6-2.7-4.9
		c-1.2-1.3-2.8-2.3-4.8-2.9c-2-0.7-4.4-1-7.2-1c-3,0-5.8,0.4-8.2,1.1c-2.4,0.7-4.6,1.5-6.4,2.3c-1.8,0.9-3.4,1.6-4.6,2.3
		s-2.1,1.1-2.7,1.1c-0.4,0-0.8-0.1-1-0.3s-0.6-0.5-0.8-0.9c-0.2-0.4-0.4-0.9-0.5-1.5s-0.1-1.3-0.1-2c0-1.2,0.1-2.2,0.3-2.9
		c0.2-0.7,0.6-1.4,1.3-2c0.7-0.6,1.8-1.4,3.5-2.2c1.6-0.9,3.5-1.6,5.7-2.3c2.1-0.7,4.5-1.3,7.1-1.8c2.5-0.5,5.1-0.7,7.7-0.7
		c4.8,0,9,0.5,12.4,1.6s6.2,2.7,8.3,4.7c2.1,2.1,3.6,4.7,4.6,7.7c0.9,3.1,1.4,6.7,1.4,10.8V533H1491.8z M1479.5,502.9h-10.6
		c-3.4,0-6.4,0.3-8.9,0.8c-2.5,0.6-4.6,1.4-6.2,2.5s-2.9,2.4-3.6,4c-0.8,1.5-1.2,3.3-1.2,5.3c0,3.4,1.1,6.1,3.3,8.2
		c2.2,2,5.3,3,9.3,3c3.2,0,6.3-0.8,9-2.4c2.8-1.6,5.7-4.1,8.7-7.4v-14H1479.5z"/>
	<path class="st0" d="M1578.1,532.9c0,0.4-0.1,0.7-0.3,1c-0.2,0.3-0.5,0.5-1,0.7s-1.1,0.3-1.9,0.4c-0.8,0.1-1.8,0.1-3,0.1
		c-1.3,0-2.3,0-3.1-0.1c-0.8-0.1-1.4-0.2-1.9-0.4c-0.4-0.2-0.8-0.4-1-0.7s-0.3-0.6-0.3-1v-38.6c0-3.8-0.3-6.8-0.9-9.1
		s-1.5-4.3-2.6-5.9c-1.2-1.7-2.6-2.9-4.5-3.8c-1.8-0.9-3.9-1.3-6.3-1.3c-3.1,0-6.2,1.1-9.3,3.2c-3.1,2.2-6.4,5.3-9.8,9.5V533
		c0,0.4-0.1,0.7-0.3,1c-0.2,0.3-0.5,0.5-1,0.7s-1.1,0.3-1.9,0.4c-0.8,0.1-1.8,0.1-3.1,0.1c-1.2,0-2.2,0-3-0.1s-1.4-0.2-1.9-0.4
		s-0.8-0.4-1-0.7s-0.3-0.6-0.3-1v-66c0-0.4,0.1-0.7,0.2-1s0.5-0.5,0.9-0.7c0.5-0.2,1-0.4,1.7-0.4c0.7-0.1,1.6-0.1,2.8-0.1
		c1.1,0,2,0,2.7,0.1s1.3,0.2,1.7,0.4c0.4,0.2,0.7,0.5,0.9,0.7c0.2,0.3,0.3,0.6,0.3,1v8.7c3.8-4.2,7.6-7.2,11.4-9.1s7.6-2.9,11.4-2.9
		c4.5,0,8.3,0.7,11.4,2.2s5.6,3.5,7.5,6s3.3,5.4,4.1,8.8c0.8,3.3,1.2,7.4,1.2,12.1v40.1H1578.1z"/>
	<path class="st0" d="M1664.1,532.9c0,0.4-0.1,0.7-0.3,1c-0.2,0.3-0.5,0.5-0.9,0.7s-1,0.3-1.7,0.4c-0.7,0.1-1.6,0.1-2.6,0.1
		s-1.9,0-2.6-0.1s-1.3-0.2-1.7-0.4c-0.5-0.2-0.8-0.4-1-0.7s-0.3-0.6-0.3-1v-8.7c-3.6,3.8-7.2,6.7-11.1,8.8c-3.8,2.1-8,3.2-12.6,3.2
		c-5,0-9.2-0.9-12.7-2.8c-3.5-1.9-6.3-4.4-8.5-7.6c-2.2-3.2-3.8-7-4.8-11.3s-1.5-8.9-1.5-13.7c0-5.7,0.6-10.8,1.9-15.4
		c1.2-4.6,3.1-8.5,5.6-11.7c2.4-3.2,5.5-5.7,9.1-7.4c3.6-1.7,7.8-2.6,12.6-2.6c3.9,0,7.6,0.8,10.8,2.5c3.3,1.7,6.5,4.2,9.7,7.4
		v-38.3c0-0.3,0.1-0.7,0.3-1c0.2-0.3,0.5-0.6,1-0.7c0.5-0.2,1.1-0.3,1.9-0.4s1.8-0.2,3-0.2s2.3,0.1,3.1,0.2c0.8,0.1,1.4,0.3,1.9,0.4
		c0.5,0.2,0.8,0.4,1,0.7c0.2,0.3,0.3,0.6,0.3,1L1664.1,532.9L1664.1,532.9z M1651.6,486.5c-3.4-4.1-6.6-7.1-9.7-9.3
		s-6.4-3.2-9.8-3.2c-3.2,0-5.8,0.7-8,2.2s-4,3.4-5.4,5.8s-2.4,5.1-3,8.1s-0.9,6.1-0.9,9.2c0,3.3,0.3,6.6,0.8,9.8s1.4,6,2.7,8.5
		c1.3,2.5,3,4.4,5.2,5.9c2.1,1.5,4.8,2.2,8.1,2.2c1.6,0,3.2-0.2,4.8-0.7c1.5-0.4,3.1-1.2,4.7-2.2s3.3-2.4,5-4c1.8-1.6,3.6-3.7,5.6-6
		L1651.6,486.5L1651.6,486.5z"/>
	<path class="st0" d="M1734.9,515c0,3.4-0.6,6.4-1.9,9s-3.1,4.9-5.4,6.7c-2.4,1.8-5.2,3.2-8.4,4.1c-3.3,0.9-6.8,1.4-10.7,1.4
		c-2.4,0-4.7-0.2-6.9-0.5c-2.2-0.4-4.1-0.8-5.8-1.4c-1.7-0.6-3.2-1.1-4.4-1.8c-1.2-0.6-2.1-1.2-2.6-1.6c-0.6-0.5-1-1.2-1.2-2.1
		c-0.3-0.9-0.4-2.1-0.4-3.6c0-0.9,0-1.7,0.2-2.3c0.1-0.6,0.2-1.1,0.4-1.5c0.2-0.4,0.4-0.7,0.6-0.8c0.3-0.2,0.6-0.3,0.9-0.3
		c0.5,0,1.4,0.3,2.4,1c1.1,0.7,2.4,1.4,4,2.2s3.4,1.5,5.6,2.2c2.1,0.7,4.6,1,7.4,1c2.1,0,4-0.2,5.7-0.7c1.7-0.4,3.2-1.1,4.4-1.9
		c1.2-0.9,2.2-1.9,2.9-3.3c0.7-1.3,1-2.9,1-4.7c0-1.9-0.5-3.4-1.5-4.7s-2.3-2.4-3.9-3.4s-3.4-1.8-5.4-2.6s-4.1-1.6-6.2-2.4
		c-2.1-0.8-4.2-1.8-6.2-2.8c-2-1.1-3.8-2.3-5.4-3.8s-2.9-3.3-3.9-5.4c-1-2.1-1.5-4.6-1.5-7.6c0-2.6,0.5-5.1,1.5-7.4
		c1-2.4,2.6-4.4,4.6-6.2c2-1.8,4.6-3.2,7.7-4.3c3.1-1.1,6.7-1.6,10.8-1.6c1.8,0,3.6,0.1,5.4,0.4s3.4,0.7,4.9,1.1
		c1.4,0.4,2.7,0.9,3.7,1.4s1.8,1,2.3,1.4s0.9,0.7,1,1c0.2,0.3,0.3,0.6,0.4,1s0.1,0.8,0.2,1.4c0.1,0.5,0.1,1.2,0.1,2s0,1.6-0.1,2.2
		c-0.1,0.6-0.2,1.1-0.4,1.5c-0.2,0.4-0.4,0.7-0.6,0.8c-0.2,0.2-0.5,0.3-0.8,0.3c-0.5,0-1.1-0.3-2-0.8s-2-1.1-3.3-1.7
		c-1.3-0.6-2.9-1.2-4.8-1.7c-1.8-0.5-3.9-0.8-6.3-0.8c-2.1,0-4,0.2-5.6,0.7s-2.9,1.1-3.9,2s-1.8,1.9-2.3,3c-0.5,1.2-0.8,2.4-0.8,3.8
		c0,1.9,0.5,3.5,1.5,4.8s2.3,2.4,3.9,3.4s3.4,1.9,5.5,2.6c2,0.8,4.1,1.6,6.3,2.4c2.1,0.8,4.2,1.8,6.3,2.8c2.1,1,3.9,2.3,5.5,3.7
		c1.6,1.5,2.9,3.2,3.9,5.3C1734.4,509.7,1734.9,512.1,1734.9,515z"/>
	<path class="st0" d="M1806.6,522.9c0,0.8,0,1.6-0.1,2.2c-0.1,0.6-0.1,1.1-0.3,1.5c-0.1,0.4-0.3,0.8-0.5,1.1s-0.6,0.8-1.2,1.4
		c-0.6,0.6-1.7,1.4-3.2,2.3c-1.5,0.9-3.2,1.7-5.1,2.4s-3.9,1.3-6.1,1.7s-4.5,0.7-6.8,0.7c-4.9,0-9.2-0.8-12.9-2.3s-6.9-3.8-9.4-6.9
		c-2.5-3-4.5-6.7-5.8-11.1c-1.3-4.4-2-9.4-2-15.1c0-6.5,0.8-12.1,2.4-16.8s3.8-8.5,6.7-11.5c2.8-3,6.2-5.2,10-6.6s8-2.2,12.4-2.2
		c2.1,0,4.2,0.2,6.3,0.6c2,0.4,3.9,0.9,5.6,1.5s3.2,1.4,4.5,2.2c1.3,0.8,2.3,1.5,2.9,2.1s1,1.1,1.2,1.4s0.4,0.7,0.6,1.2
		s0.2,1,0.3,1.6c0,0.6,0.1,1.3,0.1,2.2c0,1.9-0.2,3.2-0.7,4s-1,1.1-1.7,1.1c-0.8,0-1.6-0.4-2.6-1.2s-2.2-1.7-3.7-2.7
		s-3.3-1.9-5.4-2.7s-4.6-1.2-7.5-1.2c-6,0-10.5,2.2-13.7,6.7s-4.8,11-4.8,19.5c0,4.3,0.4,8,1.2,11.2c0.8,3.2,2,5.9,3.6,8
		c1.6,2.2,3.6,3.8,5.9,4.8c2.3,1.1,5,1.6,8,1.6c2.8,0,5.3-0.4,7.5-1.3c2.1-0.9,4-1.8,5.6-2.9c1.6-1.1,2.9-2,4-2.9s1.9-1.3,2.5-1.3
		c0.3,0,0.6,0.1,0.9,0.3c0.2,0.2,0.5,0.5,0.6,1c0.2,0.5,0.3,1.1,0.4,1.8C1806.6,521.1,1806.6,521.9,1806.6,522.9z"/>
	<path class="st0" d="M1878.2,533c0,0.6-0.2,1-0.6,1.3s-1,0.5-1.7,0.7s-1.7,0.2-3.1,0.2c-1.3,0-2.3-0.1-3.1-0.2
		c-0.8-0.1-1.3-0.4-1.7-0.7c-0.4-0.3-0.5-0.7-0.5-1.3v-6.6c-3,3.1-6.2,5.5-9.9,7.2c-3.6,1.7-7.5,2.6-11.5,2.6
		c-3.6,0-6.8-0.5-9.6-1.4c-2.9-0.9-5.3-2.2-7.4-3.9c-2-1.7-3.6-3.8-4.7-6.3s-1.7-5.3-1.7-8.5c0-3.7,0.8-6.9,2.3-9.7
		c1.5-2.7,3.8-5,6.7-6.8c2.9-1.8,6.5-3.2,10.7-4.1s8.9-1.4,14.2-1.4h9.3V489c0-2.5-0.3-4.8-0.8-6.7c-0.6-2-1.4-3.6-2.7-4.9
		c-1.2-1.3-2.8-2.3-4.8-2.9c-2-0.7-4.4-1-7.2-1c-3,0-5.8,0.4-8.2,1.1c-2.4,0.7-4.6,1.5-6.4,2.3c-1.8,0.9-3.4,1.6-4.6,2.3
		s-2.1,1.1-2.7,1.1c-0.4,0-0.8-0.1-1-0.3s-0.6-0.5-0.8-0.9c-0.2-0.4-0.4-0.9-0.5-1.5s-0.1-1.3-0.1-2c0-1.2,0.1-2.2,0.3-2.9
		c0.2-0.7,0.6-1.4,1.3-2c0.7-0.6,1.8-1.4,3.5-2.2c1.6-0.9,3.5-1.6,5.7-2.3c2.1-0.7,4.5-1.3,7.1-1.8c2.5-0.5,5.1-0.7,7.7-0.7
		c4.8,0,9,0.5,12.4,1.6s6.2,2.7,8.3,4.7c2.1,2.1,3.6,4.7,4.6,7.7c0.9,3.1,1.4,6.7,1.4,10.8V533H1878.2z M1865.9,502.9h-10.6
		c-3.4,0-6.4,0.3-8.9,0.8c-2.5,0.6-4.6,1.4-6.2,2.5s-2.9,2.4-3.6,4c-0.8,1.5-1.2,3.3-1.2,5.3c0,3.4,1.1,6.1,3.3,8.2
		c2.2,2,5.3,3,9.3,3c3.2,0,6.3-0.8,9-2.4c2.8-1.6,5.7-4.1,8.7-7.4v-14H1865.9z"/>
	<path class="st0" d="M1968.5,498.9c0,5.8-0.6,10.9-1.9,15.5s-3.2,8.5-5.6,11.7c-2.5,3.2-5.5,5.7-9.2,7.4s-7.8,2.6-12.5,2.6
		c-2,0-3.9-0.2-5.5-0.6c-1.7-0.4-3.4-1-5-1.8s-3.2-1.9-4.8-3.2c-1.6-1.3-3.3-2.8-5.1-4.5v33c0,0.4-0.1,0.7-0.3,1
		c-0.2,0.3-0.5,0.5-1,0.7s-1.1,0.3-1.9,0.4c-0.8,0.1-1.8,0.1-3.1,0.1c-1.2,0-2.2,0-3-0.1s-1.4-0.2-1.9-0.4s-0.8-0.4-1-0.7
		s-0.3-0.6-0.3-1v-92.2c0-0.4,0.1-0.8,0.2-1.1c0.1-0.3,0.5-0.5,0.9-0.7c0.5-0.2,1-0.3,1.7-0.4s1.5-0.1,2.5-0.1c1.1,0,1.9,0,2.6,0.1
		s1.2,0.2,1.7,0.4s0.8,0.4,0.9,0.7c0.2,0.3,0.3,0.6,0.3,1.1v8.9c2-2.1,4-3.8,5.9-5.4c1.9-1.5,3.8-2.8,5.7-3.8s3.9-1.8,5.9-2.3
		s4.2-0.8,6.4-0.8c4.9,0,9.1,0.9,12.5,2.8c3.5,1.9,6.3,4.4,8.4,7.6c2.2,3.2,3.8,7,4.8,11.3C1968,489.6,1968.5,494.1,1968.5,498.9z
		 M1955.7,500.3c0-3.4-0.3-6.6-0.8-9.8s-1.4-5.9-2.7-8.4c-1.3-2.4-3-4.4-5.2-5.9s-4.9-2.2-8.1-2.2c-1.6,0-3.2,0.2-4.8,0.7
		c-1.6,0.5-3.1,1.2-4.8,2.2c-1.6,1-3.3,2.3-5.1,4c-1.8,1.6-3.6,3.7-5.6,6v26.2c3.4,4.1,6.7,7.2,9.7,9.3c3.1,2.2,6.3,3.2,9.7,3.2
		c3.1,0,5.8-0.7,8-2.2s4-3.4,5.4-5.9c1.4-2.4,2.4-5.2,3.1-8.2C1955.4,506.4,1955.7,503.4,1955.7,500.3z"/>
	<path class="st0" d="M2050.3,497.1c0,1.9-0.5,3.3-1.5,4.1c-1,0.8-2.1,1.2-3.4,1.2h-44.5c0,3.7,0.4,7,1.1,9.9c0.8,2.9,2,5.5,3.8,7.6
		s4,3.7,6.9,4.8c2.8,1.1,6.3,1.7,10.3,1.7c3.2,0,6.1-0.3,8.6-0.8s4.7-1.1,6.5-1.7c1.8-0.6,3.3-1.2,4.5-1.7s2.1-0.8,2.7-0.8
		c0.4,0,0.7,0.1,0.9,0.3c0.3,0.2,0.5,0.4,0.6,0.8c0.2,0.3,0.3,0.8,0.3,1.4c0.1,0.6,0.1,1.4,0.1,2.2c0,0.6,0,1.2-0.1,1.6
		c-0.1,0.5-0.1,0.9-0.2,1.2c-0.1,0.4-0.2,0.7-0.4,1s-0.4,0.6-0.7,0.8c-0.3,0.3-1.1,0.7-2.4,1.3c-1.3,0.6-3.1,1.2-5.2,1.8
		c-2.2,0.6-4.6,1.1-7.5,1.6c-2.8,0.5-5.8,0.7-9,0.7c-5.6,0-10.4-0.8-14.6-2.3c-4.2-1.5-7.7-3.8-10.5-6.7c-2.9-3-5-6.7-6.5-11.2
		s-2.2-9.7-2.2-15.7c0-5.7,0.8-10.8,2.2-15.3s3.7-8.4,6.5-11.5c2.8-3.2,6.2-5.6,10.2-7.3c4-1.7,8.5-2.5,13.4-2.5
		c5.3,0,9.8,0.8,13.5,2.5s6.8,3.9,9.2,6.7c2.4,2.8,4.2,6.1,5.3,9.9c1.1,3.8,1.7,7.8,1.7,12.1v2.3H2050.3z M2037.8,493.5
		c0.2-6.4-1.3-11.3-4.3-15c-3-3.6-7.6-5.4-13.5-5.4c-3.1,0-5.8,0.6-8.1,1.7s-4.3,2.6-5.8,4.5c-1.6,1.9-2.8,4-3.6,6.5
		c-0.9,2.5-1.3,5-1.4,7.7H2037.8z"/>
	<path class="st0" d="M2117,515c0,3.4-0.6,6.4-1.9,9c-1.3,2.6-3.1,4.9-5.4,6.7c-2.4,1.8-5.2,3.2-8.4,4.1c-3.3,0.9-6.8,1.4-10.7,1.4
		c-2.4,0-4.7-0.2-6.9-0.5c-2.2-0.4-4.1-0.8-5.8-1.4c-1.7-0.6-3.2-1.1-4.4-1.8c-1.2-0.6-2.1-1.2-2.6-1.6c-0.6-0.5-1-1.2-1.2-2.1
		c-0.3-0.9-0.4-2.1-0.4-3.6c0-0.9,0-1.7,0.2-2.3c0.1-0.6,0.2-1.1,0.4-1.5s0.4-0.7,0.6-0.8c0.3-0.2,0.6-0.3,0.9-0.3
		c0.5,0,1.4,0.3,2.4,1c1.1,0.7,2.4,1.4,4,2.2s3.4,1.5,5.6,2.2c2.1,0.7,4.6,1,7.4,1c2.1,0,4-0.2,5.7-0.7c1.7-0.4,3.2-1.1,4.4-1.9
		c1.2-0.9,2.2-1.9,2.9-3.3c0.7-1.3,1-2.9,1-4.7c0-1.9-0.5-3.4-1.5-4.7s-2.3-2.4-3.9-3.4c-1.6-1-3.4-1.8-5.4-2.6s-4.1-1.6-6.2-2.4
		c-2.1-0.8-4.2-1.8-6.2-2.8c-2-1.1-3.8-2.3-5.4-3.8c-1.6-1.5-2.9-3.3-3.9-5.4c-1-2.1-1.5-4.6-1.5-7.6c0-2.6,0.5-5.1,1.5-7.4
		c1-2.4,2.6-4.4,4.6-6.2c2-1.8,4.6-3.2,7.7-4.3c3.1-1.1,6.7-1.6,10.8-1.6c1.8,0,3.6,0.1,5.4,0.4c1.8,0.3,3.4,0.7,4.9,1.1
		c1.4,0.4,2.7,0.9,3.7,1.4s1.8,1,2.3,1.4s0.9,0.7,1,1c0.2,0.3,0.3,0.6,0.4,1c0.1,0.4,0.1,0.8,0.2,1.4c0.1,0.5,0.1,1.2,0.1,2
		s0,1.6-0.1,2.2c-0.1,0.6-0.2,1.1-0.4,1.5s-0.4,0.7-0.6,0.8c-0.2,0.2-0.5,0.3-0.8,0.3c-0.5,0-1.1-0.3-2-0.8s-2-1.1-3.3-1.7
		c-1.3-0.6-2.9-1.2-4.8-1.7c-1.8-0.5-3.9-0.8-6.3-0.8c-2.1,0-4,0.2-5.6,0.7s-2.9,1.1-3.9,2s-1.8,1.9-2.3,3c-0.5,1.2-0.8,2.4-0.8,3.8
		c0,1.9,0.5,3.5,1.5,4.8s2.3,2.4,3.9,3.4c1.6,1,3.4,1.9,5.5,2.6c2,0.8,4.1,1.6,6.3,2.4c2.1,0.8,4.2,1.8,6.3,2.8s3.9,2.3,5.5,3.7
		c1.6,1.5,2.9,3.2,3.9,5.3C2116.5,509.7,2117,512.1,2117,515z"/>
</g>
<g>
	<path class="st74" d="M2469.5,183.1c0,20.7-2.4,39.5-7.1,56.3c-4.8,16.8-11.9,31.1-21.4,43c-9.5,11.8-21.5,21-35.9,27.4
		c-14.5,6.4-31.3,9.6-50.6,9.6s-35.8-3-49.7-9.1s-25.2-14.8-34.1-26.1c-8.9-11.3-15.5-25.1-19.7-41.5c-4.2-16.3-6.3-34.7-6.3-55.2
		c0-20.3,2.3-38.8,7-55.4s11.8-30.7,21.4-42.5c9.6-11.7,21.5-20.8,35.9-27.2c14.4-6.4,31.3-9.6,50.7-9.6c18.9,0,35.2,3,49,9
		s25.2,14.7,34.2,25.9s15.7,24.9,20.1,41C2467.3,144.7,2469.5,162.9,2469.5,183.1z M2443.4,185.3c0-15.4-1.4-29.8-4.3-43.3
		c-2.9-13.5-7.6-25.2-14.3-35.1c-6.6-10-15.4-17.8-26.4-23.5s-24.6-8.5-40.8-8.5c-16.1,0-29.6,3-40.7,8.9c-11,6-20,14-26.9,24
		s-11.8,21.8-14.9,35.1c-3,13.4-4.5,27.5-4.5,42.4c0,15.8,1.4,30.5,4.1,44.1c2.7,13.6,7.4,25.4,14,35.4s15.3,17.9,26.3,23.6
		s24.7,8.5,41.2,8.5c16.3,0,30-3,41.2-9.1c11.1-6.1,20.1-14.3,26.9-24.5c6.8-10.2,11.7-22.1,14.7-35.5
		C2441.9,214.3,2443.4,200.2,2443.4,185.3z"/>
	<path class="st74" d="M2677,312c0,0.8-0.2,1.5-0.6,2.2c-0.4,0.7-1,1.2-1.9,1.6s-2.1,0.7-3.6,1s-3.4,0.4-5.7,0.4
		c-2.4,0-4.4-0.1-5.9-0.4s-2.7-0.6-3.6-1c-0.9-0.4-1.5-0.9-1.9-1.6s-0.6-1.4-0.6-2.2V204.2c0-11.2-0.9-20.4-2.6-27.4
		c-1.7-7-4.4-13.1-7.8-18.1c-3.5-5-7.9-8.9-13.4-11.6c-5.4-2.7-11.7-4.1-19-4.1c-9.2,0-18.5,3.3-27.7,9.8
		c-9.2,6.6-18.9,16.2-29.1,28.9V312c0,0.8-0.2,1.5-0.6,2.2c-0.4,0.7-1,1.2-1.9,1.6s-2.1,0.7-3.6,1s-3.5,0.4-5.9,0.4
		c-2.3,0-4.2-0.1-5.7-0.4s-2.8-0.6-3.7-1s-1.6-0.9-1.9-1.6c-0.3-0.7-0.5-1.4-0.5-2.2V130.3c0-0.8,0.2-1.5,0.5-2.2s1-1.2,1.9-1.7
		s2.1-0.8,3.5-1s3.2-0.3,5.5-0.3s4.1,0.1,5.6,0.3s2.6,0.5,3.4,1c0.8,0.5,1.4,1,1.7,1.7s0.5,1.4,0.5,2.2V156
		c10.4-11.6,20.7-20.1,30.7-25.3s20-7.8,29.9-7.8c11.9,0,22,2,30.1,6c8.2,4,14.8,9.4,19.8,16.3s8.6,14.8,10.8,23.9
		c2.2,9.1,3.3,20.1,3.3,32.9V312z"/>
	<path class="st74" d="M2771.7,312c0,0.8-0.2,1.5-0.6,2.2c-0.4,0.7-1,1.2-1.9,1.6s-2.1,0.7-3.6,1s-3.5,0.4-5.9,0.4
		c-2.3,0-4.2-0.1-5.7-0.4s-2.8-0.6-3.7-1s-1.6-0.9-1.9-1.6c-0.3-0.7-0.5-1.4-0.5-2.2V41.3c0-0.8,0.2-1.5,0.5-2.2s1-1.2,1.9-1.7
		s2.2-0.8,3.7-1s3.4-0.3,5.7-0.3c2.4,0,4.4,0.1,5.9,0.3c1.5,0.2,2.7,0.5,3.6,1c0.9,0.5,1.5,1,1.9,1.7s0.6,1.4,0.6,2.2V312z"/>
	<path class="st74" d="M2870.6,69c0,6.4-1.1,10.8-3.4,13.1c-2.3,2.3-6.4,3.4-12.4,3.4c-5.9,0-9.9-1.1-12.1-3.3
		c-2.2-2.2-3.3-6.5-3.3-12.9s1.1-10.8,3.4-13.1c2.3-2.3,6.4-3.4,12.4-3.4c5.9,0,9.9,1.1,12.1,3.3C2869.5,58.3,2870.6,62.6,2870.6,69
		z M2866.9,312c0,0.8-0.2,1.5-0.6,2.2c-0.4,0.7-1,1.2-1.9,1.6s-2.1,0.7-3.6,1s-3.5,0.4-5.9,0.4c-2.3,0-4.2-0.1-5.7-0.4
		s-2.8-0.6-3.7-1s-1.6-0.9-1.9-1.6c-0.3-0.7-0.5-1.4-0.5-2.2V130.3c0-0.8,0.2-1.5,0.5-2.2s1-1.2,1.9-1.7s2.2-0.8,3.7-1
		s3.4-0.3,5.7-0.3c2.4,0,4.4,0.1,5.9,0.3s2.7,0.5,3.6,1c0.9,0.5,1.5,1,1.9,1.7s0.6,1.4,0.6,2.2V312z"/>
	<path class="st74" d="M3085.7,312c0,0.8-0.2,1.5-0.6,2.2c-0.4,0.7-1,1.2-1.9,1.6s-2.1,0.7-3.6,1s-3.4,0.4-5.7,0.4
		c-2.4,0-4.4-0.1-5.9-0.4s-2.7-0.6-3.6-1c-0.9-0.4-1.5-0.9-1.9-1.6s-0.6-1.4-0.6-2.2V204.2c0-11.2-0.9-20.4-2.6-27.4
		c-1.7-7-4.4-13.1-7.8-18.1c-3.5-5-7.9-8.9-13.4-11.6c-5.4-2.7-11.7-4.1-19-4.1c-9.2,0-18.5,3.3-27.7,9.8
		c-9.2,6.6-18.9,16.2-29.1,28.9V312c0,0.8-0.2,1.5-0.6,2.2c-0.4,0.7-1,1.2-1.9,1.6s-2.1,0.7-3.6,1s-3.5,0.4-5.9,0.4
		c-2.3,0-4.2-0.1-5.7-0.4s-2.8-0.6-3.7-1s-1.6-0.9-1.9-1.6c-0.3-0.7-0.5-1.4-0.5-2.2V130.3c0-0.8,0.2-1.5,0.5-2.2s1-1.2,1.9-1.7
		s2.1-0.8,3.5-1s3.2-0.3,5.5-0.3s4.1,0.1,5.6,0.3s2.6,0.5,3.4,1c0.8,0.5,1.4,1,1.7,1.7s0.5,1.4,0.5,2.2V156
		c10.4-11.6,20.7-20.1,30.7-25.3s20-7.8,29.9-7.8c11.9,0,22,2,30.1,6c8.2,4,14.8,9.4,19.8,16.3s8.6,14.8,10.8,23.9
		c2.2,9.1,3.3,20.1,3.3,32.9V312z"/>
	<path class="st74" d="M3304.6,211.8c0,4.8-1.3,8.1-3.8,9.9s-5,2.7-7.4,2.7h-123.9c0,11.2,1.1,21.4,3.3,30.5s5.9,16.9,10.9,23.4
		c5.1,6.5,11.7,11.5,19.9,15s18.2,5.2,30.1,5.2c8.4,0,16-0.7,22.7-2.2s12.5-3.1,17.4-4.9s8.9-3.4,12-4.9s5.4-2.2,6.7-2.2
		c0.8,0,1.5,0.2,2.2,0.6s1.2,1,1.6,1.9c0.4,0.9,0.7,2,0.9,3.3s0.3,3,0.3,5c0,0.9-0.1,1.8-0.2,2.7c-0.1,0.9-0.3,1.7-0.5,2.4
		c-0.2,0.7-0.5,1.4-0.9,2.1s-0.9,1.3-1.6,2c-0.7,0.7-2.7,1.8-6.2,3.5s-8,3.3-13.7,5c-5.6,1.7-12.1,3.2-19.6,4.5
		c-7.4,1.3-15.4,2-24,2c-14.1,0-26.5-2.1-37.3-6.3s-19.9-10.4-27.3-18.7c-7.4-8.2-13-18.4-16.8-30.6s-5.7-26.3-5.7-42.4
		c0-15.4,2-29.2,5.9-41.4s9.6-22.5,17-31s16.2-15,26.6-19.5c10.4-4.5,21.9-6.7,34.6-6.7c13.7,0,25.3,2.3,34.9,6.8
		c9.6,4.6,17.6,10.7,23.8,18.4s10.8,16.6,13.7,26.8s4.3,20.9,4.3,32.1v5H3304.6z M3279.9,204.8c0.4-19.3-4-34.3-13.3-45.2
		s-22.7-16.3-40.4-16.3c-9.1,0-17.1,1.7-24,5.1c-6.9,3.4-12.7,7.9-17.5,13.6c-4.8,5.6-8.4,12.1-10.9,19.6c-2.5,7.4-4,15.2-4.4,23.2
		L3279.9,204.8L3279.9,204.8z"/>
</g>
</svg>
