<svg xmlns="http://www.w3.org/2000/svg" xmlns:xlink="http://www.w3.org/1999/xlink" viewBox="0 0 3304.61 561"><path d="M83.3 49.1c6.5-8.3 4.9-19.4 9.4-28.4C102.8.6 114.3-4.1 135.5 3.4c9.4 3.3 19 5.9 28.1 9.9 9.8 4.4 13.5 13.8 11.5 23.4-2.4 11.7 2.9 21.7 3.7 32.6.9 10.5 7.4 14.1 16.5 17.7 17.1 6.7 32.5 32.5 22 50.5-4.6 8-13.1 11.5-21.2 12.7-11.6 1.8-14 10-16.7 18.7-.8 2.6-1.4 5.2-2.2 7.8 3.2.7 4.4-2.6 6.8-3.6 7.2-3.1 14-7.3 21.3-10.1 17.2-6.6 31.8 3.4 32.3 21.9.1 4.5-.3 9-.6 13.4-.3 3.8 2.9 4.2 5 4.2 22.6-.1 39.9 11.6 57.2 24.3 10 7.3 20.1 14.1 27.5 24.3 15.8 21.7 6.3 50.1-19.7 59.8-18.2 6.8-33.5 1.8-45.6-11.8-8.8-9.9-17.2-10.8-28.7-6-21 8.8-38.9 5.4-52.9-10.9-9.5-11.1-14.8-24.9-16.5-39.8-2.1-18 4.2-34.9 7-52.3.1-.9 0-1.8 0-2.8-.7.4-1.6.7-2.2 1.2-13.9 12.2-30.4 15.8-48.4 14.6-4.1-.3-8.2.2-12.3.7-2.9.3-4.2 2-2.9 5l13.5 32c4 8.9 2.6 17.9 1.7 27.1-.8 8-.3 16.2-.6 24.3-.8 24-8.7 45.3-26.6 61.3-17.6 15.7-38.9 24-63.1 23.1-10-.4-23-9.9-25.4-18.1 2.1-2.1 2.7 0 3.5 1.3 1.5 2.5 3.1 4.9 5.7 6.8 10.6 7.8 22 8 34.5 5.8 40.3-7 68.4-39.8 68.6-80.7 0-8.9-.3-17.8 1-26.8 1.2-8 1.6-16.5-2.3-24.6-4.9-10.1-8.9-20.6-13.1-30.9-1.9-4.6.2-7.7 4.6-8.1 10.2-.9 20.5-1.3 30.8-1.6 13.8-.3 31.8-12.4 36.8-25 4.8-12.1 6.7-26.6 24-28 1.2-.1 2.4-.7 3.5-1.1 7.3-2.9 14.4-6.6 15.7-15.1 2.5-16.4-7.4-35.1-23.3-40.8-11.3-4-17.5-10.3-18.5-21.8-.9-10.2-6-19.6-3.4-30.7 2.6-11.2-4.3-20.8-14.4-23.9L127 4.1C119.4 2 111.9 2 105.5 7.7 99 13.5 94.7 20.6 92.9 29.2c-1.3 6.2-2.1 12.6-5.4 18.1-.6 1.3-1.5 4.4-4.2 1.8h0zm87.6 183.5c0 13 1.6 20.6 7 31.7 4.6 9.4 10.4 17.8 20.3 22.5 11.8 5.6 23.2 3 34.6-1.6 6.3-2.6 12.8-4.4 19.9-2.5 7.7 2.1 11.3 8.7 16.6 13.5 6 5.5 12.9 9.4 20.8 9.9 15.2.9 30.3-9 35.6-24.1 4.6-13-2-23.6-10.5-33.1-10.1-11.2-24-17.2-35.5-26.5-10.8-8.8-24.1-11.9-38-12.3-9.2-.3-13.7-4.1-12.7-11.5.5-3.9 1.8-7.7 1.3-11.8-1.3-12.4-8.7-24.2-23.7-16.5-3.7 1.9-7.7 3.4-11.4 5.4-7.7 4.1-16.5 8.3-17.5 17.9-1.5 13.6-8.5 26.1-6.8 39h0z" fill="#1c6a83"/><path d="M83.3 49.1c2.7 2.6 3.5-.4 4.3-1.7 3.3-5.6 4.1-11.9 5.4-18.1 1.8-8.6 6.1-15.7 12.6-21.5 6.4-5.7 13.9-5.7 21.5-3.6 10.3 2.9 20.5 6.1 30.7 9.2 10.1 3 17 12.7 14.4 23.9-2.6 11.1 2.5 20.5 3.4 30.7 1 11.5 7.2 17.8 18.5 21.8 15.9 5.7 25.8 24.3 23.3 40.8-1.3 8.4-8.4 12.2-15.7 15.1-1.1.5-2.3 1-3.5 1.1-17.2 1.5-19.2 16-24 28-5 12.6-23 24.7-36.8 25-10.3.2-20.6.7-30.8 1.6-4.5.4-6.5 3.5-4.6 8.1 4.3 10.4 8.3 20.9 13.1 30.9 3.9 8.1 3.5 16.6 2.3 24.6-1.3 9-1 17.9-1 26.8-.2 40.9-28.3 73.7-68.6 80.7-12.5 2.2-23.9 2-34.5-5.8-2.6-1.9-4.1-4.2-5.7-6.8-.8-1.3-1.4-3.4-3.5-1.3-5.4-8.4-4.3-17.9-2.9-26.8 1.9-11.8 5.4-23.5 8.8-35 4-13.4.7-25.5-5.4-37.2-4.9-9.4-6.5-19.3-1.8-28.4 4.5-8.8 13.9-11.1 23.4-11.3 8.6-.2 21.1-12.3 22.9-23.1 3-18.1 3.2-35.7-5.4-53.1-9.4-19-6.3-37.3 8.2-53.2 5.4-5.9 9.6-12.3 13-19.5 4.4-8.9 10.7-16 18.4-21.9h0zm48.6-38.4c-13.9-6.7-25-2.8-31 11.3-6.1 14.2-6.8 30.4-20.9 41.6-8.2 6.5-12 18.3-18.2 27.4-4.6 6.7-10.8 12.3-13.7 20.2-3 5.7-3.6 11.9-1.2 17.7 8 19.2 13.2 38.7 11 59.8-.7 6.7-1.4 13.1-5.2 18.7-6.7 9.9-12.5 19.2-27.3 20-18.5 1-22.6 12.7-13.7 29.2 6.8 12.8 9.8 26.7 5.9 41.3-3.2 12.3-7 24.5-9.7 37-4.2 19.6 8.9 36.7 28.6 34.7 25.6-2.5 48.3-12.2 62.7-35.7 9.6-15.7 13.9-32.5 13.3-50.8-.1-3.7-1.8-7-.8-11.3 2.1-8.7 4.3-17.7.2-26.7l-13-29.7c-5.5-12.7-1.8-18.4 11.9-18.7 7.9-.2 15.9.2 23.8-.9 17.1-2.3 32.7-10.9 38.1-29.4 2.6-8.7 4-19 15.8-21.5 4.8-1 9.6-2.7 14.1-4.6 6.8-3 11.5-7.8 11.1-16-.5-12.2-12.5-28.2-24.2-31.5-10-2.8-15.7-8.4-17.4-19.1-1.1-6.6-1.1-13.6-4.7-19.7-1.4-5.5-1.3-11.1-.3-16.7 1.3-7.4-.6-13.8-7.3-16.8-8.9-4-18.6-6.6-27.9-9.8h0z" fill="#1b6983"/><path d="M170.9 232.6c-1.7-12.9 5.2-25.4 6.7-38.9 1.1-9.6 9.8-13.8 17.5-17.9 3.7-2 7.7-3.5 11.4-5.4 15-7.7 22.4 4.1 23.7 16.5.4 4-.8 7.9-1.3 11.8-1 7.4 3.6 11.2 12.7 11.5 13.9.4 27.2 3.5 38 12.3 11.5 9.4 25.4 15.4 35.5 26.5 8.5 9.5 15.1 20 10.5 33.1-5.3 15.1-20.4 25-35.6 24.1-7.9-.5-14.8-4.4-20.8-9.9-5.3-4.8-8.9-11.4-16.6-13.5-7.1-1.9-13.6-.1-19.9 2.5-11.4 4.6-22.8 7.2-34.6 1.6-9.9-4.7-15.7-13.1-20.3-22.5-5.3-11.1-6.9-18.7-6.9-31.8h0zm1.7 2.1c-.9 6.4 1.2 13.3 3.6 20.4 8.5 24.9 26.1 42.4 58.5 27.6 4.7-2.1 9.9-2.8 15.3-2.4 9.7.9 13.9 9 20.2 14.4 9.2 8 19.4 13.2 31.7 8.1 20.9-8.8 32.5-28.6 14.5-49.8-6.6-7.9-15.2-12.9-23.3-18.9-15.8-11.6-31.5-22.7-52.3-22.5-11.6.1-15.9-6.7-12.7-17.8 2.1-7.3 0-14.5-5.1-20.5-4.6-5.3-10-4-15.3-1.3-6.9 3.5-13.9 6.8-20.5 10.7-3.4 2-6.6 5.1-7.2 9.3-1.9 14-8.4 27.1-7.4 42.7h0z" fill="#06bde1"/><path d="M167.4 54c3.7 6 3.7 13.1 4.7 19.7 1.7 10.6 7.4 16.3 17.4 19.1 11.7 3.3 23.7 19.3 24.2 31.5.4 8.2-4.3 13-11.1 16-4.5 2-9.3 3.6-14.1 4.6-11.8 2.5-13.2 12.7-15.8 21.5-5.5 18.5-21 27.1-38.1 29.4-7.8 1.1-15.8.7-23.8.9-13.7.3-17.3 6.1-11.9 18.7l13 29.7c4 9 1.9 18-.2 26.7-1 4.2.6 7.5.8 11.3.7 18.3-3.6 35.1-13.3 50.8-14.4 23.6-37.1 33.2-62.7 35.7-19.7 2-32.8-15.1-28.6-34.7 2.7-12.5 6.5-24.7 9.7-37 3.8-14.6.9-28.5-5.9-41.3-8.8-16.5-4.8-28.1 13.7-29.2 14.8-.8 20.6-10.2 27.3-20 3.8-5.6 4.5-12.1 5.2-18.7 2.2-21.1-3.1-40.6-11-59.8-2.4-5.8-1.9-12 1.2-17.7.2.3.5.5.7.8-2.1 6.6-2.1 13.1.5 19.7l7.8 20.8c3.5 17.3 3.7 34.6-.7 51.8l-3.5 5.3c-6.4 9.3-12.1 19.4-25.7 19.5-17.6.1-23.1 10.8-14.9 26.4 5.7 10.9 9.7 22.4 7.6 35.6-1.3 8.5-5.3 16.3-5.6 25-.2 1.3-.5 2.5-.7 3.8-1.2 4.2-2.7 8.3-3.6 12.5-3.9 18.9 5.9 34.8 21.9 35.5 32.7 1.4 63.7-20 73.9-51 5.2-11.9 6.4-24.3 4.4-37.1-.4-2.6-.4-5 .1-7.6 1.5-8.6 4.3-17.2.6-25.9l-12.5-28.8c-7-15.1-3.1-21.2 13.5-22.4 8.5-.6 17.1 1.4 25.4-1.3 1.2-.3 2.5-.5 3.7-.8 15.1-4.2 26.3-12.4 29.9-28.5 2.5-6.6 4.2-13.7 9.9-18.7l18.1-5.5c10.6-3.3 15.5-12.9 11.1-21.6-3.2-11.5-9.9-19.9-21.5-24.1-6.3-2.3-12.9-4.2-15.8-11.7-3-7.8-4-16-5.6-24.1.2-1.7.2-3.3.3-4.8h0z" fill="#0ba7c6"/><path d="M48.7 111.9c-.2-.3-.5-.5-.7-.8 2.8-7.9 9.1-13.5 13.7-20.2 6.2-9.1 10-20.9 18.2-27.4C94 52.3 94.7 36.1 100.8 21.9c6.1-14.1 17.1-17.9 31-11.3-.7.2-1.4.5-2.1.7-6.4-.8-13-4.6-19.2 1-6.5 6-10.9 13-12.4 21.9-1.6 9.1-4.2 17.4-11.3 24.5-15.6 15.5-24.6 36-38.1 53.2z" fill="#08b6d6"/><path d="M129.7 11.4l2.1-.7c9.4 3.2 19 5.8 28 9.8 6.7 3 8.6 9.5 7.3 16.8-1 5.5-1.1 11.1.3 16.7 0 1.5-.1 3.1-.1 4.6-3.3-6.1-3.8-12.9-2.7-19.4 1.8-10.8-1.8-17-12.5-19.8-7.7-2-15.4-4-22.4-8h0z" fill="#03c4ed"/><path d="M172.6 234.7c-1-15.6 5.6-28.7 7.5-42.7.6-4.2 3.8-7.3 7.2-9.3 6.6-3.9 13.6-7.2 20.5-10.7 5.3-2.7 10.8-4 15.3 1.3 5.1 5.9 7.2 13.1 5.1 20.5-3.1 11.1 1.2 18 12.7 17.8 20.8-.2 36.5 10.9 52.3 22.5 8.1 6 16.7 11 23.3 18.9 18 21.3 6.4 41.1-14.5 49.8-12.3 5.2-22.5-.1-31.7-8.1-6.3-5.4-10.6-13.6-20.2-14.4-5.4-.5-10.6.2-15.3 2.4-32.5 14.8-50-2.7-58.5-27.6-2.5-7.1-4.6-14-3.7-20.4h0zm115.5-1.3c-16.9-13.4-35.4-21.3-57.7-19-9.1 1-13.3-5.6-10.4-14.2 1.1-3.4 2.7-6.8 3.1-10.4.7-6-1.4-11.4-7.8-12.6-12.3-2.2-29.3 8.8-33 20.7-2.1 6.5-4 13.1-6 19.7-4.9 11.6-4.1 23 .8 34.3 10.2 23.4 23.2 40.9 55.4 29.3 14.6-5.3 26.1-3.1 36.2 9.9 7 9 17.2 14 29.8 11.4 15.2-3.2 28.7-21.1 24.7-34.5-5.4-17.8-19.9-26.6-35.1-34.6h0z" fill="#01dcfc"/><path d="M180.8 145.7c-5.6 5-7.3 12-9.9 18.7-3.1-11.6 7.4-24.6 21.8-27 5.9-3.1 12.6-5.6 12.7-14 .2-13.8-8.8-23.9-23.4-26.5-5.7-1-10.9-3-12.8-8.9-4.4-13.7-9.3-27.4-12.3-41.5-2.3-11-4.8-20-16.7-24.9-21-8.7-31.4-5.3-36.3 14.5-1.5 6.2-1.2 13.4-5.7 17.8-14.1 13.8-23.9 30.9-36.4 45.8-8.4 10-12.2 20.8-6.6 33.4l8.5 18.7c5.7 12.3 3.2 26.4 8.2 38.9 1.3 3.3-.2 5.5-2.3 7.6-3 3.2-6.2 6.1-8.9 9.5-10.1 12.5-18 27.5-37 29.2-5.1.5-7.8 5.5-6.5 10.9 2 8.7 4.5 17.2 6.7 25.9 1.4 16.7-3.7 32.1-9.7 47.3l-.6-1.5c.2-1.3.5-2.5.7-3.8.5-.5 1.2-.9 1.4-1.5 7.9-20.6 9.1-40.9-.4-61.6-5.4-11.8-1.5-18.5 11.5-20.1 10.5-1.3 17.9-6.5 23.4-14.8 5.3-8 14.2-14.7 14.8-24.7 1.1-18.3.1-36.5-9.4-53.3-5.1-9.1-8.8-19.8-2.8-29.6 9.1-14.8 18.5-29.7 30-42.7C92.3 57 100.2 46.8 102.3 32c1.9-12.9 10.5-19.7 21.9-18.2 10.7 1.4 20.7 6.2 30.4 11 2.6 1.3 5.1 4.2 4.9 7.2-1.3 17.4 6.9 32.8 10 49.2 1.4 7.4 5.9 11.7 13.3 13.4 12.8 3.1 22.1 10.2 25.3 23.7.2.8 0 2.6 1.9 1.8.9 9.5-3.7 15-12.2 18.7-5.6 2.5-12.4 2-17 6.9h0z" fill="#02ecfc"/><path d="M210 120.2c-2 .8-1.7-1.1-1.9-1.8-3.2-13.5-12.4-20.6-25.3-23.7-7.4-1.8-11.9-6-13.3-13.4-3.1-16.4-11.3-31.8-10-49.2.2-3-2.3-5.9-4.9-7.2-9.7-4.9-19.7-9.6-30.4-11-11.4-1.5-20 5.3-21.9 18.2-2.1 14.8-10.1 25-19.6 35.7-11.5 12.9-20.8 27.9-30 42.7-6 9.8-2.3 20.6 2.8 29.6 9.5 16.8 10.5 35 9.4 53.3-.6 10-9.4 16.7-14.8 24.7-5.5 8.3-12.9 13.5-23.4 14.8-13 1.6-16.9 8.3-11.5 20.1 9.5 20.7 8.4 41 .4 61.6-.2.6-.9 1-1.4 1.5.3-8.6 4.2-16.5 5.6-25 2.1-13.2-1.9-24.7-7.6-35.6-8.2-15.6-2.7-26.3 14.9-26.4 13.5-.1 19.3-10.2 25.7-19.5 1.2-1.7 2.3-3.5 3.5-5.3.7-1 1.6-1.8 2-2.9 4.5-12 2.2-24.4 2.1-36.6 0-4 .8-9.1-3.4-12.3l-7.8-20.8c-2.5-6.5-2.6-13.1-.5-19.7 13.5-17.2 22.4-37.7 38.1-53.2 7.2-7.1 9.8-15.4 11.3-24.5 1.5-8.9 5.9-16 12.4-21.9 6.1-5.6 12.7-1.8 19.2-1 6.9 4 14.6 6 22.3 8 10.7 2.8 14.3 9.1 12.5 19.8-1.1 6.5-.6 13.3 2.7 19.4 1.6 8.1 2.6 16.3 5.6 24.1 2.8 7.5 9.4 9.4 15.8 11.7 11.6 4.2 18.3 12.6 21.5 24.1-.1.6-.1 1.1-.1 1.7z" fill="#01d7fb"/><path d="M141 192.9l-3.7.8-31.6.8c-10.6.5-15 7.3-11 17 3.8 9.2 8.1 18.2 11.8 27.4 7.8 19 .2 39 3.4 58.4.2.9-.8 2-1.3 3 .2-6.6 0-13.2-2.3-19.5-2.2-11.2-1.1-22.5-1.6-33.8-.3-6.1-2.1-12.1-5.9-17.2l-4.5-10.5-6.3-12.7c-2.7-5.6-4-10.7 4.3-12.6l8-1.8 32.3.8c2.9.1 5.7-2.1 8.4-.1h0z" fill="#01e5fd"/><path d="M141 192.9c-2.7-2-5.5.2-8.2.1-10.8-.5-21.5-.6-32.3-.8 1.3-.5 2.7-.9 5.3-1.8l-14.3-1.9c9.6.6 19.2.3 28.6 1.8 23.4 3.9 42.9-7.7 48.7-30.7 3.3-13 7.4-24.2 23.2-25.2.2 1 .5 2 .7 3-14.4 2.4-24.9 15.3-21.8 27-3.6 16.1-14.8 24.3-29.9 28.5h0z" fill="#06f1f6"/><path d="M13.6 319.8l.6 1.5-2.6 12c-3.2 13.7 4.9 29.6 16.9 31.2 24.9 3.5 45.5-6 62.1-23.9 10.1-10.8 14.2-24.9 18.1-38.9.5 5.3-2.5 9.9-3 15-10.2 31-41.2 52.4-73.9 51-16-.7-25.8-16.5-21.9-35.5.9-4.2 2.4-8.3 3.7-12.4h0z" fill="#01e5fd"/><path d="M105.8 316.7c.5-5.1 3.5-9.7 3-15v-1.5c.4-1 1.4-2.1 1.3-3-3.3-19.3 4.4-39.4-3.4-58.4-3.8-9.2-8-18.2-11.8-27.4-4-9.6.3-16.5 11-17 10.5-.5 21-.5 31.6-.8-8.3 2.6-16.9.7-25.4 1.3-16.6 1.2-20.5 7.3-13.5 22.4 4.4 9.5 8.3 19.2 12.5 28.8 3.7 8.7 1 17.4-.6 25.9-.5 2.7-.5 5-.1 7.6 1.7 12.8.5 25.2-4.6 37.1z" fill="#04c8eb"/><path d="M57 152.4c4.2 3.2 3.3 8.3 3.4 12.3.1 12.2 2.3 24.7-2.1 36.6-.4 1.1-1.3 1.9-2 2.9 4.4-17.2 4.2-34.5.7-51.8h0z" fill="#03c4ed"/><path d="M210 120.2v-1.5c4.4 8.7-.5 18.3-11.1 21.6l-18.1 5.5c4.6-4.9 11.4-4.4 17.1-6.9 8.4-3.8 13-9.3 12.1-18.7h0z" fill="#03c9ed"/><path d="M176.3 217.7l6-19.7c3.7-11.9 20.7-22.9 33-20.7 6.4 1.2 8.5 6.6 7.8 12.6-.4 3.5-2 6.9-3.1 10.4-2.8 8.6 1.4 15.1 10.4 14.2 22.3-2.4 40.8 5.5 57.7 19-1.8 1.6-2.9-.1-4.2-.8l-11.5-6.7c-12.3-7.7-25.5-9-39.8-7.8-17.1 1.5-23.3-6.4-20.3-23.1 1.1-6.4-3.3-10-9.8-8.5-14.6 3.4-16.4 17.1-22.4 27.4-.7 1.3-1.4 2.6-2.3 3.7-.3.4 0 2-1.4 1.1-.2-.2-.1-.7-.1-1.1h0z" fill="#00f4fe"/><path d="M272.3 225.9l11.5 6.7c1.3.7 2.4 2.4 4.2.8 15.3 7.9 29.7 16.8 35.1 34.6 4 13.4-9.5 31.4-24.7 34.5-12.6 2.6-22.8-2.4-29.8-11.4-10.1-13-21.7-15.1-36.2-9.9-32.2 11.6-45.2-5.9-55.4-29.3-4.9-11.3-5.8-22.8-.8-34.3 0 .4-.1.9.1 1.1 1.3.9 1.1-.7 1.4-1.1.9-1.2 1.5-2.5 2.3-3.7-6.9 15.4-5.3 29.8 2.9 44.6 10.9 19.5 23.7 25.8 45.4 21 7.5-1.7 14.8-4.7 22.7-3.8 10.6 1.2 15.2 10.7 22.2 16.8 7.2 6.2 14.9 10 24.6 7.5 14.8-3.8 26-18.6 23.3-30.4-3-12.9-11.7-21.1-22.4-27.6-8.9-5.2-18.3-9.5-26.4-16.1h0z" fill="#07f1f6"/><path d="M91.5 188.4l14.3 1.9-5.3 1.8-8 1.8c-8.3 1.8-7 7-4.3 12.6l6.3 12.7c-3.3-1.7-4.8-5-6.8-7.7-6-8.1-13.6-9.6-21.7-3.9-5 3.5-9.4 7.9-12.8 13-6.1 8.9-12.9 16.8-23.8 20.1-3.6 1.1-6.5 3.7-6.8 7.8-.4 7.3.2 14.7 2.1 21.8-.3 1.3-.5 2.5-.8 3.8l-6.7-25.9c-1.3-5.4 1.4-10.4 6.5-10.9 19-1.8 26.9-16.7 37-29.2 2.7-3.4 5.9-6.3 8.9-9.5 2-2.2 3.6-4.4 2.3-7.6-5-12.5-2.5-26.5-8.2-38.9l-8.5-18.7c-5.6-12.7-1.7-23.5 6.6-33.4 12.5-15 22.3-32 36.4-45.8 4.5-4.4 4.2-11.7 5.7-17.8 4.9-19.9 15.3-23.3 36.3-14.5 11.9 4.9 14.3 13.9 16.7 24.9 3 14.1 7.9 27.7 12.3 41.5 1.9 5.9 7.1 7.9 12.8 8.9 14.6 2.6 23.6 12.7 23.4 26.5-.1 8.4-6.8 10.9-12.7 14-.2-1-.5-2-.7-3 3.6-1.5 6.5-3.8 8.4-7.1 6.5-11.4-3.2-26.3-17.4-26.6-9.6-.2-16.1-3.6-17.3-14-.3-2.3-1-4.6-1.5-6.9-2.9-14-12-25.5-15.6-39.2-1.4-5.3-4.3-9.3-8.6-12.7-12.6-9.9-29-7.2-30.9 6.1-2 14-8.3 24.3-18.9 33.3-10.5 8.9-15.8 22.3-25 32.4-12 13.2-11.6 27.1-3.2 41.9 5.2 9.3 8.8 19.2 11 29.7 2.7 12.5 7.6 16.7 18.5 16.8h0z" fill="#02f8fc"/><path d="M24 274l.8-3.8c1.3 7.5 1.7 15.2 0 22.5-3.1 13.1-7.4 25.8-10.7 38.9-3.9 15.3 4.4 30.6 18.1 31.4 24.2 1.5 45-7.2 59.5-26.7 13.1-17.7 19.5-37.8 12-60.1l3 4.5c2.3 6.3 2.5 12.9 2.3 19.5v1.5c-3.9 13.9-8 28.1-18.1 38.9-16.7 17.9-37.2 27.3-62.1 23.9-12-1.7-20.1-17.6-16.9-31.2l2.6-12c5.8-15.2 10.8-30.6 9.5-47.3h0z" fill="#09f2f4"/><path d="M103.5 276.2c7.6 22.3 1.1 42.4-12 60.1C77 355.8 56.2 364.4 32 363c-13.7-.8-22-16.1-18.1-31.4 3.3-13 7.6-25.8 10.7-38.9 1.8-7.3 1.4-15 0-22.5-2-7.1-2.6-14.5-2.1-21.8.2-4 3.2-6.7 6.8-7.8 10.9-3.3 17.7-11.2 23.8-20.1 3.5-5.1 7.8-9.5 12.8-13 8.2-5.8 15.7-4.2 21.7 3.9 2.1 2.8 3.5 6.1 6.8 7.7l4.5 10.5c1.8 8.8 2.7 17.7 2.3 26.8-.2 6.7-.4 13.4 2.3 19.8h0zM15 339.9c0 14.6 9.6 24.5 25.7 22.4 22.7-3.1 42.5-11.8 54.3-33.1 8.1-14.7 13.6-30.1 8.3-46.8-3.1-10-6.5-19.8-4.9-30.3 1.7-11.2-.7-21.4-6.4-30.8-4.2-6.9-8.6-14.1-18.6-13.4-7.8.5-12.3 5.9-16.3 11.3-7.2 9.8-14.3 19.4-25.6 25.1-5.9 3-5.9 9.1-5.6 14.7.7 13.5 2.4 26.8-1.2 40.3-3.3 12.9-10.2 24.8-9.7 40.6h0z" fill="#13fdeb"/><path d="M103.5 276.2c-2.7-6.4-2.5-13.1-2.2-19.8.4-9-.5-17.9-2.3-26.8 3.8 5.1 5.6 11.1 5.9 17.2.6 11.3-.6 22.6 1.6 33.8-1-1.4-2-2.9-3-4.4h0z" fill="#02f8fc"/><path d="M91.5 188.4c-10.8-.1-15.8-4.4-18.5-17.1-2.2-10.5-5.7-20.4-11-29.7-8.4-14.8-8.8-28.7 3.2-41.9 9.2-10.2 14.5-23.5 25-32.4 10.6-9 16.9-19.3 18.9-33.3 1.9-13.3 18.3-16 30.9-6.1 4.3 3.4 7.2 7.4 8.6 12.7 3.6 13.7 12.6 25.2 15.6 39.2.5 2.3 1.2 4.6 1.5 6.9 1.2 10.4 7.8 13.8 17.3 14 14.2.2 24 15.2 17.4 26.6-1.9 3.3-4.9 5.7-8.4 7.1-15.9 1-19.9 12.2-23.2 25.2-5.8 23-25.3 34.5-48.7 30.7-9.4-1.6-19.1-1.3-28.6-1.9zm71.3-18l4.5-10.5c.8-2.3 1.8-4.6 2.2-7 1.7-10.8 5.5-19.4 18.3-20.3 3.4-.2 6.5-2.2 8.9-5.1 3.7-4.5 3.8-9.5 1.5-14.4-3.1-6.4-8.9-9.7-15.8-9.3-9.5.5-16.6-1.9-17.9-12.3-2.5-21.1-14.7-37.8-24.2-55.8-3.3-6.2-9.6-9.6-16.6-9-7.5.7-10.2 6.9-11.4 13.5-1.4 8.1-5.4 14.6-11.5 20-4.3 3.9-8.8 7.8-12.4 12.3-6.8 8.4-12.8 17.5-19.7 25.8-11.2 13.4-13.3 27.1-4.4 42.7 5.5 9.7 9.7 20.2 12.7 31.1 2 7 6.6 11.5 13.8 12.7 12.1 1.9 24.3 4.1 36.5 5 15.3 1.2 30.4-7.6 35.5-19.4h0z" fill="#1bfee2"/><path d="M272.3 225.9c8.1 6.5 17.5 10.9 26.3 16.2 10.7 6.5 19.4 14.7 22.4 27.6 2.7 11.8-8.4 26.6-23.3 30.4-9.6 2.5-17.4-1.3-24.6-7.5-7-6.1-11.6-15.6-22.2-16.8-7.8-.9-15.2 2.1-22.7 3.8-21.7 4.8-34.5-1.6-45.4-21-8.3-14.7-9.8-29.2-2.9-44.6 6-10.3 7.8-24 22.4-27.4 6.5-1.5 10.9 2.1 9.8 8.5-3 16.8 3.2 24.6 20.3 23.1 14.4-1.2 27.6.1 39.9 7.7h0zm-94.5 10.2c0 26.1 25.9 47.4 53 40.3 16.5-4.3 29.1-3.5 40.7 11.4 11.5 14.8 27.6 14.5 39.7 2.5 11.6-11.6 10.6-25.4-3.2-38.7-11.4-11-27.1-15.2-39.8-24.3-9.3-6.7-20-7.3-30.8-6.5-20.1 1.6-26.9-1.9-35.7-19.6-1.4-2.8-4.1-3.7-6.1-1.5-8.7 10.1-18.4 19.7-17.8 36.4h0z" fill="#0efdf0"/><path d="M15 339.9c-.5-15.8 6.4-27.8 9.8-40.5 3.6-13.5 1.9-26.9 1.2-40.3-.3-5.6-.3-11.7 5.6-14.7 11.3-5.7 18.4-15.3 25.6-25.1 4-5.4 8.6-10.8 16.3-11.3 10-.7 14.4 6.5 18.6 13.4 5.7 9.4 8.1 19.6 6.4 30.8-1.6 10.5 1.8 20.3 4.9 30.3 5.2 16.8-.2 32.2-8.3 46.8-11.8 21.3-31.7 30.1-54.3 33.1-16.2 2.1-25.8-7.8-25.8-22.5h0zm1.5-2.3c0 16 7.5 23.6 23.6 23.3 9.2-.2 17.7-3.6 26.2-6.8 25.3-9.8 47.6-50.6 33.3-78.4-3.4-6.7-5.8-14-4-21.7 1.7-7.5 1.9-14.9-.6-22.1-3.3-9.6-7.5-19.5-18.8-21.4-9.7-1.6-15.4 6-20.5 13.2-5.7 8.1-11.5 15.9-19.9 21.6-5.6 3.8-7.7 9.5-7.5 16.6.3 16 1.3 32.2-5.2 47.6-3.8 8.9-7.4 18-6.6 28.1h0z" fill="#23feda"/><path d="M167.3 159.9l-4.5 10.5c-.7.3-1.5.5-2.2.8 6.2-10 7.7-21.3 9.2-32.7.7-5.4 2.7-10.1 10-10.4 6.9-.4 15.5-1.4 13.4-11.5-1.6-7.7-8.9-8-15.3-6.5-10.8 2.6-13.6 1.9-14.9-9.3-2.6-22.7-11.5-41.7-28.7-56.9-6.1-5.4-10-5.2-14.7 1.3-3.3 4.5-6.4 9.5-10.8 12.8-15.7 11.5-26.5 27.2-37.5 42.7-7.9 7.9-10.9 17.5-8.3 28.3 2.7 11.3 9.7 20.8 14.1 31.4 7.5 18.1 16.9 24.9 36.3 25.1 8.9 2.9 17.9 2.4 27 1.5-11.6 4.6-23 .2-34.4-1.2-10.8-1.3-22.2-2.5-26.8-14.8-4.5-12.1-10.3-23.5-15.6-35.2-3.3-7.3-5.7-15.5-1.4-23.1 9.9-17.4 21.2-34 36.1-47.6 7.5-6.8 15.4-13.3 17.8-23.8 1.1-4.7 3.4-8.3 8-9.4 5.3-1.3 9.8 1.2 12.6 5.6 11.8 18.1 25.3 35.3 27.2 58.2.6 7.1 4.3 12.7 13.3 10.7 8.5-1.8 18.4 2.8 19.5 9.1 1.6 9.5-2.3 13.9-14 16-4.5.8-9.1 1.7-10.4 7.1-2 7-3.4 14.2-5 21.3h0z" fill="#39fec4"/><path d="M160.6 171.2c.7-.3 1.5-.5 2.2-.8-5 11.8-20.2 20.6-35.6 19.4-12.2-1-24.4-3.1-36.5-5-7.2-1.1-11.8-5.7-13.8-12.7-3.1-10.9-7.2-21.4-12.7-31.1-8.8-15.6-6.8-29.3 4.4-42.7 6.9-8.3 12.9-17.4 19.7-25.8 3.7-4.5 8.1-8.4 12.4-12.3 6-5.4 10-11.9 11.5-20 1.2-6.6 3.9-12.8 11.4-13.5 7-.7 13.3 2.8 16.6 9 9.5 18 21.7 34.7 24.2 55.8 1.2 10.4 8.4 12.8 17.9 12.3 6.9-.3 12.7 2.9 15.8 9.3 2.3 4.9 2.2 9.9-1.5 14.4-2.4 2.8-5.5 4.8-8.9 5.1-12.8.9-16.6 9.5-18.3 20.3-.4 2.4-1.4 4.7-2.2 7l4.8-21.4c1.3-5.3 5.8-6.3 10.4-7.1 11.7-2.1 15.6-6.5 14-16-1.1-6.3-10.9-11-19.5-9.1-8.9 1.9-12.7-3.6-13.3-10.7-1.9-22.9-15.4-40.1-27.2-58.2-2.8-4.3-7.3-6.8-12.6-5.6-4.6 1.1-7 4.7-8 9.4-2.4 10.5-10.3 17-17.8 23.8-14.9 13.7-26.2 30.2-36.1 47.6-4.3 7.6-1.9 15.8 1.4 23.1 5.4 11.7 11.2 23.1 15.6 35.2 4.6 12.3 16 13.5 26.8 14.8 11.4 1.4 22.8 5.8 34.4 1.2 8.4-3.3 15.6-8 20.5-15.7h0zm17.2 64.9c-.6-16.7 9.2-26.3 17.8-36.4 1.9-2.2 4.6-1.4 6.1 1.5 8.8 17.6 15.6 21.2 35.7 19.6 10.8-.9 21.5-.2 30.8 6.5 12.7 9.1 28.4 13.3 39.8 24.3 13.8 13.3 14.7 27.2 3.2 38.7-12 12-28.1 12.3-39.7-2.5-11.6-14.9-24.3-15.7-40.7-11.4-27.1 7-53-14.2-53-40.3h0zM292 296.5c10 0 19.6-6.3 23.1-16.1 3.3-9.1.7-17.2-5.6-24.5-7.6-8.8-18.2-12.4-27.8-17.8-14.6-8.3-28.7-17.8-46.8-14.3-12.2 2.3-21.8-2.1-31.1-9.3-3.9-3.1-8.7-4.8-13.5-1.4-8.3 6-13.1 17.6-9.8 27.2 9.7 28.5 26.7 40.3 56.6 32.5 14.5-3.7 24.9-.9 33.5 11.6 5 7 12 12.2 21.4 12.1h0z" fill="#2afed3"/><path d="M16.5 337.6c-.7-10.1 2.9-19.2 6.7-28.1 6.6-15.4 5.6-31.5 5.2-47.6-.1-7 1.9-12.8 7.5-16.6 8.4-5.7 14.2-13.5 19.9-21.6 5.1-7.2 10.8-14.7 20.5-13.2 11.3 1.8 15.4 11.8 18.8 21.4 2.5 7.2 2.3 14.6.6 22.1-1.8 7.7.5 15 4 21.7 14.3 27.7-8 68.6-33.3 78.4-8.5 3.3-17 6.7-26.2 6.8-16.3.3-23.7-7.3-23.7-23.3zm78-93.5v-4.6c0-10.8-7.6-23.3-15.9-26-7.4-2.5-15.8 1.9-22.9 13.2-4.6 7.3-9.8 13.9-16.4 19.3-4.7 3.9-7.9 8.5-8.6 14.7-1.5 13.8 1.4 27.8-3.7 41.3-3.7 9.8-7.6 19.5-9.5 29.9-2.5 13.5 4.4 25.5 16.5 27.5 17.8 3 47.2-10.9 56.3-26.7 8.6-15.1 17.4-30.7 10.7-48.5-5.3-14.1-11.7-27.4-6.5-40.1h0z" fill="#32fecb"/><path d="M160.6 171.2c-4.9 7.7-12 12.4-20.3 15.7-9.1.9-18.1 1.4-27-1.5-.7-.3-1.3-.6-2-.8-12.2-2.7-24.6-4.9-30.5-18.4-4.1-9.4-8.8-18.4-13.4-27.6-3.3-6.7-5.4-13.8-4.2-21.3 1-6.2 5.2-11.2 8.1-16.7 11-15.5 21.8-31.2 37.5-42.7 4.4-3.2 7.5-8.2 10.8-12.8 4.7-6.5 8.6-6.7 14.7-1.3 17.1 15.2 26 34.2 28.7 56.9 1.3 11.2 4.1 11.9 14.9 9.3 6.4-1.5 13.7-1.3 15.3 6.5 2.1 10.1-6.6 11.2-13.4 11.5-7.3.4-9.3 5-10 10.4-1.5 11.5-3.1 22.8-9.2 32.8zm-42.1 13.5c18.4 6.2 39.8-4.8 45-23.2 4.8-14.8 6.2-29.6.3-44.5-1.3-3.3-2.9-6.8-3.2-10.3-1.6-16.2-2.2-32.8-14.6-45.2-11.8-11.8-16.6-15.2-31-5.3C96.9 68.6 84.1 85.4 71.6 103c-8.5 12-9.1 23.8-2.5 36.4 3.7 7.1 8 13.9 10.9 21.3 7.1 17.8 22.3 21.5 38.5 24h0z" fill="#4efeaf"/><path d="M71.2 100.6c-2.9 5.5-7 10.5-8.1 16.7-1.3 7.5.9 14.6 4.2 21.3 4.5 9.2 9.3 18.2 13.4 27.6 5.9 13.5 18.3 15.7 30.5 18.4.7.2 1.3.5 2 .8-19.4-.3-28.8-7-36.3-25.1-4.4-10.6-11.4-20.1-14.1-31.4-2.5-10.8.5-20.3 8.4-28.3z" fill="#4afeb4"/><path d="M292 296.5c-9.4.1-16.4-5.1-21.3-12.1-8.6-12.5-19-15.3-33.5-11.6-30 7.7-46.9-4.1-56.6-32.5-3.3-9.6 1.5-21.3 9.8-27.2 4.8-3.4 9.6-1.6 13.5 1.4 9.2 7.2 18.9 11.7 31.1 9.3 18-3.5 32.2 6.1 46.8 14.3 9.6 5.4 20.3 9 27.8 17.8 6.3 7.3 8.9 15.4 5.6 24.5-3.6 9.8-13.2 16.1-23.2 16.1h0zm-11.4-6.1c2.7 5 7.9 5.3 12.3 4.9 16.5-1.8 28.3-18.8 17.7-35.6-.7-1.1-1.4-2.3-2.2-3.3-8.9-10.9-23.2-12.9-34-20.3-12.9-8.9-26.7-12.9-42-10.7-10.7 1.6-19.1-2.2-27.5-7.8-4.6-3.1-9.8-4.9-15-1.1-11.1 8.3-12.2 25.4-2.4 35.7 5.4 8.9 12.7 15.7 22.6 19.1 11.5 4 22.7 1.1 34-1.3 9-1.9 16.7-.6 22.8 7.5 3.4 4.5 5.8 10.5 12.1 12.2.6.3 1.1.5 1.6.7h0z" fill="#40febe"/><path d="M94.5 244.1c-5.2 12.7 1.2 26 6.5 40 6.7 17.9-2.1 33.5-10.7 48.5-9.1 15.8-38.5 29.7-56.3 26.7-12.1-2-19-14-16.5-27.5 1.9-10.4 5.9-20.1 9.5-29.9 5.1-13.5 2.2-27.6 3.7-41.3.7-6.2 3.8-10.8 8.6-14.7 6.6-5.4 11.8-12 16.4-19.3 7.2-11.3 15.5-15.6 22.9-13.2 8.3 2.7 15.9 15.2 15.9 26v4.7zM57.7 354.2c1.4-.6 2.7-1.2 4.1-1.7 19.9-7.6 30.9-22.8 36.5-42.6 3.8-5.2 4.1-11.1 3.4-17.2-1-8.7-5-16.2-9.2-23.5-6-10.2.2-20.2-.1-30.2-.3-10.1-6.4-20.3-14-22.3-10.4-2.8-15.9 4-20.9 11.4-4.3 6.4-7.8 13.5-14 18.3-5.7 4.5-9.8 10-10.3 17.1-1.3 16.2-.2 32.7-7.6 47.9l-5.3 16.5c-2.9 8.4-.3 21.3 5.2 25.7 6.8 5.6 24 5.9 32.2.6h0z" fill="#44feba"/><path d="M163.5 161.4c-5.2 18.4-26.6 29.4-45 23.2l-7.8-2.3c-10.5-3-20.6-6.6-26.1-17-5.3-10-11-19.9-15.8-30.1-3.3-7-5.2-14.7-1.1-22.2 9.6-17.4 20.5-33.9 36.2-46.5 6.7-5.4 13.4-11.7 22.6-12.3 13.4-.8 28.3 16.4 30.5 32.5 1.6 11.5-.7 23.7 5.2 34.4 3.6 6.5 4 13.7 3.9 20.7-.1 4.4 1.4 9.8-2.6 13.6v-3.7h.7c.3-1.2.6-2.3.7-3.5.8-10.2-1.2-19.7-5.6-29-5.2-11.1-1-23.5-4.2-35-3.4-12.5-9.7-22.8-22.5-26.7-11.8-3.6-20.1 4.3-28.5 10.9-6.3 4.4-11.3 10.2-15.8 16.3-7.6 10.1-18.3 19.2-19.8 32.1-2.7 23.4 11.4 40.9 26.2 56.2 9.3 9.6 24 11.8 37.7 11.5 5.1-.1 11.1-.4 14.5-5.8 0-.2.1-.5.1-.7 5.8-4.1 11-8.8 13.4-15.8l3-4.6c.1 1.3.1 2.5.1 3.8h0z" fill="#6ffe8e"/><path d="M163.6 155.4c4.1-3.9 2.6-9.2 2.6-13.6.1-6.9-.3-14.1-3.9-20.7-6-10.7-3.7-22.9-5.2-34.4-2.2-16.1-17.1-33.3-30.5-32.5-9.2.6-15.9 6.9-22.6 12.3C88.3 79.1 77.4 95.6 67.8 113c-4.1 7.5-2.2 15.2 1.1 22.2 4.8 10.3 10.5 20.1 15.8 30.1 5.6 10.5 15.6 14.1 26.1 17 2.6.7 5.2 1.5 7.8 2.3-16.2-2.4-31.4-6.2-38.4-23.9-2.9-7.4-7.2-14.3-10.9-21.3-6.6-12.7-6-24.4 2.5-36.4 12.4-17.6 25.3-34.4 43.4-46.8 14.4-9.9 19.2-6.5 31 5.3 12.3 12.4 13 29 14.6 45.2.3 3.5 1.9 6.9 3.2 10.3 5.9 14.9 4.5 29.7-.3 44.5v-3.8c-.2-.8-.2-1.6-.1-2.3h0z" fill="#6afe94"/><path d="M187.5 252.2c-9.8-10.3-8.7-27.4 2.4-35.7 5.1-3.8 10.4-2 15 1.1 8.4 5.6 16.9 9.3 27.5 7.8 15.2-2.2 29 1.8 42 10.7 10.8 7.5 25.1 9.5 34 20.3.8 1 1.5 2.2 2.2 3.3-.5.3-1 .5-1.5.8l-5.3-6c-.6-3.2-3.4-4.1-5.7-5.4-10.8-6.1-22.8-9.9-33.4-16.6-8.7-5.6-18.5-7.1-29-5.9-10.2 1.2-20.1 0-29.4-5.9-11.8-7.4-21.3-2.8-23.9 10.6-1.4 7.2 1.8 13.4 5.1 19.5v1.4z" fill="#45feb8"/><path d="M187.5 252.2v-1.5c.6.5 1.3.8 1.7 1.4 11.8 17.7 28.2 23.1 48.6 18.1 10.2-2.5 20.6-5.6 28.6 5 1.6 2.2 3.4 4.2 5.2 6.3l7.5 8.2c-6.4-1.7-8.7-7.7-12.1-12.2-6.1-8.1-13.8-9.4-22.8-7.5-11.3 2.4-22.5 5.3-34 1.3-10-3.4-17.3-10.2-22.7-19.1h0zm121.6 8.2c.5-.3 1-.5 1.5-.8 10.6 16.8-1.2 33.8-17.7 35.6-4.4.5-9.5.1-12.3-4.9 3.6 1.2 7.2 3.1 10.9 3.3 3.9.2 8.3 0 10.9-4v-.7l1.5-1.5c1.9.1 2.8-1.1 3.9-2.4 6.4-7.8 6.1-16.1 1.3-24.6h0z" fill="#4cfeb1"/><path d="M302.3 289.7c-2.6 4.1-7 4.3-10.9 4-3.7-.2-7.2-2.1-10.9-3.3-.5-.2-1-.5-1.5-.7l-7.5-8.2V280c.5.3 1 .5 1.5.8 2.2 4.2 5.4 7.2 9.8 9 5.4 3.1 10.8 4.4 16.5.7 1-.3 2-.5 3-.8z" fill="#5dfea0"/><path d="M20.2 328l5.3-16.5c7.5-12.8 8.8-26.7 8.3-41.1-.2-7.2 2.2-13.7 7.7-18.8 7.1-6.6 13-14 17.8-22.4 6.2-10.8 16.2-14 23.7-7.2 6 5.5 8.2 13.1 6.6 21.2-2.1 10.5-4.4 20.6 2.7 30.4 7.9 11 10.8 23.2 6 36.4-5.6 19.8-16.6 35-36.5 42.6-1.4.5-2.7 1.1-4.1 1.7l-9.1 1.9c-13.4 3.1-24-.7-27.4-11.1-1.8-5.3-.8-11.4-1-17.1zm1.5 4.3c0 16.5 8 24.4 19.9 23.2 25.2-2.6 43-14.8 52.8-38.6 5.2-12.6 8-25.5-.4-37.1-8.9-12.3-11.1-24.4-6.8-38.8 2.2-7.4-.9-15.6-8.6-18.9-7.3-3.1-13 1.2-17.1 7.6-4.4 6.9-7.8 14.5-14.3 20-8.5 7.1-11.8 16.3-11.2 27.2.5 9.7-1 19-5.1 28-4.5 9.7-8.9 19.5-9.2 27.4h0z" fill="#67fe96"/><path d="M98.3 310c4.8-13.3 2-25.4-6-36.4-7.1-9.8-4.8-20-2.7-30.4 1.6-8.2-.7-15.7-6.6-21.2-7.4-6.8-17.5-3.7-23.7 7.2-4.8 8.4-10.7 15.9-17.8 22.4-5.5 5.1-7.9 11.6-7.7 18.8.5 14.4-.8 28.4-8.3 41.1 7.4-15.2 6.3-31.7 7.6-47.9.6-7.1 4.6-12.6 10.3-17.1 6.2-4.9 9.7-11.9 14-18.3 5-7.4 10.4-14.2 20.9-11.4 7.6 2 13.7 12.2 14 22.3s-5.8 20 .1 30.2c4.2 7.3 8.2 14.9 9.2 23.5.8 6.1.5 12-3.3 17.2h0zm-78.1 18c.2 5.7-.8 11.8 1 17 3.5 10.5 14 14.2 27.4 11.1 3-.7 6.1-1.3 9.1-1.9-8.2 5.3-25.4 5-32.4-.5-5.4-4.4-8-17.3-5.1-25.7z" fill="#5afea3"/><path d="M163.6 155.4l-.1 2.2-3 4.6c-.1-.9-.4-2-.1-2.8 2.4-8.2 3.6-17.1-.2-24.5-7.6-14.5-7.4-29.7-8.3-45.3-1.2-23-22.3-32.9-41.9-20.7-13.5 8.4-21.9 21.4-30.7 34.2-4.3 6.3-9 13.5-7.7 20.5 3.9 20.3 14.3 37.6 31.4 49.4 13.3 9.2 28.4 11.7 44 5 0 .2-.1.5-.1.7-11.6 6.4-23.4 5.6-35.3.8-7.3-3.6-14.9-6.9-20-13.7l-10-13.3c-.8-1.7-1.4-3.4-2.4-5-7.9-12.6-13.2-25.4-4.4-39.8 2.9-4.9 6-9.6 9.1-14.4 5.7-7.6 11.8-14.8 18.7-21.3 14-13.4 31.3-14.8 42.1-3 6.8 7.4 9.3 16.6 9.8 26.4.5 9.5-1.7 19.3 3.3 28.3 4.9 8.8 6.3 18.3 5.8 28.2-.1 1 0 2.3 0 3.5h0z" fill="#a6fe57"/><path d="M147.1 178c-15.6 6.7-30.7 4.2-44-5-17.1-11.9-27.5-29.1-31.4-49.4-1.3-7.1 3.4-14.2 7.7-20.5 8.7-12.7 17.1-25.8 30.7-34.2 19.6-12.2 40.7-2.3 41.9 20.7.8 15.6.7 30.8 8.3 45.3 3.9 7.4 2.6 16.3.2 24.5-.2.9.1 1.9.1 2.8-2.5 7-7.7 11.7-13.5 15.8h0zm3.7-72.9V91.8c-.4-20.7-19.2-32.2-37.6-23C99.9 75.5 92.1 87.4 83.9 99c-5.6 8-12.5 16.5-10 26.5 5.3 21.5 16.8 39.6 37.2 49.9 13.1 6.6 27.3 8.5 39.3-2.3 11.4-10.4 13.8-24.1 8.5-38.4-4-10.3-10.8-19.7-8.1-29.6h0z" fill="#bbfe42"/><path d="M111.7 179.4c11.9 4.8 23.6 5.7 35.3-.8-3.4 5.4-9.4 5.6-14.5 5.8-13.7.3-28.4-1.9-37.7-11.5-14.8-15.3-28.9-32.8-26.2-56.2 1.5-12.9 12.2-22 19.8-32.1 4.6-6.1 9.5-11.8 15.8-16.3 1.4-.8 2.8-1.5 4.2-2.3 8.3-4.9 16.4-10.4 26.8-5.9 13.2 5.8 17.7 17.1 20.1 30.1 1.9 10.3-1.9 21.2 3.2 30.9 5.1 9.6 6.1 19.8 5.7 30.4h-.7c.6-9.9-.9-19.4-5.8-28.2-4.9-9-2.8-18.8-3.3-28.3-.5-9.8-3-19-9.8-26.4-10.8-11.8-28.1-10.4-42.1 3-6.9 6.6-13 13.7-18.7 21.3-17.7 15.1-18.7 42.1-2.3 59.3 6.3 13.6 15.2 23.9 30.2 27.2h0z" fill="#8afe73"/><path d="M164.3 151.7c.4-10.6-.6-20.8-5.7-30.4-5.1-9.7-1.4-20.7-3.2-30.9-2.4-13.1-7-24.4-20.1-30.1-10.4-4.5-18.5 1-26.8 5.9-1.4.8-2.8 1.5-4.2 2.3 8.4-6.6 16.8-14.6 28.5-10.9 12.8 3.9 19.1 14.3 22.5 26.7 3.1 11.5-1.1 23.9 4.2 35 4.4 9.3 6.3 18.8 5.6 29-.2 1-.6 2.2-.8 3.4z" fill="#86fe77"/><path d="M271.6 280v1.5l-5.2-6.3c-8-10.5-18.4-7.5-28.6-5-20.3 5-36.7-.4-48.6-18.1-.4-.6-1.1-1-1.7-1.4-3.3-6.1-6.4-12.3-5.1-19.5 2.6-13.4 12.1-18 23.9-10.6 9.3 5.9 19.2 7.1 29.4 5.9 10.5-1.2 20.2.3 29 5.9 10.6 6.8 22.6 10.5 33.4 16.6 2.3 1.3 5.1 2.3 5.7 5.4l-15-8.3c-.5-.3-1-.5-1.5-.8l-24.9-12.5c-8.7-4.6-17.7-6.9-27.6-4.7-11.7 1.2-22.3-1.7-32.4-7.6-4.6-2.7-9.6-2.5-13.4 1.4-4.3 4.6-6.7 10.1-4.4 16.6 1.6 14.1 24.7 37 48 31.1 14.8-3.5 29.9-8.2 39 10.4z" fill="#58fea5"/><path d="M288.8 246.2l15 8.3 5.3 6c4.8 8.5 5.1 16.7-1.4 24.6-1.1 1.3-2 2.6-3.9 2.4.6-1 1.1-2.2 1.9-3.1 8.3-9.9 4.7-25.2-7.2-30.7-1.2-.8-2.3-1.9-3.6-2.5-11.5-5.6-24.5-7.7-35.1-15.3-6.3-4.6-13.9-6.9-21.1-5.8-12.6 1.9-24 .7-35.4-5-9-4.5-16.7 1-16.4 11.1.2 8.3 5.3 14.3 10.9 19.7 11.3 10.8 24.6 15.1 40 11.4a11.94 11.94 0 0 1-1.6.8c-18.1 4.8-40.1-5.5-47.9-22.6-3.2-7-4.4-14.5 1.7-20.5 5.8-5.7 12.4-2.2 17.9 1 8.5 4.9 17.7 4.7 26.6 3.6 11-1.3 20.3 1.8 29.4 7.2 7.8 4.4 15.5 9 24.9 9.4h0z" fill="#71fe8d"/><path d="M237.8 267.2c-15.5 3.6-28.7-.7-40-11.4-5.7-5.4-10.7-11.3-10.9-19.7-.3-10.1 7.4-15.6 16.4-11.1 11.4 5.7 22.9 6.9 35.4 5 7.3-1.1 14.8 1.3 21.1 5.8 10.6 7.7 23.6 9.8 35.1 15.3 1.3.6 2.4 1.7 3.6 2.5-12.9-6.7-28.2-7.2-40.1-16.6-6.7-5.2-15.1-6.8-23.4-5.8-10.7 1.3-20.8.9-30.5-4.1-4.7-2.4-9.6-3.3-13.3 1.1-3.6 4.3-4 9.6-1.1 14.7 9.4 16.6 29.4 30.6 54.6 20.9 13.3-5.1 16.1-3.8 24.6 7.4 3.4 4.4 5.9 9.5 10.2 13.3 6.4 5.6 16.1 6.5 22.8 1.6 6.9-5 8.7-13.8 5-21.9-2-4.4-6.2-6.8-8.8-10.6 11.9 5.5 15.5 20.8 7.2 30.7-.8.9-1.3 2-1.9 3.1l-1.5 1.5h-1.5c-4.4 1.2-8.9 1.9-13.5 1.5-1.5-.2-3-.5-4.5-.7-4.3-1.8-7.6-4.8-9.8-9-5.1-8.5-9.4-18.2-22-16.4-4.4.6-8.8 1.9-13.2 2.9h0z" fill="#79fe85"/><g fill="#68fe95"><path d="M300.8 289h1.5v.7l-3 .8 1.5-1.5zm-63-21.8c4.4-1 8.8-2.3 13.3-2.9 12.6-1.7 16.9 8 22 16.4-.5-.3-1-.5-1.5-.8-9-18.6-24.2-13.8-39-10.1-23.3 5.8-46.5-17-48-31.1 0-17.3 8.6-22.4 23.6-14.1 8.4 4.7 17.4 5.5 26.7 3.6 12.2-.9 23.1 2.5 33.4 9.3 5.7 3.8 12.2 6.7 19.2 7.9.5.3 1 .5 1.5.8-9.4-.4-17.1-5-24.9-9.6-9.1-5.4-18.4-8.5-29.4-7.2-8.9 1-18.1 1.3-26.6-3.6-5.6-3.2-12.1-6.6-17.9-1-6.2 6-4.9 13.5-1.7 20.5 7.8 17.1 29.8 27.4 47.9 22.6.3-.1.9-.4 1.4-.7h0z"/><path d="M282.8 289.7l4.5.7c4 1.7 8 .5 12 0-5.7 3.7-11.1 2.5-16.5-.7z"/></g><path d="M21.7 332.3c.3-7.9 4.7-17.7 9.1-27.5 4.1-9 5.6-18.3 5.1-28-.5-10.9 2.8-20.1 11.2-27.2 6.5-5.4 9.8-13.1 14.3-20 4.1-6.4 9.8-10.7 17.1-7.6 7.7 3.3 10.8 11.5 8.6 18.9-4.2 14.5-2.1 26.6 6.8 38.8 8.4 11.6 5.6 24.5.4 37.1-9.8 23.8-27.6 36-52.8 38.6-11.7 1.3-19.8-6.6-19.8-23.1h0zm15-37.3l-1.5 4.5c-2.5 5.8-4.9 11.7-7.6 17.4-3.5 7.5-4.5 15.3-3.5 23.3 1.3 10.7 12.8 15.3 27.8 12.2 26-5.4 44.9-30.4 44.9-58.2 1.2-1.5.9-3.1.3-4.6-1.6-3.7-2.6-8.2-5.4-11-11.6-11.8-10.6-25.2-6.9-39.6 1.5-5.9-1.2-11.4-6.5-14.2-5.5-2.9-10.7-.2-13.6 4.5-6.5 10.5-14.1 20-22 29.5-8.7 10.4-2.6 24.3-6 36.2h0z" fill="#7cfe81"/><g fill="#95fe68"><path d="M81.7 152.4c-16.5-17.2-15.5-44.2 2.3-59.3l-9.1 14.4c-8.8 14.4-3.4 27.3 4.4 39.8 1 1.7 1.7 3.4 2.4 5.1z"/><path d="M111.7 179.4c-15.1-3.4-23.9-13.7-30-27l10 13.3c5.2 6.8 12.7 10.1 20 13.7z"/></g><path d="M150.8 105.1c-2.7 9.9 4.1 19.3 8 29.6 5.4 14.3 2.9 28.1-8.5 38.4-11.9 10.9-26.2 9-39.3 2.3-20.4-10.3-31.9-28.4-37.2-49.9-2.5-10.1 4.4-18.6 10-26.5 8.2-11.6 16-23.6 29.3-30.2 18.3-9.2 37.2 2.3 37.6 23 .1 3.7.1 7.5.1 13.3h0zm-2.3-6.6c0-13-2.9-22.6-13-27.8-9.9-5.1-19.1-2-27.7 4.1-11 7.9-18 19.2-25.2 30.2-4.9 7.5-9.1 15.5-5.8 24.9 6.3 17.7 17 32.3 32.5 42.6 13.8 9.2 29.7 8.4 40.2-.5 9.6-8.1 13.3-25.1 6.5-38.2-6.2-12.1-10.8-23.9-7.5-35.3h0z" fill="#d3fd2a"/><path d="M234.8 228.2c-9.3 1.9-18.3 1-26.7-3.6-15-8.3-23.6-3.2-23.6 14.1-2.3-6.6.1-12.1 4.4-16.6 3.8-4 8.9-4.1 13.4-1.4 10.2 5.8 20.8 8.7 32.5 7.5zm52.5 17.3c-7-1.2-13.4-4.1-19.2-7.9-10.2-6.8-21.1-10.2-33.4-9.3 9.8-2.2 18.9.1 27.6 4.7l25 12.5h0z" fill="#5ffe9f"/><path d="M298.6 253.7c2.6 3.8 6.8 6.2 8.8 10.6 3.7 8.2 1.9 16.9-5 21.9-6.6 4.8-16.4 4-22.8-1.6-4.3-3.8-6.8-8.8-10.2-13.3-8.6-11.3-11.4-12.5-24.6-7.4-25.2 9.7-45.2-4.3-54.6-20.9-2.9-5.1-2.6-10.4 1.1-14.7 3.7-4.4 8.7-3.5 13.3-1.1 9.7 5 19.9 5.4 30.5 4.1 8.3-1 16.7.6 23.4 5.8 11.9 9.4 27.2 9.9 40.1 16.6zm-107.3-15c.1.4.4 2.3 1.3 3.9 5.8 10.1 14.7 16.8 25.5 20.8 11 4.1 21.2.3 31.5-3.5 11.1-4.1 14.4-2.5 20.1 8 2.9 5.3 5.5 10.7 10.2 14.7 6.3 5.4 13.4 7.6 20.7 2.4 6.9-4.9 9.1-11.7 5.2-19.6-5.5-11.2-15.9-14.3-27-16.2-5.9-1-12.2-.7-17-5.6-6.9-7.1-15.4-10.8-25.2-10.1-11.8.9-23.2 1-34.4-4.1-6.1-2.8-10.9 1.3-10.9 9.3h0z" fill="#88fe75"/><path d="M299.3 290.5c-4 .6-8 1.7-12 0 4.6.4 9.1-.3 13.5-1.5l-1.5 1.5z" fill="#71fe8d"/><path d="M96.8 294.2c0 27.7-18.9 52.8-44.9 58.2-14.9 3.1-26.4-1.5-27.8-12.2-1-8 .1-15.9 3.5-23.3 2.7-5.8 5.1-11.6 7.6-17.4 3.5-2 3-5.7 3.7-8.8 2.3-9.7-2.2-20.8 4.7-29.4 8-10 16.9-19.2 23-30.6 1.6-3 5.6-5.3 9.8-3.5 4.1 1.8 5.7 5.3 6.1 9.6.4 4.7-1 9.1-2.4 13.5-2.3 6.7-1.4 12.9 3.2 18.5.8 1.1 1.5 2.3 2.3 3.4 5 6.6 10.7 12.9 11.2 22h0zm-3.1 13.5C98 299.3 96 287 88.5 279c-10.1-10.8-18.2-21.6-10.1-37.5 1.5-2.8 1.4-7.9-3.2-9.5-4.8-1.7-7 2.2-8.9 5.5-2.9 5.1-4.5 11.1-9.7 14.4-10.7 7-16 16.3-14.7 29.3.8 7.5-1.1 14.5-4.8 21.2-4.3 7.7-8.2 15.7-10.5 24.3-3.2 12 1.6 22.6 11.5 24.3 6.7 1.2 13.4.3 19.6-2.7 5.2-1.3 9.8-4.2 14.2-7.1 11.9-8.2 16.3-21.2 21.8-33.5h0z" fill="#96fe67"/><path d="M96.8 294.2c-.4-9.1-6.2-15.4-11.3-22.1-.8-1.1-1.5-2.2-2.3-3.4-5.3-9.6-1.3-19 .3-28.6 1-6.1-.3-11.7-6.7-14.2-5.7-2.2-9.8 1.2-12.4 5.6-5.5 9.3-11.4 18.2-19.4 25.8-4.4 4.2-6.4 10.2-6.2 16.7.2 7 .6 14.2-2.2 20.9 3.4-11.9-2.7-25.8 6-36.1 7.9-9.5 15.5-19 22-29.5 2.9-4.7 8.1-7.4 13.6-4.5 5.4 2.8 8.1 8.4 6.5 14.2-3.8 14.4-4.7 27.8 6.9 39.6 2.7 2.8 3.7 7.2 5.4 11 .7 1.5 1 3.2-.2 4.6z" fill="#88fe75"/><path d="M36.7 295c2.8-6.7 2.4-13.9 2.2-20.9-.2-6.5 1.8-12.6 6.2-16.7 8-7.6 13.8-16.5 19.4-25.8 2.6-4.4 6.8-7.8 12.4-5.6 6.4 2.5 7.7 8.1 6.7 14.2-1.6 9.5-5.6 19-.3 28.6-4.6-5.5-5.4-11.8-3.2-18.5 1.5-4.4 2.8-8.8 2.4-13.5-.4-4.3-2-7.8-6.1-9.6-4.2-1.8-8.2.5-9.8 3.5-6.1 11.5-15 20.7-23 30.6-6.9 8.6-2.4 19.7-4.7 29.4-.7 3.1-.1 6.9-3.7 8.8l1.5-4.5z" fill="#8afe73"/><path d="M148.5 98.5c-3.3 11.4 1.3 23.1 7.6 35.2 6.8 13.1 3.1 30.1-6.5 38.2-10.4 8.9-26.4 9.7-40.2.5-15.6-10.3-26.3-24.9-32.5-42.6-3.3-9.4.9-17.4 5.8-24.9 7.2-11 14.2-22.3 25.2-30.2 8.5-6.1 17.8-9.2 27.7-4.1 10.1 5.3 12.9 14.9 12.9 27.9h0zm-4.4.8c-.2-11-2.2-19.3-11.3-23.8-9.2-4.5-17.3-1.2-24.7 4.4-9.6 7.2-15.5 17.4-22 27.1-8.2 12.1-7 24 1.2 35.7 6.2 8.8 13.2 16.8 21.1 24 10.5 9.7 27.5 11.5 37.6 4.1 10.6-7.8 14-23.6 6.2-36.7-6.8-11.5-11.8-22.9-8.1-34.8z" fill="#f6ec07"/><path d="M191.3 238.7c0-8 4.8-12.1 11-9.3 11.2 5.1 22.6 5 34.4 4.1 9.8-.7 18.3 3 25.2 10.1 4.7 4.8 11 4.6 17 5.6 11.1 1.8 21.5 5 27 16.2 3.9 7.9 1.6 14.7-5.2 19.6-7.3 5.2-14.4 3-20.7-2.4-4.6-4-7.3-9.4-10.2-14.7-5.7-10.4-9-12-20.1-8-10.3 3.8-20.6 7.5-31.5 3.5-10.8-4-19.6-10.6-25.5-20.8-1-1.5-1.3-3.4-1.4-3.9h0zm36.3 24.2c10-.4 17.7-3.8 24.8-8.6 4.2-2.8 5.2-6.5 1.7-10.7-6.1-7.3-14.4-8.3-23-7.6s-17.2 2.4-25.7-1.4c-2.4-1.1-5.8-1.6-8.1.8-2.1 2.2-1.4 5.2.2 7.3 8 10.5 17.5 18.8 30.1 20.2h0zm51.9-10.7c-9 0-11.4 3.3-8.6 11.8 1.9 5.9 4.6 11.4 8.8 15.9 4.3 4.7 9.8 7.5 16.4 5.2 6.2-2.2 9.5-6.7 9.3-13.7-.3-10.3-12.1-19.2-25.9-19.2h0z" fill="#9afe63"/><path d="M93.7 307.7c-5.5 12.3-9.9 25.3-21.8 33.4-4.4 3-8.9 5.8-14.2 7.1-1.8.3-3.7.4-5.5.9-16.4 4.9-27-3.4-25.2-20.1.9-7.6 4.3-14.7 8.5-21 6.4-9.9 8.7-20.3 8.1-32-.4-7.1 2.6-13.3 8.8-17.6 6.6-4.6 14-8.5 16.4-17.1.6-2.2 1.4-5.6 4.2-4.6 2.7 1 1.7 4.6.6 6.6-5.4 10.2-1.7 18.7 5 26.1 10 11.1 20.3 21.5 15.1 38.3h0zm-31.5 36.8c8.4-3.3 15.2-8.4 19.5-16.5 9.4-13.6 20-34 3.1-49.3-6.7-6-12.8-12.5-17.6-20.2-1.1-1.8-3.3-2.1-5.4-1.8-8.5 1.4-16 10.5-16.2 19.2-.2 6.6 1.1 13.2-1.8 19.6-4.6 10.2-11.8 19.1-14.9 30.1-3.2 11.5.4 21 10.1 22.9 8.2 1.6 16-.1 23.2-4h0z" fill="#affe4f"/><path d="M93.7 307.7c5.1-16.8-5.2-27.2-15.1-38.2-6.7-7.4-10.4-16-5-26.1 1.1-2 2-5.6-.6-6.6-2.8-1.1-3.6 2.4-4.2 4.6-2.4 8.7-9.8 12.5-16.4 17.1-6.2 4.3-9.1 10.5-8.8 17.6.6 11.6-1.7 22.1-8.1 32-4.1 6.4-7.6 13.4-8.5 21-1.9 16.7 8.7 24.9 25.2 20.1 1.8-.5 3.6-.6 5.5-.9-6.3 3-13 3.8-19.6 2.7-9.9-1.7-14.8-12.3-11.5-24.3 2.3-8.6 6.2-16.5 10.5-24.3 3.7-6.6 5.6-13.7 4.8-21.2-1.3-13 4-22.3 14.7-29.3 5.2-3.4 6.8-9.4 9.7-14.4 1.9-3.3 4.1-7.2 8.9-5.5 4.7 1.6 4.7 6.7 3.2 9.5-8.1 15.8 0 26.7 10.1 37.5 7.6 8.1 9.5 20.3 5.2 28.7h0z" fill="#acfe51"/><path d="M144.1 99.3c-3.7 11.8 1.2 23.2 8.1 34.8 7.8 13.1 4.4 28.9-6.2 36.7-10.1 7.4-27 5.6-37.6-4.1-7.9-7.3-15-15.2-21.1-24-8.2-11.7-9.4-23.6-1.2-35.7 6.6-9.6 12.5-19.9 22-27.1 7.4-5.5 15.5-8.9 24.7-4.4s11.2 12.8 11.3 23.8h0zm-59.6 26.3c.2 1 .2 3.8 1.2 6.1 6.8 15.3 17.6 27.4 31.2 36.8 8 5.4 17.1 6.5 25.8 1.2 12-7.4 15.1-23.5 6.1-35.8-7.8-10.7-12.2-21.4-8.9-35 1.6-6.9-1.3-14.1-7.7-18.3-5.8-3.8-12.1-3-18.1.2-5.6 2.9-10 7.1-13.5 12.1-6.8 9.5-16.1 17.9-16.1 32.7h0z" fill="#feba00"/><path d="M227.6 262.9c-12.6-1.4-22.1-9.7-30.1-20.1-1.6-2.1-2.3-5.1-.2-7.3 2.2-2.4 5.6-1.9 8.1-.8 8.5 3.8 17.1 2.1 25.7 1.4 8.7-.7 16.9.2 23 7.6 3.5 4.2 2.5 7.9-1.7 10.7-7.1 4.7-14.8 8.1-24.8 8.5h0zm5.4-23.5c-7.9-.6-15.2 2.7-22.7 3.9-1.1.2-1.7.8-1.2 2.2 3 7.7 13.4 14.5 21.7 14.2 8.3-.4 18.5-6.7 17.7-11.6-1.5-8.8-9-8.3-15.5-8.7h0z" fill="#b3fe4b"/><path d="M279.5 252.2c13.8 0 25.6 8.9 25.9 19.2.2 7-3.1 11.5-9.3 13.7-6.6 2.4-12.1-.5-16.4-5.2-4.2-4.5-6.9-10-8.8-15.9-2.8-8.5-.4-11.8 8.6-11.8h0zm3.8 3.7c-3.8.3-8.2.8-8.1 7.5.3 9.8 8.3 19.6 16.6 19.5 7-.2 10.6-4.6 11-10.9.7-7.9-9.2-16-19.5-16.1z" fill="#acfe52"/><g fill="#c7fe36"><path d="M62.2 344.5c-7.2 3.9-15.1 5.6-23 4.1-9.7-1.9-13.4-11.4-10.1-22.9 3.1-11 10.3-19.9 14.9-30.1 2.8-6.3 1.6-13 1.8-19.6.2-8.7 7.7-17.8 16.2-19.2 2.1-.4 4.3 0 5.4 1.8 4.8 7.7 10.9 14.2 17.6 20.2 16.9 15.2 6.3 35.7-3.1 49.3.2-1 .5-2 .7-3l8.2-17.3c4-8.4 2.4-16.2-2.8-23.4-5.8-7.9-14.1-13.3-21.2-19.9-5.4-5-12.8-2.5-16.5 4.1-3.8 6.9-1.2 14.5-2.6 21.7-2.2 11.3-11.4 18.9-15.3 29.3-3 8-6.2 16.6.4 24 4.9 5.5 12 5.8 18.9 3.3a198.37 198.37 0 0 1 10.5-2.4h0z"/><path d="M82.5 325l-.7 3c-4.3 8.1-11.1 13.2-19.5 16.5l-10.5 2.2c12.9-3.4 23.5-10.1 30.7-21.7z"/></g><path d="M84.5 125.6c-.1-14.8 9.3-23.2 16.1-32.8 3.5-5 8-9.2 13.5-12.1 6.1-3.2 12.4-4 18.1-.2 6.4 4.2 9.3 11.4 7.7 18.3-3.2 13.6 1.1 24.3 8.9 35 9 12.3 5.9 28.4-6.1 35.8-8.6 5.3-17.8 4.2-25.8-1.2-13.7-9.3-24.4-21.5-31.2-36.8-1-2.2-1-5-1.2-6zm52.3-25.4c-.8-7-1.6-13-7.3-16-5.9-3.2-11.9-2.1-17.2 1.9-8.6 6.3-14.3 15.2-20.2 23.8-6.3 9.3-6.2 20.2.6 28.9 6.3 8 13 15.8 20 23.1 9.3 9.7 22.7 11.2 31.4 4.1 8.6-7 10.3-20.3 2.6-30.9-8-11-15.9-21.4-9.9-34.9h0z" fill="#fe8000"/><path d="M233 239.4c6.6.4 14-.2 15.5 8.7.8 4.9-9.4 11.3-17.7 11.6-8.3.4-18.8-6.5-21.7-14.2-.5-1.4.1-2 1.2-2.2 7.5-1.2 14.7-4.5 22.7-3.9zm-1.2 3.7c-4.5.2-10.1-.1-10.3 6.4-.2 5.6 4.7 6.2 9.1 6.3 5.3.1 10.4-1.3 10.7-7.3.2-5.6-5.1-5.2-9.5-5.4h0zm51.5 12.8c10.3 0 20.2 8.2 19.6 16.1-.5 6.3-4.1 10.7-11 10.9-8.3.2-16.4-9.6-16.6-19.5-.2-6.7 4.2-7.1 8-7.5zm14.6 15.3c-.6-6.3-5-9.2-10.7-9.8-3.8-.4-6.2 2.5-5.8 6.2.6 5.3 3.2 9.5 9.2 10 4.5.5 6.9-1.7 7.3-6.4h0z" fill="#c8fe35"/><path d="M82.5 325c-7.1 11.7-17.8 18.4-30.8 21.8-16.5 0-23-4.7-21.6-16.1.7-6.1 3.1-11.8 6.5-17 6.5-10 15.1-19.2 13.3-32.7-.3-2.4.5-5 1.2-7.3 1.9-6.2 6.3-9.6 12.5-7.1 20.3 8.4 27.8 20.2 27.2 41.2L82.5 325zm6.7-25.9c0-12.2-14.3-24.9-26.7-23.7-2.8.3-4.2 1.8-4.9 4.4-2.2 9.1-3.7 18.4-10.7 25.4-4.1 4.1-7.8 8.5-10.3 13.6-3.1 6.3-5.8 13.1-1.8 19.9 3 5 8.2 6.1 13.8 5.7 24.5-2.1 37.4-25.3 40.6-45.3z" fill="#dbfe22"/><path d="M90.7 307.7c.6-21-6.9-32.8-27.2-41.2-6.2-2.6-10.6.8-12.5 7.1-.7 2.4-1.5 5-1.2 7.3 1.8 13.5-6.8 22.6-13.3 32.7-3.4 5.2-5.8 10.9-6.5 17-1.3 11.5 5.1 16.2 21.6 16.1-6.9 2.5-14 2.2-18.9-3.3-6.7-7.4-3.5-15.9-.4-24 3.9-10.4 13.1-18 15.3-29.3 1.4-7.1-1.2-14.7 2.6-21.7 3.7-6.7 11-9.2 16.5-4.1 7.1 6.5 15.4 11.9 21.2 19.9 5.2 7.3 6.8 15.1 2.8 23.5z" fill="#c7fe36"/><path d="M136.8 100.2c-6 13.5 1.9 23.9 10 35 7.8 10.6 6 23.9-2.6 30.9-8.7 7.1-22.1 5.6-31.4-4.1-7-7.4-13.7-15.1-20-23.1-6.9-8.7-6.9-19.6-.6-28.9 5.9-8.7 11.6-17.5 20.2-23.8 5.4-3.9 11.4-5.1 17.2-1.9 5.6 2.9 6.4 8.9 7.2 15.9h0zm-5.1 68c7.4.6 12.8-3.5 16.2-10.2 3.8-7.5 2.6-15.3-2.5-21.5-8.8-10.7-15.7-20.8-12.4-36.3 2.4-11.4-8.1-17.1-18.7-11.6-5.4 2.8-8.8 7.6-12.6 12.1-13.3 15.4-15.1 25.2-6.4 37.4 4.5 6.3 9.4 12.2 14.5 18 5.7 6.2 11.6 12.4 21.9 12.1z" fill="#fe5b00"/><path d="M231.8 243.1c4.5.1 9.8-.2 9.5 5.5-.2 6-5.4 7.4-10.7 7.3-4.4-.1-9.3-.7-9.1-6.3.2-6.5 5.8-6.3 10.3-6.5h0z" fill="#dafe23"/><path d="M297.9 271.2c-.4 4.7-2.9 6.8-7.2 6.4-6-.5-8.6-4.7-9.2-10-.4-3.7 2-6.7 5.8-6.2 5.6.7 10 3.6 10.6 9.8h0z" fill="#e6fe17"/><path d="M89.2 299.1c-3.3 19.9-16.1 43.2-40.7 45.3-5.5.5-10.8-.7-13.8-5.7-4-6.8-1.4-13.6 1.8-19.9 2.6-5.2 6.2-9.6 10.3-13.6 7-7 8.6-16.3 10.7-25.4.6-2.6 2.1-4.1 4.9-4.4 12.5-1.2 26.9 11.5 26.8 23.7zm-51 27.9c0 10.4 6.3 14.6 14.8 12.7 19-4.3 25.5-19.6 30.8-35.6 2.4-7.2.7-13.9-7.4-16.7-8.1-2.7-11.4 3.2-14.3 9.2-2.2 4.7-5.6 8.3-9.6 11.7-6.9 5.7-13.9 11.5-14.3 18.7h0z" fill="#faf404"/><path d="M131.7 168.2c-10.2.3-16.2-5.9-21.9-12.2-5.1-5.7-10.1-11.7-14.5-18-8.7-12.2-6.8-21.9 6.4-37.4 3.8-4.4 7.2-9.3 12.6-12.1 10.6-5.4 21.2.2 18.7 11.6-3.3 15.6 3.6 25.6 12.4 36.3 5.1 6.2 6.3 13.9 2.5 21.5-3.4 6.8-8.8 10.9-16.2 10.3zm-1.2-60.1c0-3-.1-4.4 0-5.7.3-5.1 0-10.2-5.1-12.7-5.4-2.7-10 0-14.3 3.5-7 5.7-12.2 12.8-16.6 20.5-3.8 6.7-4.2 14.6.3 21 6.5 9.1 13.6 17.9 21.2 26 7.8 8.3 19.6 8.8 26.6 2.4 7.6-7 8.1-18.2.6-27.3-6.9-8.7-15.3-16.5-12.7-27.7z" fill="#fe3a00"/><path d="M38.2 327c.4-7.2 7.4-13 14.3-18.7 4-3.3 7.4-6.9 9.6-11.7 2.8-6 6.2-11.9 14.3-9.2s9.9 9.4 7.4 16.7c-5.3 16-11.8 31.3-30.8 35.6-8.4 1.9-14.8-2.3-14.8-12.7h0zm43.5-26.5c.8-4.9-1.4-8.2-5.9-9.5-3.9-1.1-6.9 1.4-8.4 4.6-4.1 8.4-11.2 13.7-18.4 19.1-3.8 2.9-6.7 6.7-8 11.4-1.9 6.5 1.7 11.3 8.6 11.6 17.4 1 29.3-21.2 32.1-37.2z" fill="#fddd01"/><path d="M130.5 108.1c-2.6 11.2 5.8 19 12.9 27.6 7.5 9.1 7 20.2-.6 27.3-7 6.5-18.8 5.9-26.6-2.4-7.7-8.1-14.8-16.9-21.2-26-4.6-6.4-4.2-14.3-.3-21 4.4-7.6 9.6-14.8 16.6-20.5 4.3-3.5 8.8-6.2 14.3-3.5 5.1 2.5 5.4 7.6 5.1 12.7-.3 1.5-.2 2.8-.2 5.8h0zm-36 16.9c-.6 3.2.3 6.9 2.6 10 6 7.8 11.8 15.7 18.4 23 8.1 8.8 18.5 10.5 25.3 4.9 8.2-6.9 9.5-17.3.7-26.7-9.4-10-14.7-20.3-13.5-34.3.5-6.1-3.1-11.2-10.7-9-9.6 2.7-22.8 21.3-22.8 32.1h0z" fill="#fe3000"/><path d="M81.7 300.5c-2.8 16-14.7 38.2-32.2 37.2-6.8-.4-10.5-5.1-8.6-11.6 1.4-4.7 4.2-8.6 8-11.4 7.2-5.4 14.2-10.8 18.4-19.1 1.6-3.2 4.5-5.7 8.4-4.6 4.6 1.3 6.8 4.7 6 9.5zm-4.5 2.7c0-1.7-.5-3.2-2.1-4.1-1.5-.8-3.2-.3-3.7.8-5.3 9.4-15.8 12.6-23.2 19.5-3.3 3.1-6.6 7.3-3.9 12.2 2.7 4.7 7.4 4.1 12 2.7 9.1-2.8 20.9-20.3 20.9-31.1z" fill="#fed600"/><path d="M94.5 125c0-10.7 13.2-29.4 22.7-32.2 7.6-2.2 11.2 2.9 10.7 9-1.2 14 4.1 24.3 13.5 34.3 8.8 9.4 7.6 19.8-.7 26.7-6.7 5.6-17.2 4-25.3-4.9-6.6-7.2-12.4-15.2-18.4-23-2.3-3-3.1-6.7-2.5-9.9h0zm37.3 37.2c5.4.2 8.9-2.6 11-7.4 2.7-6.3 1-12.3-3.6-16.4-9.5-8.4-17.6-17.2-19.3-30.4-.3-2.3-2.2-3.7-4.6-3.6-9.9.7-19.9 17.3-14.7 25.6 5.9 9.6 13 18.5 19.9 27.4 2.5 3.5 6.7 5 11.3 4.8h0z" fill="#f50900"/><path d="M77.2 303.2c0 10.7-11.8 28.3-20.9 31.1-4.6 1.4-9.3 2-12-2.7-2.8-4.9.5-9.1 3.9-12.2 7.4-6.9 17.8-10.1 23.2-19.5.6-1 2.2-1.6 3.7-.8 1.7 1 2.1 2.4 2.1 4.1z" fill="#febf00"/><path d="M131.8 162.2c-4.5.1-8.7-1.3-11.4-4.7-7-8.9-14-17.8-19.9-27.4-5.1-8.3 4.9-25 14.7-25.6 2.4-.2 4.3 1.2 4.6 3.6 1.8 13.2 9.9 22 19.3 30.4 4.7 4.1 6.4 10.1 3.6 16.4-2 4.7-5.5 7.5-10.9 7.3h0zm-1.7-1.5c5.8 0 9.5-2 11.4-6.5 2.3-5.6.7-10.9-3.5-14.7-8.2-7.6-17.2-14.3-20.7-25.8-.7-2.4-3.3-3.9-6.5-2.6-6.8 2.6-11.4 11.2-8.1 17.6 3.6 7 8.6 13.3 12.8 20.1 3.7 5.9 7.9 11.1 14.6 11.9z" fill="#ce0100"/><path d="M130.1 160.7c-6.7-.7-10.9-6-14.6-12-4.2-6.7-9.2-13-12.8-20.1-3.3-6.4 1.3-15 8.1-17.6 3.2-1.2 5.8.3 6.5 2.6 3.5 11.5 12.5 18.2 20.7 25.8 4.1 3.8 5.8 9.1 3.5 14.7-1.9 4.5-5.6 6.6-11.4 6.6zm-18-44.3c-5.9 0-9.1 7.7-6 13.3 4.2 7.5 8.6 14.8 13.3 22 3 4.6 7.2 7.8 13 7.3 3.7-.4 6.7-2.3 7.9-6.4 1.8-6-1-10.3-5.1-13.8-7.5-6.2-16.2-11.2-20.3-20.8-.3-.9-2.2-1.3-2.8-1.6h0z" fill="#c00"/><path d="M112.1 116.4c.6.3 2.5.7 2.9 1.6 4 9.7 12.7 14.6 20.3 20.8 4.2 3.5 6.9 7.8 5.1 13.8-1.2 4-4.2 6-7.9 6.4-5.8.5-10.1-2.7-13-7.3-4.7-7.2-9.1-14.6-13.3-22-3.2-5.6 0-13.3 5.9-13.3zm25.2 32.7c-1-7.2-6.2-9.7-12.5-10.8-3-.5-5 1.7-4.6 4.1 1 6.1 3.3 11.9 10.4 12.9 3.9.5 6.1-2.4 6.7-6.2h0z" fill="#a90000"/><path d="M137.3 149.1c-.6 3.8-2.8 6.7-6.6 6.2-7.1-1-9.5-6.8-10.4-12.9-.4-2.4 1.6-4.7 4.6-4.1 6.2 1 11.3 3.6 12.4 10.8z" fill="#830000"/><path d="M840.5 173.8c0 31.9-3 56.4-12.7 79.6-15.9 38.2-44.7 59.3-85.6 64.2-19.5 2.3-39 1.5-57.9-4.3-31.1-9.6-51-30.7-61.7-61.1-5.7-16.4-8.4-33.4-9.3-50.7-1.5-26.1 0-52 8.1-77.1 10.1-31.7 29.5-55.3 61.1-67.7 19.7-7.7 40.4-9 61.3-7.3 18.2 1.5 35.3 6.6 50.6 16.9 19.8 13.5 31.6 32.7 38.4 55.2 5.8 19.3 7.8 39.1 7.7 52.3h0zm-201.3 13.8c.6 16.9 2 33.7 6.8 50 6.2 21.2 17.4 38.7 37.6 49.2 14.4 7.5 29.9 9.3 45.9 8.9 34.9-.8 59.5-17.2 73.6-49.1 7.1-16 9.7-33 10.7-50.3 1.4-22.6 0-45-6.4-66.8-6.9-23.2-19.8-41.8-42.7-51.6-17.8-7.6-36.5-8.4-55.3-5.2-29.6 4.9-49 22.9-60 50.2-8.6 20.7-10.3 42.6-10.2 64.7h0zm1009.4-21.5l-14.5 52.7-24.7 90c-1.4 5.1-3 6.7-8.3 7.1-5.8.4-11.7.2-17.6 0-4.6-.1-7.3-2.5-8.8-7.2l-56-177.6c-2-6.3-.8-8.4 5.7-9 4-.3 8 0 12 .1 4.3 0 6.4 2.3 7.6 6.3l18.8 62.4 28.1 92.9c.4 1.3.9 2.6 1.6 4.6.7-2.2 1.3-3.7 1.7-5.2l42.2-153.6c1.7-6.2 2.6-7 8.9-7.7.6-.1 1.2-.1 1.9-.2 12.2-.8 13.7.3 17.1 11.9l44.5 150.2c.3 1.2.8 2.3 1.5 4.2.6-1.8 1-2.9 1.4-4l46.4-153.9c2.1-6.9 2.7-7.5 9.7-8.2a49.2 49.2 0 0 1 9.4 0c5.8.5 7.1 2.2 5.7 7.8-1.6 6-3.5 12-5.4 17.9l-50.9 160c-2.2 7-3.3 8-10.5 8.4-5 .3-10 .2-15-.2-6.3-.4-7.9-1.9-9.7-7.9l-40.7-138.4c-.3-1.2-.8-2.3-1.2-3.5-.4.1-.7.1-.9.1h0zM483.5 287.8l13.8-40.3 64.8-189.3c2-5.9 3.2-6.8 9.4-7.1 3.9-.2 7.8-.2 11.6.1 5.9.4 7.3 2.5 5.3 8.1l-13.8 38.4-75.5 210.2c-1.9 5.4-5.3 8-10.7 8.1-4.6.1-9.2.2-13.8-.1-4.5-.3-7.4-2.5-9-7.1L376.5 60.9c-.4-1.2-.9-2.4-1.1-3.6-.6-2.9.3-5.4 3.4-5.6 6.2-.3 12.5-.5 18.6.3 1.9.2 4 3.5 4.9 5.9l26.3 74.2L482 283.3c.2 1.2.7 2.4 1.5 4.5h0zm460.9 30.9c-19.6-.3-39.1-4.9-57.3-14.6-11-5.9-13.6-11-12.3-23.4.7-7.3 4.2-9 10.7-5.5 9.7 5.1 19.2 10.9 29.4 14.8 19.5 7.5 39.5 8.7 59.4 1.3 29.1-10.8 33.8-38.6 28.7-57.6-2.6-9.4-8.5-16.8-16.2-22.4-7.1-5.2-14.8-9.8-22.6-13.9-13.7-7.2-27.8-13.8-41.5-20.9-8.9-4.6-16.7-10.9-23.8-18.1-27.4-27.9-25.2-91.4 31.7-106.3 26.1-6.8 51.1-3.4 74.9 8.9 10.2 5.2 13.5 14.3 9.7 25.2-1.3 3.9-3.2 4.8-6.8 3.1-2.5-1.2-4.8-2.7-7.1-4.1-16.4-10.1-34-15.4-53.5-13.9-19.1 1.5-34.1 12-38.7 28.6-4.2 15-1.6 28.7 8.9 40.6 7.1 8 15.9 13.7 25.3 18.5l47 23.4c10.2 5.2 19 12.4 26.5 21.1 23.4 27.1 18.8 82.6-23.2 104.3-15.2 7.7-31.3 10.8-49.2 10.9h0zm408.2-96.3c.3 17.4 1.8 33.7 10.3 48.5 8.9 15.3 22.8 23.1 39.9 25.5 22.9 3.2 44.8-.9 65.8-10.3 2.2-1 4.4-1.9 6.6-2.6 3.3-1 5.6.1 6.3 3.3 2.1 10.2 1 16.2-8.5 20-28.8 11.5-58.3 15.9-88.7 7.7-23.5-6.3-40.2-21.2-48.8-44-12.5-33.1-12.9-66.9-.2-100.1 14-36.6 46.1-52.8 82.5-50.8 16 .9 30.7 5.3 43.4 15.5 15.7 12.6 23.5 29.6 26.4 48.9 1.2 8.1 1.5 16.4 1.7 24.6.2 9.8-3.8 13.6-13.6 13.6h-117.4c-1.6.2-3.4.2-5.7.2h0zm.4-20h111.7c-.3-4.8-.4-9.4-.9-13.9-2.4-21.1-13.6-44.3-45.8-47.7-41.1-4.5-64.2 27-65 61.6h0zm482.8 20c.3 17.8 1.8 34.7 11.1 49.8 8.9 14.6 22.6 21.9 39.1 24.2 22.9 3.3 44.8-.8 65.8-10.2 2.2-1 4.3-1.9 6.6-2.6 3.3-1 5.6.1 6.3 3.3 2.1 9.8 1.2 16.2-8.4 20-28.3 11.4-57.4 15.7-87.3 8.2-24.3-6.1-41.6-21.2-50.4-44.7-12.3-33-12.7-66.7-.1-99.7 14-36.7 46.1-52.9 82.5-50.9 16 .9 30.7 5.3 43.4 15.4 15.8 12.7 23.6 29.8 26.5 49.3 1.2 8.2 1.5 16.7 1.6 25 .2 9-4 12.9-13.2 12.9h-87.8-30.8-4.9 0zm112.4-19.9c-.7-6.8-.9-13.2-2.1-19.4-2.8-15.3-9.6-28.5-23.8-35.9-17.7-9.2-36.2-9.8-54.1-1-19.7 9.7-28.3 27.3-31.5 48.1-.4 2.6-.5 5.3-.8 8.1l112.3.1h0zm-817.1 86l2.5-6.6 53.4-152c1.8-5.1 4.6-7.8 9.9-7.8 4 0 8 0 12 .3 3.4.2 4.8 2.4 4.3 5.7-.3 2-.9 3.9-1.6 5.8l-64.9 174.5c-1.9 5.1-4.9 7.6-10.1 7.7-4.6.1-9.2.1-13.8-.2-4.3-.3-7.1-2.6-8.8-7l-65.7-176.6c-.5-1.4-1.1-2.8-1.3-4.3-.6-2.9.7-5.3 3.6-5.4 5.8-.3 11.7-.2 17.5.2 3.5.2 4.7 3.3 5.7 6.2l20.1 56.1 35.5 99.1c.4 1.1.9 2.4 1.7 4.3h0zm917.2-133.6l2.5-3.4c6.7-7.4 12.7-15.6 20.2-22 15.5-13.1 33.1-11.8 51-5.4 2.7 1 4.2 3.2 4.2 6.1.1 4 .2 8-.1 12-.4 5.2-2.5 6.5-7.5 5l-11.8-3.6c-11.2-3.1-21.2-.6-30 6.9-9.7 8.2-16.4 18.7-23.6 28.9-3.4 4.8-4.8 9.7-4.7 15.6l.1 112.9c0 6.4-1 7.7-7.4 8.2-3.9.3-8 0-11.9-.4-3.3-.3-5.1-2.4-4.9-5.9.1-.9 0-1.7 0-2.6V131c0-7.1 1.1-8.3 8.3-9h.4c12.7-1.1 14.4.5 14.4 13v19.7c.2 0 .5.1.8.2h0zm-772.5 64.6V308c0 6.2-1 7.6-7.2 8.1-4.2.3-8.5 0-12.7-.5-3-.3-4.5-2.4-4.4-5.5.1-2.7 0-5.5 0-8.2v-171c0-7 .8-8.1 7.7-8.7 3.2-.3 6.5-.2 9.7.1 5.7.6 6.8 1.9 6.8 7.6l.1 89.6zm3.6-154.2c0 12.9-4 16.8-16.9 16.5-10.5-.2-14.3-3.8-14.7-14.2-.1-2.7 0-5.5.5-8.2 1.1-7 4.1-9.8 11.1-10.5 1.1-.1 2.2-.1 3.4-.2 13-.2 16.7 3.4 16.6 16.6z" fill="#ddd"/><g fill="#1c6a83"><path d="M51.1 532.6c-.2.5-.5 1-.8 1.3-.4.3-.8.6-1.5.8-.6.2-1.4.3-2.4.4s-2.2.1-3.6.1h-2.9c-.8 0-1.5-.1-2.1-.2l-1.5-.3c-.4-.1-.8-.3-1.1-.5s-.5-.4-.7-.7-.3-.6-.5-1L2.3 444.4c-.4-1.1-.6-1.9-.6-2.6s.2-1.2.6-1.5c.5-.3 1.2-.6 2.2-.7s2.3-.1 4.1-.1l3.3.1c.8.1 1.5.2 1.9.4.5.2.8.5 1 .8s.4.7.6 1.2l27.8 79.8h.1l27.1-79.7c.1-.5.3-1 .5-1.3s.5-.6 1-.8 1.2-.3 2.1-.4 2.1-.1 3.6-.1 2.8.1 3.7.2 1.5.4 1.8.7.5.8.4 1.5-.3 1.5-.7 2.6l-31.7 88.1z"/><use xlink:href="#B"/><use xlink:href="#C"/><path d="M267.4 532.9a1.69 1.69 0 0 1-.3 1c-.2.3-.5.5-.9.7s-1 .3-1.8.4c-.7.1-1.6.1-2.7.1-1.2 0-2.1 0-2.8-.1s-1.3-.2-1.7-.4-.7-.4-.9-.7-.2-.6-.2-1v-8.7c-3.9 4.2-7.7 7.2-11.4 9.1-3.8 1.9-7.6 2.9-11.4 2.9-4.5 0-8.3-.7-11.4-2.2s-5.6-3.5-7.5-6-3.3-5.4-4.1-8.8c-.8-3.3-1.2-7.4-1.2-12.2v-40a1.69 1.69 0 0 1 .3-1c.2-.3.5-.5 1-.7s1.1-.4 2-.4c.8-.1 1.8-.1 3-.1s2.2 0 3 .1 1.4.2 1.9.4.8.5 1 .7a1.69 1.69 0 0 1 .3 1v38.4c0 3.9.3 7 .9 9.3s1.4 4.3 2.6 5.9 2.7 2.9 4.5 3.8 3.9 1.4 6.3 1.4c3.1 0 6.2-1.1 9.3-3.2s6.3-5.3 9.8-9.5V467a1.69 1.69 0 0 1 .3-1c.2-.3.5-.5 1-.7s1.1-.4 1.9-.4c.8-.1 1.8-.1 3-.1s2.2 0 3 .1 1.4.2 1.9.4.8.5 1 .7a1.69 1.69 0 0 1 .3 1v65.9h0zm79.2.1c0 .6-.2 1-.6 1.3s-1 .5-1.6.7c-.7.1-1.7.2-3.1.2-1.3 0-2.3-.1-3.1-.2s-1.3-.4-1.7-.7-.5-.7-.5-1.3v-6.6c-3 3.1-6.2 5.5-9.9 7.2a26.86 26.86 0 0 1-11.5 2.6c-3.6 0-6.8-.5-9.6-1.4-2.9-.9-5.3-2.2-7.4-3.9-2-1.7-3.6-3.8-4.7-6.3s-1.7-5.3-1.7-8.5c0-3.7.8-6.9 2.3-9.7 1.5-2.7 3.8-5 6.7-6.8s6.5-3.2 10.7-4.1 8.9-1.4 14.2-1.4h9.3V489c0-2.5-.3-4.8-.8-6.7-.6-2-1.4-3.6-2.7-4.9-1.2-1.3-2.8-2.3-4.8-2.9-2-.7-4.4-1-7.2-1-3.1 0-5.8.4-8.2 1.1s-4.6 1.5-6.4 2.3c-1.8.9-3.4 1.6-4.6 2.3s-2.1 1.1-2.7 1.1c-.4 0-.8-.1-1-.3a2.36 2.36 0 0 1-.8-.9 5.27 5.27 0 0 1-.5-1.5c-.1-.6-.1-1.3-.1-2 0-1.2.1-2.2.3-2.9s.6-1.4 1.3-2 1.8-1.4 3.5-2.2c1.7-.9 3.5-1.6 5.7-2.3 2.1-.7 4.5-1.3 7.1-1.8s5.1-.7 7.7-.7c4.8 0 9 .5 12.4 1.6s6.2 2.7 8.3 4.7 3.6 4.7 4.6 7.7c.9 3.1 1.4 6.7 1.4 10.8V533h-.3zm-12.3-30.1h-10.6c-3.4 0-6.4.3-8.9.8-2.5.6-4.6 1.4-6.2 2.5-1.7 1.1-2.9 2.4-3.6 4-.8 1.5-1.2 3.3-1.2 5.3 0 3.4 1.1 6.1 3.3 8.2 2.2 2 5.3 3 9.3 3 3.2 0 6.3-.8 9-2.4 2.8-1.6 5.7-4.1 8.7-7.4v-14h.2zm53 30a1.69 1.69 0 0 1-.3 1c-.2.3-.5.5-1 .7s-1.1.3-1.9.4-1.8.1-3.1.1c-1.2 0-2.2 0-3-.1s-1.4-.2-1.9-.4-.8-.4-1-.7a1.69 1.69 0 0 1-.3-1V435a1.69 1.69 0 0 1 .3-1c.2-.3.5-.5 1-.7s1.1-.3 1.9-.4 1.8-.1 3-.1l3.1.1c.8.1 1.4.2 1.9.4s.8.4 1 .7a1.69 1.69 0 0 1 .3 1v97.9z"/><use xlink:href="#B" x="312.5"/><path d="M499.5 529.6c0 .9-.1 1.7-.2 2.4s-.3 1.2-.5 1.6a2.36 2.36 0 0 1-.8.9c-.4.2-.7.3-1.1.3h-41.6c-1.1 0-1.9-.3-2.6-1s-1-1.8-1-3.4v-2.6c0-.7 0-1.3.2-1.8.1-.5.2-1.1.4-1.6s.5-1.1.8-1.7.8-1.3 1.3-2.1l29.8-45.3h-28.9c-.8 0-1.4-.4-1.9-1.2s-.7-2.1-.7-3.9c0-.9 0-1.6.2-2.3.1-.7.3-1.2.5-1.6a2.36 2.36 0 0 1 .8-.9c.3-.2.7-.3 1.2-.3h38.7c.5 0 1 .1 1.5.2.4.1.8.4 1.1.7s.5.8.7 1.3.3 1.2.3 2.1v2.3c0 .7-.1 1.3-.1 1.9-.1.6-.3 1.2-.5 1.7-.2.6-.5 1.2-.8 1.8l-1.3 2.1-29.6 45.3h31.7c.4 0 .8.1 1.1.3s.6.5.8.8a9.12 9.12 0 0 1 .6 1.6c-.2.7-.1 1.5-.1 2.4z"/><use xlink:href="#B" x="419.5"/><path d="M621.6 532.9a1.69 1.69 0 0 1-.3 1c-.2.3-.5.5-1 .7s-1.1.3-1.9.4-1.8.1-3 .1c-1.3 0-2.3 0-3.1-.1s-1.4-.2-1.9-.4-.8-.4-1-.7a1.69 1.69 0 0 1-.3-1v-38.6c0-3.8-.3-6.8-.9-9.1s-1.5-4.3-2.6-5.9c-1.2-1.7-2.6-2.9-4.5-3.8-1.8-.9-3.9-1.3-6.3-1.3-3.1 0-6.2 1.1-9.3 3.2-3.1 2.2-6.4 5.3-9.8 9.5V533a1.69 1.69 0 0 1-.3 1c-.2.3-.5.5-1 .7s-1.1.3-1.9.4-1.8.1-3.1.1c-1.2 0-2.2 0-3-.1s-1.4-.2-1.9-.4-.8-.4-1-.7a1.69 1.69 0 0 1-.3-1v-66c0-.4.1-.7.2-1 .2-.3.5-.5.9-.7s1-.4 1.7-.4c.7-.1 1.6-.1 2.8-.1 1.1 0 2 0 2.7.1s1.3.2 1.7.4.7.5.9.7a1.69 1.69 0 0 1 .3 1v8.7c3.8-4.2 7.6-7.2 11.4-9.1s7.6-2.9 11.4-2.9c4.5 0 8.3.7 11.4 2.2s5.6 3.5 7.5 6 3.3 5.4 4.1 8.8 1.2 7.4 1.2 12.1v40.1h.2zm84.5-63c0 1.7-.2 2.9-.7 3.7s-1.1 1.1-1.8 1.1h-9.7c1.7 1.8 3 3.7 3.7 5.8s1 4.3 1 6.6c0 3.8-.6 7.2-1.9 10.1s-3 5.4-5.4 7.4c-2.3 2-5.1 3.6-8.3 4.7s-6.8 1.6-10.7 1.6c-2.8 0-5.4-.4-7.8-1.1-2.5-.7-4.4-1.6-5.7-2.7-.9.9-1.6 1.9-2.2 3s-.9 2.4-.9 3.9c0 1.7.8 3.1 2.4 4.3 1.6 1.1 3.8 1.7 6.5 1.8l17.6.7c3.3.1 6.4.5 9.2 1.4 2.8.8 5.2 2 7.3 3.4 2 1.5 3.6 3.3 4.8 5.5 1.1 2.2 1.7 4.7 1.7 7.6 0 3-.7 5.9-2 8.7-1.3 2.7-3.3 5.1-6 7.2s-6.1 3.7-10.2 4.9c-4.2 1.2-9.1 1.8-14.7 1.8-5.5 0-10.1-.5-13.9-1.4s-7-2.1-9.4-3.7c-2.5-1.6-4.2-3.4-5.3-5.6s-1.7-4.5-1.7-7.1c0-1.6.2-3.2.6-4.7s1-3 1.8-4.3 1.8-2.7 3.1-3.9c1.2-1.2 2.6-2.5 4.2-3.7-2.5-1.2-4.3-2.8-5.4-4.6-1.2-1.9-1.8-3.9-1.8-6 0-3 .6-5.6 1.9-8 1.2-2.3 2.8-4.4 4.7-6.3-1.6-1.8-2.8-3.8-3.7-6.1s-1.4-5-1.4-8.2c0-3.8.6-7.1 2-10.1 1.3-3 3.1-5.5 5.4-7.6s5.1-3.6 8.3-4.7 6.7-1.6 10.5-1.6c2 0 4 .1 5.7.3 1.8.2 3.4.5 5 .9h20.4c.8 0 1.5.4 1.9 1.2.7 1 .9 2.2.9 3.8zM693 539.6c0-2.8-1.2-5-3.6-6.6-2.4-1.5-5.6-2.4-9.6-2.5l-17.5-.6c-1.6 1.2-2.9 2.4-3.9 3.5s-1.8 2.2-2.4 3.2-1 2-1.2 3-.3 2-.3 3c0 3.2 1.7 5.6 5 7.2s7.9 2.5 13.8 2.5c3.8 0 6.9-.4 9.4-1.1s4.6-1.6 6.1-2.8 2.7-2.5 3.3-4c.5-1.6.9-3.1.9-4.8zm-6.3-52.3c0-4.5-1.3-8-3.8-10.5s-6.1-3.8-10.8-3.8c-2.4 0-4.5.4-6.3 1.2s-3.3 1.9-4.4 3.2c-1.2 1.4-2.1 2.9-2.6 4.7-.6 1.8-.9 3.7-.9 5.6 0 4.4 1.3 7.8 3.8 10.3s6.1 3.7 10.6 3.7c2.4 0 4.6-.4 6.4-1.1 1.8-.8 3.3-1.8 4.5-3.2 1.2-1.3 2-2.9 2.6-4.7.6-1.6.9-3.5.9-5.4z"/><use xlink:href="#C" x="623.9"/><path d="M881.9 522.9l-.1 2.2c-.1.6-.1 1.1-.3 1.5-.1.4-.3.8-.5 1.1s-.6.8-1.2 1.4-1.7 1.4-3.2 2.3-3.2 1.7-5.1 2.4-3.9 1.3-6.1 1.7-4.5.7-6.8.7c-4.9 0-9.2-.8-12.9-2.3s-6.9-3.8-9.4-6.9c-2.5-3-4.5-6.7-5.8-11.1s-2-9.4-2-15.1c0-6.5.8-12.1 2.4-16.8s3.9-8.5 6.7-11.5 6.2-5.2 10-6.6 8-2.2 12.4-2.2a33.6 33.6 0 0 1 6.3.6c2 .4 3.9.9 5.6 1.5s3.2 1.4 4.5 2.2 2.3 1.5 2.9 2.1 1 1.1 1.2 1.4.4.7.6 1.2l.3 1.6c0 .6.1 1.3.1 2.2 0 1.9-.2 3.2-.7 4-.4.8-1 1.1-1.6 1.1-.8 0-1.6-.4-2.6-1.2s-2.2-1.7-3.7-2.7-3.3-1.9-5.4-2.7-4.6-1.2-7.5-1.2c-6 0-10.5 2.2-13.7 6.7s-4.8 11-4.8 19.5c0 4.3.4 8 1.2 11.2s2 5.9 3.6 8c1.6 2.2 3.6 3.8 5.9 4.8 2.3 1.1 5 1.6 8 1.6 2.9 0 5.4-.4 7.5-1.3s4-1.8 5.6-2.9 2.9-2 4-2.9 1.9-1.3 2.5-1.3c.3 0 .6.1.9.3.2.2.5.5.6 1 .2.5.3 1.1.4 1.8.2.8.2 1.6.2 2.6z"/><use xlink:href="#B" x="800.7"/><path d="M1002.3 497.1c0 1.9-.5 3.3-1.5 4.1a5.23 5.23 0 0 1-3.4 1.2h-44.5c0 3.7.4 7 1.1 9.9.8 2.9 2 5.5 3.8 7.6s4 3.7 6.9 4.8c2.8 1.1 6.3 1.7 10.3 1.7 3.2 0 6.1-.3 8.6-.8s4.7-1.1 6.5-1.7 3.3-1.2 4.5-1.7 2.1-.8 2.7-.8c.4 0 .7.1.9.3.3.2.5.4.6.8.2.3.3.8.3 1.4.1.6.1 1.4.1 2.2 0 .6 0 1.2-.1 1.6-.1.5-.1.9-.2 1.2-.1.4-.2.7-.4 1s-.4.6-.7.8c-.3.3-1.1.7-2.4 1.3-1.4.6-3.1 1.2-5.2 1.8-2.2.6-4.6 1.1-7.5 1.6-2.8.5-5.8.7-9 .7-5.6 0-10.4-.8-14.6-2.3s-7.7-3.8-10.5-6.7c-2.9-3-5-6.7-6.5-11.2s-2.2-9.7-2.2-15.7c0-5.7.8-10.8 2.2-15.3s3.7-8.4 6.5-11.5c2.8-3.2 6.2-5.6 10.2-7.3s8.5-2.5 13.4-2.5c5.3 0 9.8.8 13.5 2.5s6.8 3.9 9.2 6.7 4.2 6.1 5.3 9.9 1.7 7.8 1.7 12.1v2.3h.4zm-12.5-3.6c.1-6.4-1.3-11.3-4.3-15-3-3.6-7.6-5.4-13.5-5.4-3.1 0-5.8.6-8.1 1.7s-4.3 2.6-5.8 4.5a18.76 18.76 0 0 0-3.6 6.5c-.9 2.5-1.3 5-1.4 7.7h36.7zm94.9 39.4a1.69 1.69 0 0 1-.3 1c-.2.3-.5.5-1 .7s-1.1.3-1.9.4-1.8.1-3 .1c-1.3 0-2.3 0-3.1-.1s-1.4-.2-1.9-.4c-.4-.2-.8-.4-1-.7a1.69 1.69 0 0 1-.3-1v-38.6c0-3.8-.3-6.8-.9-9.1s-1.5-4.3-2.6-5.9c-1.2-1.7-2.6-2.9-4.5-3.8-1.8-.9-3.9-1.3-6.3-1.3-3.1 0-6.2 1.1-9.3 3.2-3.1 2.2-6.4 5.3-9.8 9.5V533a1.69 1.69 0 0 1-.3 1c-.2.3-.5.5-1 .7s-1.1.3-1.9.4-1.8.1-3.1.1c-1.2 0-2.2 0-3-.1s-1.4-.2-1.9-.4-.8-.4-1-.7a1.69 1.69 0 0 1-.3-1v-66c0-.4.1-.7.2-1 .2-.3.5-.5.9-.7s1-.4 1.7-.4c.7-.1 1.6-.1 2.8-.1 1.1 0 2 0 2.7.1s1.3.2 1.7.4.7.5.9.7a1.69 1.69 0 0 1 .3 1v8.7c3.8-4.2 7.6-7.2 11.4-9.1s7.6-2.9 11.4-2.9c4.5 0 8.3.7 11.4 2.2s5.6 3.5 7.5 6 3.3 5.4 4.1 8.8c.8 3.3 1.2 7.4 1.2 12.1v40.1h.2zm85.5-67.9c1.5 0 2.5.3 3.1 1 .5.7.8 1.6.8 2.9v64a1.69 1.69 0 0 1-.3 1c-.2.3-.5.5-1 .7s-1.1.3-1.9.4-1.8.1-2.9.1c-1.2 0-2.3 0-3.1-.1s-1.4-.2-1.9-.4-.8-.4-1-.7a1.69 1.69 0 0 1-.3-1v-57.8h-34.9v36.8c0 4.5.7 8 2.1 10.3s3.8 3.5 7.4 3.5c1.1 0 2.2-.1 3.1-.3s1.7-.5 2.4-.7 1.3-.5 1.8-.7.9-.3 1.4-.3c.2 0 .5.1.7.2s.4.4.5.7.2.8.3 1.4.1 1.3.1 2.2c0 1.4-.1 2.5-.3 3.3s-.5 1.4-.9 1.8-1 .8-1.8 1.1-1.7.6-2.7.8-2.1.4-3.3.5-2.3.2-3.5.2c-3.5 0-6.5-.5-9-1.4s-4.6-2.3-6.2-4.1-2.8-4.2-3.5-7-1.1-6.1-1.1-9.9v-38.6h-9.5c-.8 0-1.3-.4-1.8-1.2s-.7-2.1-.7-3.8c0-.9.1-1.7.2-2.3s.3-1.2.5-1.6a2.36 2.36 0 0 1 .8-.9c.3-.2.7-.3 1.1-.3h9.4v-15.7a1.93 1.93 0 0 1 .3-1c.2-.3.5-.5 1-.8.5-.2 1.1-.4 1.9-.5s1.8-.1 3-.1 2.3 0 3.1.1 1.4.3 1.9.5.8.5 1 .8a1.69 1.69 0 0 1 .3 1v15.7h43.4v.2zm5.3-20.3c0 2.8-.6 4.8-1.6 5.8-1.1 1-3.1 1.5-6.1 1.5-2.9 0-4.9-.5-6-1.5s-1.6-2.9-1.6-5.7.5-4.8 1.7-5.8c1.1-1 3.1-1.5 6.1-1.5 2.9 0 4.9.5 6 1.5.9 1 1.5 2.9 1.5 5.7zm85.5 88.2a1.69 1.69 0 0 1-.3 1c-.2.3-.5.5-1 .7s-1.1.3-1.9.4-1.8.1-3 .1-2.2 0-3-.1-1.4-.2-1.9-.4-.8-.4-1-.7a1.69 1.69 0 0 1-.3-1v-57.8h-30.3v57.8a1.69 1.69 0 0 1-.3 1c-.2.3-.5.5-1 .7s-1.1.3-1.9.4-1.8.1-3 .1-2.2 0-3-.1-1.4-.2-1.9-.4-.8-.4-1-.7a1.69 1.69 0 0 1-.3-1v-57.8h-9.5c-.8 0-1.4-.4-1.8-1.2s-.6-2.1-.6-3.8l.1-2.3c.1-.6.2-1.2.5-1.6a2.36 2.36 0 0 1 .8-.9c.3-.2.6-.3 1.1-.3h9.5v-7.1c0-4.5.5-8.4 1.3-11.7.9-3.2 2.2-5.9 4-8s4-3.7 6.6-4.7 5.6-1.5 9-1.5c1.1 0 2.2 0 3.3.1s2.1.2 3 .4a41.92 41.92 0 0 1 2.4.6c.7.2 1.1.5 1.4.7.2.2.4.5.6.8s.3.6.4 1 .2.9.2 1.5.1 1.3.1 2.1c0 1.6-.1 2.7-.4 3.4s-.7 1-1.3 1c-.4 0-.8-.1-1.2-.3s-1-.4-1.6-.5c-.7-.2-1.4-.4-2.4-.5-.9-.2-2.1-.3-3.5-.3-3.5 0-5.9 1.2-7.4 3.7s-2.2 6.5-2.2 12v7.3h38.9c1.3 0 2.3.3 2.9 1s.9 1.6.9 2.7v64.2h0zm1.3-88.2c0 1.4-.1 2.5-.3 3.4s-.6 1.7-1.2 2.2c-.6.6-1.3 1-2.3 1.2s-2.2.4-3.7.4-2.7-.1-3.6-.4c-1-.2-1.8-.6-2.3-1.2a4.32 4.32 0 0 1-1.2-2.2c-.3-.9-.4-2.1-.4-3.4 0-1.4.1-2.5.4-3.4.2-.9.7-1.7 1.2-2.3.6-.6 1.3-1 2.3-1.2s2.2-.3 3.6-.3c1.5 0 2.7.1 3.7.3s1.7.6 2.3 1.2c.5.6.9 1.4 1.2 2.3.2.9.3 2.1.3 3.4z"/><use xlink:href="#D"/><path d="M1412.5 532.9a1.69 1.69 0 0 1-.3 1c-.2.3-.5.5-1 .7s-1.1.3-1.9.4-1.8.1-3.1.1c-1.2 0-2.2 0-3-.1s-1.4-.2-1.9-.4-.8-.4-1-.7a1.69 1.69 0 0 1-.3-1V435a1.69 1.69 0 0 1 .3-1c.2-.3.5-.5 1-.7s1.1-.3 1.9-.4 1.8-.1 3-.1l3.1.1c.8.1 1.4.2 1.9.4.4.2.8.4 1 .7a1.69 1.69 0 0 1 .3 1v97.9z"/><use xlink:href="#E"/><path d="M1578.1 532.9a1.69 1.69 0 0 1-.3 1c-.2.3-.5.5-1 .7s-1.1.3-1.9.4-1.8.1-3 .1c-1.3 0-2.3 0-3.1-.1s-1.4-.2-1.9-.4c-.4-.2-.8-.4-1-.7a1.69 1.69 0 0 1-.3-1v-38.6c0-3.8-.3-6.8-.9-9.1s-1.5-4.3-2.6-5.9c-1.2-1.7-2.6-2.9-4.5-3.8-1.8-.9-3.9-1.3-6.3-1.3-3.1 0-6.2 1.1-9.3 3.2-3.1 2.2-6.4 5.3-9.8 9.5V533a1.69 1.69 0 0 1-.3 1c-.2.3-.5.5-1 .7s-1.1.3-1.9.4-1.8.1-3.1.1c-1.2 0-2.2 0-3-.1s-1.4-.2-1.9-.4-.8-.4-1-.7a1.69 1.69 0 0 1-.3-1v-66c0-.4.1-.7.2-1s.5-.5.9-.7c.5-.2 1-.4 1.7-.4.7-.1 1.6-.1 2.8-.1 1.1 0 2 0 2.7.1s1.3.2 1.7.4.7.5.9.7a1.69 1.69 0 0 1 .3 1v8.7c3.8-4.2 7.6-7.2 11.4-9.1s7.6-2.9 11.4-2.9c4.5 0 8.3.7 11.4 2.2s5.6 3.5 7.5 6 3.3 5.4 4.1 8.8c.8 3.3 1.2 7.4 1.2 12.1v40.1h.2zm86 0a1.69 1.69 0 0 1-.3 1c-.2.3-.5.5-.9.7s-1 .3-1.7.4-1.6.1-2.6.1-1.9 0-2.6-.1-1.3-.2-1.7-.4c-.5-.2-.8-.4-1-.7a1.69 1.69 0 0 1-.3-1v-8.7c-3.6 3.8-7.2 6.7-11.1 8.8-3.8 2.1-8 3.2-12.6 3.2-5 0-9.2-.9-12.7-2.8s-6.3-4.4-8.5-7.6-3.8-7-4.8-11.3-1.5-8.9-1.5-13.7c0-5.7.6-10.8 1.9-15.4 1.2-4.6 3.1-8.5 5.6-11.7 2.4-3.2 5.5-5.7 9.1-7.4s7.8-2.6 12.6-2.6c3.9 0 7.6.8 10.8 2.5 3.3 1.7 6.5 4.2 9.7 7.4v-38.3a1.93 1.93 0 0 1 .3-1c.2-.3.5-.6 1-.7.5-.2 1.1-.3 1.9-.4s1.8-.2 3-.2 2.3.1 3.1.2 1.4.3 1.9.4c.5.2.8.4 1 .7a1.69 1.69 0 0 1 .3 1l.1 97.6h0zm-12.5-46.4c-3.4-4.1-6.6-7.1-9.7-9.3s-6.4-3.2-9.8-3.2c-3.2 0-5.8.7-8 2.2s-4 3.4-5.4 5.8-2.4 5.1-3 8.1-.9 6.1-.9 9.2c0 3.3.3 6.6.8 9.8s1.4 6 2.7 8.5 3 4.4 5.2 5.9c2.1 1.5 4.8 2.2 8.1 2.2 1.6 0 3.2-.2 4.8-.7 1.5-.4 3.1-1.2 4.7-2.2s3.3-2.4 5-4c1.8-1.6 3.6-3.7 5.6-6l-.1-26.3h0z"/><use xlink:href="#F"/><use xlink:href="#D" x="468.7"/><use xlink:href="#E" x="386.4"/><path d="M1968.5 498.9c0 5.8-.6 10.9-1.9 15.5s-3.2 8.5-5.6 11.7c-2.5 3.2-5.5 5.7-9.2 7.4s-7.8 2.6-12.5 2.6c-2 0-3.9-.2-5.5-.6-1.7-.4-3.4-1-5-1.8s-3.2-1.9-4.8-3.2-3.3-2.8-5.1-4.5v33a1.69 1.69 0 0 1-.3 1c-.2.3-.5.5-1 .7s-1.1.3-1.9.4-1.8.1-3.1.1c-1.2 0-2.2 0-3-.1s-1.4-.2-1.9-.4-.8-.4-1-.7a1.69 1.69 0 0 1-.3-1v-92.2c0-.4.1-.8.2-1.1s.5-.5.9-.7c.5-.2 1-.3 1.7-.4s1.5-.1 2.5-.1c1.1 0 1.9 0 2.6.1s1.2.2 1.7.4.8.4.9.7c.2.3.3.6.3 1.1v8.9c2-2.1 4-3.8 5.9-5.4 1.9-1.5 3.8-2.8 5.7-3.8s3.9-1.8 5.9-2.3a26.71 26.71 0 0 1 6.4-.8c4.9 0 9.1.9 12.5 2.8 3.5 1.9 6.3 4.4 8.4 7.6 2.2 3.2 3.8 7 4.8 11.3 1.2 4.5 1.7 9 1.7 13.8zm-12.8 1.4c0-3.4-.3-6.6-.8-9.8s-1.4-5.9-2.7-8.4c-1.3-2.4-3-4.4-5.2-5.9s-4.9-2.2-8.1-2.2c-1.6 0-3.2.2-4.8.7s-3.1 1.2-4.8 2.2c-1.6 1-3.3 2.3-5.1 4-1.8 1.6-3.6 3.7-5.6 6v26.2c3.4 4.1 6.7 7.2 9.7 9.3 3.1 2.2 6.3 3.2 9.7 3.2 3.1 0 5.8-.7 8-2.2a17.08 17.08 0 0 0 5.4-5.9c1.4-2.4 2.4-5.2 3.1-8.2.9-2.9 1.2-5.9 1.2-9zm94.6-3.2c0 1.9-.5 3.3-1.5 4.1a5.23 5.23 0 0 1-3.4 1.2h-44.5c0 3.7.4 7 1.1 9.9.8 2.9 2 5.5 3.8 7.6s4 3.7 6.9 4.8c2.8 1.1 6.3 1.7 10.3 1.7 3.2 0 6.1-.3 8.6-.8s4.7-1.1 6.5-1.7 3.3-1.2 4.5-1.7 2.1-.8 2.7-.8c.4 0 .7.1.9.3.3.2.5.4.6.8.2.3.3.8.3 1.4.1.6.1 1.4.1 2.2 0 .6 0 1.2-.1 1.6-.1.5-.1.9-.2 1.2-.1.4-.2.7-.4 1s-.4.6-.7.8c-.3.3-1.1.7-2.4 1.3s-3.1 1.2-5.2 1.8c-2.2.6-4.6 1.1-7.5 1.6-2.8.5-5.8.7-9 .7-5.6 0-10.4-.8-14.6-2.3s-7.7-3.8-10.5-6.7c-2.9-3-5-6.7-6.5-11.2s-2.2-9.7-2.2-15.7c0-5.7.8-10.8 2.2-15.3s3.7-8.4 6.5-11.5c2.8-3.2 6.2-5.6 10.2-7.3s8.5-2.5 13.4-2.5c5.3 0 9.8.8 13.5 2.5s6.8 3.9 9.2 6.7 4.2 6.1 5.3 9.9 1.7 7.8 1.7 12.1v2.3h.4zm-12.5-3.6c.2-6.4-1.3-11.3-4.3-15-3-3.6-7.6-5.4-13.5-5.4-3.1 0-5.8.6-8.1 1.7s-4.3 2.6-5.8 4.5a18.76 18.76 0 0 0-3.6 6.5c-.9 2.5-1.3 5-1.4 7.7h36.7z"/><use xlink:href="#F" x="382.1"/></g><g fill="#ddd"><path d="M2469.5 183.1c0 20.7-2.4 39.5-7.1 56.3-4.8 16.8-11.9 31.1-21.4 43-9.5 11.8-21.5 21-35.9 27.4-14.5 6.4-31.3 9.6-50.6 9.6s-35.8-3-49.7-9.1-25.2-14.8-34.1-26.1-15.5-25.1-19.7-41.5c-4.2-16.3-6.3-34.7-6.3-55.2 0-20.3 2.3-38.8 7-55.4s11.8-30.7 21.4-42.5c9.6-11.7 21.5-20.8 35.9-27.2s31.3-9.6 50.7-9.6c18.9 0 35.2 3 49 9s25.2 14.7 34.2 25.9 15.7 24.9 20.1 41c4.3 16 6.5 34.2 6.5 54.4zm-26.1 2.2c0-15.4-1.4-29.8-4.3-43.3s-7.6-25.2-14.3-35.1c-6.6-10-15.4-17.8-26.4-23.5s-24.6-8.5-40.8-8.5c-16.1 0-29.6 3-40.7 8.9-11 6-20 14-26.9 24s-11.8 21.8-14.9 35.1c-3 13.4-4.5 27.5-4.5 42.4 0 15.8 1.4 30.5 4.1 44.1s7.4 25.4 14 35.4 15.3 17.9 26.3 23.6 24.7 8.5 41.2 8.5c16.3 0 30-3 41.2-9.1 11.1-6.1 20.1-14.3 26.9-24.5s11.7-22.1 14.7-35.5c2.9-13.5 4.4-27.6 4.4-42.5z"/><use xlink:href="#G"/><path d="M2771.7 312c0 .8-.2 1.5-.6 2.2s-1 1.2-1.9 1.6-2.1.7-3.6 1-3.5.4-5.9.4c-2.3 0-4.2-.1-5.7-.4s-2.8-.6-3.7-1-1.6-.9-1.9-1.6-.5-1.4-.5-2.2V41.3c0-.8.2-1.5.5-2.2s1-1.2 1.9-1.7 2.2-.8 3.7-1 3.4-.3 5.7-.3c2.4 0 4.4.1 5.9.3s2.7.5 3.6 1 1.5 1 1.9 1.7.6 1.4.6 2.2V312zm98.9-243c0 6.4-1.1 10.8-3.4 13.1s-6.4 3.4-12.4 3.4c-5.9 0-9.9-1.1-12.1-3.3s-3.3-6.5-3.3-12.9 1.1-10.8 3.4-13.1 6.4-3.4 12.4-3.4c5.9 0 9.9 1.1 12.1 3.3s3.3 6.5 3.3 12.9zm-3.7 243c0 .8-.2 1.5-.6 2.2s-1 1.2-1.9 1.6-2.1.7-3.6 1-3.5.4-5.9.4c-2.3 0-4.2-.1-5.7-.4s-2.8-.6-3.7-1-1.6-.9-1.9-1.6-.5-1.4-.5-2.2V130.3c0-.8.2-1.5.5-2.2s1-1.2 1.9-1.7 2.2-.8 3.7-1 3.4-.3 5.7-.3c2.4 0 4.4.1 5.9.3s2.7.5 3.6 1 1.5 1 1.9 1.7.6 1.4.6 2.2V312z"/><use xlink:href="#G" x="408.7"/><path d="M3304.6 211.8c0 4.8-1.3 8.1-3.8 9.9s-5 2.7-7.4 2.7h-123.9c0 11.2 1.1 21.4 3.3 30.5s5.9 16.9 10.9 23.4c5.1 6.5 11.7 11.5 19.9 15s18.2 5.2 30.1 5.2c8.4 0 16-.7 22.7-2.2s12.5-3.1 17.4-4.9 8.9-3.4 12-4.9 5.4-2.2 6.7-2.2c.8 0 1.5.2 2.2.6s1.2 1 1.6 1.9.7 2 .9 3.3.3 3 .3 5c0 .9-.1 1.8-.2 2.7s-.3 1.7-.5 2.4-.5 1.4-.9 2.1-.9 1.3-1.6 2-2.7 1.8-6.2 3.5-8 3.3-13.7 5c-5.6 1.7-12.1 3.2-19.6 4.5-7.4 1.3-15.4 2-24 2-14.1 0-26.5-2.1-37.3-6.3s-19.9-10.4-27.3-18.7c-7.4-8.2-13-18.4-16.8-30.6s-5.7-26.3-5.7-42.4c0-15.4 2-29.2 5.9-41.4s9.6-22.5 17-31 16.2-15 26.6-19.5 21.9-6.7 34.6-6.7c13.7 0 25.3 2.3 34.9 6.8 9.6 4.6 17.6 10.7 23.8 18.4s10.8 16.6 13.7 26.8 4.3 20.9 4.3 32.1v5h.1zm-24.7-7c.4-19.3-4-34.3-13.3-45.2s-22.7-16.3-40.4-16.3c-9.1 0-17.1 1.7-24 5.1s-12.7 7.9-17.5 13.6c-4.8 5.6-8.4 12.1-10.9 19.6a85.86 85.86 0 0 0-4.4 23.2h110.5 0z"/></g><defs ><path id="B" d="M117 444.7c0 2.8-.6 4.8-1.6 5.8-1.1 1-3.1 1.5-6.1 1.5-2.9 0-4.9-.5-6-1.5s-1.6-2.9-1.6-5.7.5-4.8 1.7-5.8c1.1-1 3.1-1.5 6.1-1.5 2.9 0 4.9.5 6 1.5.9 1 1.5 2.9 1.5 5.7zm-1.5 88.2a1.69 1.69 0 0 1-.3 1c-.2.3-.5.5-1 .7s-1.1.3-1.9.4-1.8.1-3.1.1c-1.2 0-2.2 0-3-.1s-1.4-.2-1.9-.4-.8-.4-1-.7a1.69 1.69 0 0 1-.3-1v-66a1.93 1.93 0 0 1 .3-1c.2-.3.5-.5 1-.7s1.1-.3 1.9-.4 1.8-.1 3-.1l3.1.1c.8.1 1.4.2 1.9.4s.8.4 1 .7a1.69 1.69 0 0 1 .3 1v66z"/><path id="C" d="M186.3 515c0 3.4-.6 6.4-1.9 9s-3.1 4.9-5.4 6.7c-2.4 1.8-5.2 3.2-8.4 4.1-3.3.9-6.8 1.4-10.7 1.4-2.4 0-4.7-.2-6.9-.5-2.2-.4-4.1-.8-5.9-1.4s-3.2-1.1-4.4-1.8c-1.2-.6-2.1-1.2-2.6-1.6-.6-.5-1-1.2-1.2-2.1-.3-.9-.4-2.1-.4-3.6 0-.9 0-1.7.1-2.3s.2-1.1.4-1.5a1.31 1.31 0 0 1 .6-.8c.3-.2.6-.3.9-.3.5 0 1.4.3 2.4 1 1.1.7 2.4 1.4 4 2.2s3.4 1.5 5.6 2.2c2.1.7 4.6 1 7.4 1 2.1 0 4-.2 5.7-.7 1.7-.4 3.2-1.1 4.4-1.9 1.2-.9 2.2-1.9 2.9-3.3.7-1.3 1-2.9 1-4.7 0-1.9-.5-3.4-1.5-4.7s-2.3-2.4-3.9-3.4-3.4-1.8-5.4-2.6l-6.2-2.4c-2.1-.8-4.2-1.8-6.2-2.8-2-1.1-3.8-2.3-5.4-3.8s-2.9-3.3-3.9-5.4-1.5-4.6-1.5-7.6c0-2.6.5-5.1 1.5-7.4 1-2.4 2.6-4.4 4.6-6.2s4.6-3.2 7.7-4.3 6.7-1.6 10.8-1.6c1.8 0 3.6.1 5.4.4s3.4.7 4.9 1.1c1.4.4 2.7.9 3.7 1.4s1.8 1 2.3 1.4.9.7 1.1 1 .3.6.4 1 .1.8.2 1.4c.1.5.1 1.2.1 2s0 1.6-.1 2.2-.2 1.1-.4 1.5-.4.7-.6.8c-.3.2-.5.3-.8.3-.5 0-1.1-.3-2-.8s-2-1.1-3.3-1.7c-1.4-.6-2.9-1.2-4.8-1.7-1.8-.5-3.9-.8-6.3-.8-2.1 0-4 .2-5.6.7s-2.9 1.1-3.9 2-1.8 1.9-2.3 3c-.5 1.2-.8 2.4-.8 3.8 0 1.9.5 3.5 1.5 4.8s2.3 2.4 3.9 3.4a25.49 25.49 0 0 0 5.5 2.6c2 .8 4.1 1.6 6.3 2.4 2.1.8 4.2 1.8 6.3 2.8s3.9 2.3 5.5 3.7c1.6 1.5 2.9 3.2 3.9 5.3 1.2 1.8 1.7 4.2 1.7 7.1z"/><path id="D" d="M1337.9 522.9l-.1 2.2c-.1.6-.1 1.1-.3 1.5-.1.4-.3.8-.5 1.1s-.6.8-1.2 1.4-1.7 1.4-3.2 2.3-3.2 1.7-5.1 2.4-3.9 1.3-6.1 1.7-4.5.7-6.8.7c-4.9 0-9.2-.8-12.9-2.3s-6.9-3.8-9.4-6.9c-2.5-3-4.5-6.7-5.8-11.1s-2-9.4-2-15.1c0-6.5.8-12.1 2.4-16.8s3.8-8.5 6.7-11.5c2.8-3 6.2-5.2 10-6.6s8-2.2 12.4-2.2a33.6 33.6 0 0 1 6.3.6c2 .4 3.9.9 5.6 1.5s3.2 1.4 4.5 2.2 2.3 1.5 2.9 2.1 1 1.1 1.2 1.4.4.7.6 1.2.2 1 .3 1.6c0 .6.1 1.3.1 2.2 0 1.9-.2 3.2-.7 4s-1 1.1-1.7 1.1c-.8 0-1.6-.4-2.6-1.2s-2.2-1.7-3.7-2.7-3.3-1.9-5.4-2.7-4.6-1.2-7.5-1.2c-6 0-10.5 2.2-13.7 6.7s-4.8 11-4.8 19.5c0 4.3.4 8 1.2 11.2s2 5.9 3.6 8c1.6 2.2 3.6 3.8 5.9 4.8 2.3 1.1 5 1.6 8 1.6 2.8 0 5.3-.4 7.5-1.3 2.1-.9 4-1.8 5.6-2.9s2.9-2 4-2.9 1.9-1.3 2.5-1.3c.3 0 .6.1.9.3.2.2.5.5.6 1 .2.5.3 1.1.4 1.8.3.8.3 1.6.3 2.6z"/><path id="E" d="M1491.8 533c0 .6-.2 1-.6 1.3s-1 .5-1.7.7-1.7.2-3.1.2c-1.3 0-2.3-.1-3.1-.2s-1.3-.4-1.7-.7-.5-.7-.5-1.3v-6.6c-3 3.1-6.2 5.5-9.9 7.2a26.86 26.86 0 0 1-11.5 2.6c-3.6 0-6.8-.5-9.6-1.4-2.9-.9-5.3-2.2-7.4-3.9-2-1.7-3.6-3.8-4.7-6.3s-1.7-5.3-1.7-8.5c0-3.7.8-6.9 2.3-9.7 1.5-2.7 3.8-5 6.7-6.8s6.5-3.2 10.7-4.1 8.9-1.4 14.2-1.4h9.3V489c0-2.5-.3-4.8-.8-6.7-.6-2-1.4-3.6-2.7-4.9-1.2-1.3-2.8-2.3-4.8-2.9-2-.7-4.4-1-7.2-1-3 0-5.8.4-8.2 1.1s-4.6 1.5-6.4 2.3c-1.8.9-3.4 1.6-4.6 2.3s-2.1 1.1-2.7 1.1c-.4 0-.8-.1-1-.3s-.6-.5-.8-.9a5.27 5.27 0 0 1-.5-1.5c-.1-.6-.1-1.3-.1-2 0-1.2.1-2.2.3-2.9s.6-1.4 1.3-2 1.8-1.4 3.5-2.2c1.6-.9 3.5-1.6 5.7-2.3 2.1-.7 4.5-1.3 7.1-1.8 2.5-.5 5.1-.7 7.7-.7 4.8 0 9 .5 12.4 1.6s6.2 2.7 8.3 4.7c2.1 2.1 3.6 4.7 4.6 7.7.9 3.1 1.4 6.7 1.4 10.8V533h-.2zm-12.3-30.1h-10.6c-3.4 0-6.4.3-8.9.8-2.5.6-4.6 1.4-6.2 2.5s-2.9 2.4-3.6 4c-.8 1.5-1.2 3.3-1.2 5.3 0 3.4 1.1 6.1 3.3 8.2 2.2 2 5.3 3 9.3 3 3.2 0 6.3-.8 9-2.4 2.8-1.6 5.7-4.1 8.7-7.4v-14h.2z"/><path id="F" d="M1734.9 515c0 3.4-.6 6.4-1.9 9s-3.1 4.9-5.4 6.7c-2.4 1.8-5.2 3.2-8.4 4.1-3.3.9-6.8 1.4-10.7 1.4-2.4 0-4.7-.2-6.9-.5-2.2-.4-4.1-.8-5.8-1.4s-3.2-1.1-4.4-1.8c-1.2-.6-2.1-1.2-2.6-1.6-.6-.5-1-1.2-1.2-2.1-.3-.9-.4-2.1-.4-3.6 0-.9 0-1.7.2-2.3.1-.6.2-1.1.4-1.5s.4-.7.6-.8c.3-.2.6-.3.9-.3.5 0 1.4.3 2.4 1 1.1.7 2.4 1.4 4 2.2s3.4 1.5 5.6 2.2c2.1.7 4.6 1 7.4 1 2.1 0 4-.2 5.7-.7 1.7-.4 3.2-1.1 4.4-1.9 1.2-.9 2.2-1.9 2.9-3.3.7-1.3 1-2.9 1-4.7 0-1.9-.5-3.4-1.5-4.7s-2.3-2.4-3.9-3.4-3.4-1.8-5.4-2.6l-6.2-2.4c-2.1-.8-4.2-1.8-6.2-2.8-2-1.1-3.8-2.3-5.4-3.8s-2.9-3.3-3.9-5.4-1.5-4.6-1.5-7.6c0-2.6.5-5.1 1.5-7.4 1-2.4 2.6-4.4 4.6-6.2s4.6-3.2 7.7-4.3 6.7-1.6 10.8-1.6c1.8 0 3.6.1 5.4.4s3.4.7 4.9 1.1c1.4.4 2.7.9 3.7 1.4s1.8 1 2.3 1.4.9.7 1 1c.2.3.3.6.4 1s.1.8.2 1.4c.1.5.1 1.2.1 2s0 1.6-.1 2.2-.2 1.1-.4 1.5-.4.7-.6.8c-.2.2-.5.3-.8.3-.5 0-1.1-.3-2-.8s-2-1.1-3.3-1.7-2.9-1.2-4.8-1.7c-1.8-.5-3.9-.8-6.3-.8-2.1 0-4 .2-5.6.7s-2.9 1.1-3.9 2-1.8 1.9-2.3 3c-.5 1.2-.8 2.4-.8 3.8 0 1.9.5 3.5 1.5 4.8s2.3 2.4 3.9 3.4a25.49 25.49 0 0 0 5.5 2.6c2 .8 4.1 1.6 6.3 2.4 2.1.8 4.2 1.8 6.3 2.8s3.9 2.3 5.5 3.7c1.6 1.5 2.9 3.2 3.9 5.3 1.1 1.8 1.6 4.2 1.6 7.1z"/><path id="G" d="M2677 312c0 .8-.2 1.5-.6 2.2s-1 1.2-1.9 1.6-2.1.7-3.6 1-3.4.4-5.7.4c-2.4 0-4.4-.1-5.9-.4s-2.7-.6-3.6-1-1.5-.9-1.9-1.6-.6-1.4-.6-2.2V204.2c0-11.2-.9-20.4-2.6-27.4s-4.4-13.1-7.8-18.1c-3.5-5-7.9-8.9-13.4-11.6-5.4-2.7-11.7-4.1-19-4.1-9.2 0-18.5 3.3-27.7 9.8-9.2 6.6-18.9 16.2-29.1 28.9V312c0 .8-.2 1.5-.6 2.2s-1 1.2-1.9 1.6-2.1.7-3.6 1-3.5.4-5.9.4c-2.3 0-4.2-.1-5.7-.4s-2.8-.6-3.7-1-1.6-.9-1.9-1.6-.5-1.4-.5-2.2V130.3c0-.8.2-1.5.5-2.2s1-1.2 1.9-1.7 2.1-.8 3.5-1 3.2-.3 5.5-.3 4.1.1 5.6.3 2.6.5 3.4 1 1.4 1 1.7 1.7.5 1.4.5 2.2V156c10.4-11.6 20.7-20.1 30.7-25.3s20-7.8 29.9-7.8c11.9 0 22 2 30.1 6 8.2 4 14.8 9.4 19.8 16.3s8.6 14.8 10.8 23.9 3.3 20.1 3.3 32.9v110z"/></defs></svg>