<?xml version="1.0" encoding="utf-8"?>
<!-- Generator: Adobe Illustrator 25.3.1, SVG Export Plug-In . SVG Version: 6.00 Build 0)  -->
<svg version="1.1" id="Layer_1" xmlns="http://www.w3.org/2000/svg" xmlns:xlink="http://www.w3.org/1999/xlink" x="0px" y="0px"
	 viewBox="0 0 1002.4 179.6" style="enable-background:new 0 0 1002.4 179.6;" xml:space="preserve">
<style type="text/css">
	.st0{enable-background:new    ;}
	.st1{fill:#FFFFFF;stroke:#FFFFFF;stroke-miterlimit:10;}
	.st2{fill:#FFFFFF;stroke:#FFFFFF;stroke-width:2;stroke-miterlimit:10;}
	.st3{fill:#FFFFFF;stroke:#FFFFFF;stroke-width:0.1714;stroke-miterlimit:10;}
	.st4{fill:#FFFFFF;}
	.st5{fill:#FFFFFF;stroke:#FFFFFF;stroke-width:0.1195;stroke-miterlimit:10;}
	.st6{fill:none;stroke:#FFFFFF;stroke-width:8;stroke-linecap:square;stroke-miterlimit:10;}
</style>
<g id="text_path">
	<g class="st0">
		<path class="st1" d="M186.7,12V5.6h84.1v13.1l-77.2,107.5v4.1h77.2v6.4h-84.1v-12.9L264,16.5V12H186.7z"/>
		<path class="st1" d="M351.7,130.9l5.6-0.4l0.4,6c-14,1.1-25.5,1.7-34.6,1.7c-13.2-0.1-22.4-4.1-27.5-12.1
			c-5.1-7.9-7.7-20-7.7-36.4c0-32.3,12.6-48.4,37.8-48.4c11.8,0,20.7,3.6,26.6,10.7s8.9,18.5,8.9,34.2v6.2h-66.4
			c0,13.5,2.1,23.5,6.4,30c4.2,6.5,11.3,9.8,21.1,9.8C332.2,132.2,341.9,131.8,351.7,130.9z M294.8,86.4h59.5
			c0-14.1-2.3-24.1-6.8-30.1c-4.6-6-11.8-9-21.8-9C305.1,47.3,294.8,60.4,294.8,86.4z"/>
		<path class="st1" d="M430.8,49h-34v49c0,14.3,1,23.7,3.1,28c2.1,4.3,6.8,6.5,14.1,6.5l18.3-1.5l0.6,6c-8.2,1-14.5,1.5-18.9,1.5
			c-8.9,0-15-2.3-18.5-6.8c-3.5-4.5-5.2-13.4-5.2-26.5V49h-14.8v-6h14.8V12.6h6.5v30.5h34V49z"/>
		<path class="st1" d="M510.8,70.5v53.9c0.5,4.5,5.2,7.1,14,7.9l-0.4,5.8c-9.1,0-15.5-2.6-19.3-7.9c-12.7,5.4-25.3,8-37.8,8
			c-7.7,0-13.7-2.3-18-6.9c-4.3-4.6-6.5-11.2-6.5-19.7s2.1-15.1,6.2-19.5c4.1-4.5,10.7-7.2,19.6-8l35.5-3.7v-9.7
			c0-8-1.7-13.8-5.1-17.4s-8.6-5.4-15.6-5.4c-7.1,0-17,0.8-29.5,2.4l-5.8,0.7l-0.6-6.2c14-2.2,25.9-3.4,35.9-3.4
			C501.7,41.4,510.8,51.1,510.8,70.5z M454.3,96c-3,3.4-4.5,8.4-4.5,15.1s1.5,11.9,4.6,15.6c3.1,3.7,7.3,5.5,12.8,5.5
			s11.3-0.7,17.4-2s10.9-2.6,14.4-3.8l5.2-1.9V86.2l-34.8,3.6C462.4,90.5,457.3,92.6,454.3,96z"/>
		<path class="st1" d="M572.9,136.5L613.1,5.6h19.8l40.2,130.9h-6.7l-12.2-40.2h-62.5l-12.2,40.2H572.9z M617.8,12l-23.9,78h58.3
			l-23.9-78H617.8z"/>
		<path class="st1" d="M694.3,136.5V0h6.5v136.5H694.3z"/>
		<path class="st1" d="M731.5,179.6V43h6.5v7.9c3.6-2.4,8.7-4.5,15.1-6.5c6.5-2,12.2-3,17.2-3c11.2,0,19.4,3.8,24.4,11.4
			s7.6,19.8,7.6,36.7s-3,29.2-9.1,37c-6,7.9-16.2,11.8-30.6,11.8c-8.5,0-16.7-0.9-24.7-2.6v43.9H731.5z M770.4,47.3
			c-4.7,0-9.8,0.8-15.2,2.5s-9.6,3.3-12.6,5l-4.5,2.4v72.4c9.6,1.7,17.8,2.6,24.7,2.6c12,0,20.4-3.3,25.3-10
			c4.9-6.7,7.4-17.6,7.4-32.9s-2.1-26.1-6.3-32.4C785,50.5,778.7,47.3,770.4,47.3z"/>
		<path class="st1" d="M834.5,136.5H828V0h6.5v48.6c11-4.9,22.3-7.3,33.8-7.3s19.4,3.1,23.4,9.4s6,18.7,6,37.1v48.6h-6.5V88.2
			c0-16.5-1.5-27.4-4.5-32.8s-9.5-8.1-19.6-8.1c-5,0-10.2,0.6-15.6,1.9c-5.4,1.2-9.6,2.5-12.4,3.7l-4.5,1.9v81.7H834.5z"/>
		<path class="st1" d="M988.4,70.5v53.9c0.5,4.5,5.2,7.1,14,7.9l-0.4,5.8c-9.1,0-15.5-2.6-19.3-7.9c-12.7,5.4-25.3,8-37.8,8
			c-7.7,0-13.7-2.3-18-6.9c-4.3-4.6-6.5-11.2-6.5-19.7s2.1-15.1,6.2-19.5c4.1-4.5,10.7-7.2,19.6-8l35.5-3.7v-9.7
			c0-8-1.7-13.8-5.1-17.4c-3.4-3.6-8.6-5.4-15.6-5.4c-7.1,0-17,0.8-29.5,2.4l-5.8,0.7l-0.6-6.2c14-2.2,25.9-3.4,35.9-3.4
			C979.3,41.4,988.4,51.1,988.4,70.5z M931.9,96c-3,3.4-4.5,8.4-4.5,15.1s1.5,11.9,4.6,15.6c3.1,3.7,7.3,5.5,12.8,5.5
			s11.3-0.7,17.4-2c6.1-1.3,10.9-2.6,14.4-3.8l5.2-1.9V86.2L947,89.8C940,90.5,934.9,92.6,931.9,96z"/>
	</g>
	<g class="st0">
		<path class="st2" d="M186.7,12V5.6h84.1v13.1l-77.2,107.5v4.1h77.2v6.4h-84.1v-12.9L264,16.5V12H186.7z"/>
		<path class="st2" d="M351.7,130.9l5.6-0.4l0.4,6c-14,1.1-25.5,1.7-34.6,1.7c-13.2-0.1-22.4-4.1-27.5-12.1
			c-5.1-7.9-7.7-20-7.7-36.4c0-32.3,12.6-48.4,37.8-48.4c11.8,0,20.7,3.6,26.6,10.7s8.9,18.5,8.9,34.2v6.2h-66.4
			c0,13.5,2.1,23.5,6.4,30c4.2,6.5,11.3,9.8,21.1,9.8C332.2,132.2,341.9,131.8,351.7,130.9z M294.8,86.4h59.5
			c0-14.1-2.3-24.1-6.8-30.1c-4.6-6-11.8-9-21.8-9C305.1,47.3,294.8,60.4,294.8,86.4z"/>
		<path class="st2" d="M430.8,49h-34v49c0,14.3,1,23.7,3.1,28c2.1,4.3,6.8,6.5,14.1,6.5l18.3-1.5l0.6,6c-8.2,1-14.5,1.5-18.9,1.5
			c-8.9,0-15-2.3-18.5-6.8c-3.5-4.5-5.2-13.4-5.2-26.5V49h-14.8v-6h14.8V12.6h6.5v30.5h34V49z"/>
		<path class="st2" d="M510.8,70.5v53.9c0.5,4.5,5.2,7.1,14,7.9l-0.4,5.8c-9.1,0-15.5-2.6-19.3-7.9c-12.7,5.4-25.3,8-37.8,8
			c-7.7,0-13.7-2.3-18-6.9c-4.3-4.6-6.5-11.2-6.5-19.7s2.1-15.1,6.2-19.5c4.1-4.5,10.7-7.2,19.6-8l35.5-3.7v-9.7
			c0-8-1.7-13.8-5.1-17.4s-8.6-5.4-15.6-5.4c-7.1,0-17,0.8-29.5,2.4l-5.8,0.7l-0.6-6.2c14-2.2,25.9-3.4,35.9-3.4
			C501.7,41.4,510.8,51.1,510.8,70.5z M454.3,96c-3,3.4-4.5,8.4-4.5,15.1s1.5,11.9,4.6,15.6c3.1,3.7,7.3,5.5,12.8,5.5
			s11.3-0.7,17.4-2s10.9-2.6,14.4-3.8l5.2-1.9V86.2l-34.8,3.6C462.4,90.5,457.3,92.6,454.3,96z"/>
		<path class="st2" d="M572.9,136.5L613.1,5.6h19.8l40.2,130.9h-6.7l-12.2-40.2h-62.5l-12.2,40.2H572.9z M617.8,12l-23.9,78h58.3
			l-23.9-78H617.8z"/>
		<path class="st2" d="M694.3,136.5V0h6.5v136.5H694.3z"/>
		<path class="st2" d="M731.5,179.6V43h6.5v7.9c3.6-2.4,8.7-4.5,15.1-6.5c6.5-2,12.2-3,17.2-3c11.2,0,19.4,3.8,24.4,11.4
			s7.6,19.8,7.6,36.7s-3,29.2-9.1,37c-6,7.9-16.2,11.8-30.6,11.8c-8.5,0-16.7-0.9-24.7-2.6v43.9H731.5z M770.4,47.3
			c-4.7,0-9.8,0.8-15.2,2.5s-9.6,3.3-12.6,5l-4.5,2.4v72.4c9.6,1.7,17.8,2.6,24.7,2.6c12,0,20.4-3.3,25.3-10
			c4.9-6.7,7.4-17.6,7.4-32.9s-2.1-26.1-6.3-32.4C785,50.5,778.7,47.3,770.4,47.3z"/>
		<path class="st2" d="M834.5,136.5H828V0h6.5v48.6c11-4.9,22.3-7.3,33.8-7.3s19.4,3.1,23.4,9.4s6,18.7,6,37.1v48.6h-6.5V88.2
			c0-16.5-1.5-27.4-4.5-32.8s-9.5-8.1-19.6-8.1c-5,0-10.2,0.6-15.6,1.9c-5.4,1.2-9.6,2.5-12.4,3.7l-4.5,1.9v81.7H834.5z"/>
		<path class="st2" d="M988.4,70.5v53.9c0.5,4.5,5.2,7.1,14,7.9l-0.4,5.8c-9.1,0-15.5-2.6-19.3-7.9c-12.7,5.4-25.3,8-37.8,8
			c-7.7,0-13.7-2.3-18-6.9c-4.3-4.6-6.5-11.2-6.5-19.7s2.1-15.1,6.2-19.5c4.1-4.5,10.7-7.2,19.6-8l35.5-3.7v-9.7
			c0-8-1.7-13.8-5.1-17.4c-3.4-3.6-8.6-5.4-15.6-5.4c-7.1,0-17,0.8-29.5,2.4l-5.8,0.7l-0.6-6.2c14-2.2,25.9-3.4,35.9-3.4
			C979.3,41.4,988.4,51.1,988.4,70.5z M931.9,96c-3,3.4-4.5,8.4-4.5,15.1s1.5,11.9,4.6,15.6c3.1,3.7,7.3,5.5,12.8,5.5
			s11.3-0.7,17.4-2c6.1-1.3,10.9-2.6,14.4-3.8l5.2-1.9V86.2L947,89.8C940,90.5,934.9,92.6,931.9,96z"/>
	</g>
</g>
<g>
	<g transform="translate(275,0)">
		<g transform="translate(471,0)">
			<g>
				<path id="MJMATHI-3B1_3_" class="st3" d="M-682.3,81.8c0-7.9,3-14.8,8.9-20.7s12.5-8.9,19.6-8.9c4.8,0,8.7,1.4,11.6,4.1
					c2.9,2.8,4.9,6.1,5.9,10.2c0.4,2,0.7,4.3,0.7,6.9v3c3.4-5.1,6-10.8,7.8-17.2c0.3-1,0.5-1.5,0.6-1.7s0.7-0.2,1.7-0.3
					c1.5,0,2.2,0.3,2.2,0.8c0,0.6-0.3,2-0.9,4c-0.6,2.1-1.9,5-3.7,8.8s-4,7.3-6.3,10.4l-1.1,1.5l0.1,2.5c0.1,3.9,0.4,6.5,0.8,7.9
					c0.4,1.4,1.1,2.1,2,2.2c1-0.1,1.9-0.5,2.7-1.1s1.4-1.4,1.8-2.4c0.1-0.5,0.3-0.8,0.5-0.8c0.2-0.1,0.7-0.1,1.6-0.2
					c1.4,0,2.1,0.3,2.1,0.8c0,0.4-0.2,1.1-0.6,2c-0.8,1.7-2,3-3.6,3.9s-3.1,1.5-4.6,1.6h-0.7c-4.6,0-7.8-2.5-9.4-7.5l-0.3-0.7
					l-1.1,0.8c-0.7,0.6-1.7,1.2-3.1,2.1c-1.4,0.8-2.9,1.6-4.7,2.4c-1.7,0.8-3.7,1.5-6,2.1s-4.5,0.9-6.6,0.9c-5.5,0-9.7-1.7-12.9-5.2
					C-680.8,90.5-682.3,86.4-682.3,81.8z M-664.3,95.3c3.4,0,6.8-0.7,10.2-2.2s5.9-2.9,7.6-4.5l2.5-2.3c-0.1-9.9-0.4-16-0.7-18.4
					c-1-7.9-3.9-12-9.5-11.9c-4.8,0.1-8.9,2.5-12.5,7.6c-1.9,2.8-3.4,6.5-4.6,11.2s-1.8,8.3-1.9,10.8c0,3.4,0.9,5.8,2.6,7.4
					C-669,94.4-666.9,95.2-664.3,95.3z"/>
			</g>
			<g>
				<path id="MJMAIN-20D7_3_" class="st4" d="M-638.2,25.3c0-0.6,0.2-1,0.5-1.5c0.3-0.4,0.9-0.6,1.6-0.6c0.7,0,1.2,0.3,1.6,0.8
					c0.3,0.6,0.6,1.2,0.8,2s0.7,1.7,1.3,2.8c0.7,1.1,1.6,2,2.8,2.8c0.8,0.5,1.1,1.1,1.1,1.9c0,0.6-0.2,1.1-0.7,1.6
					c-0.5,0.4-1.1,0.8-1.8,1c-0.7,0.3-1.7,0.9-3.1,2c-1.4,1-2.7,2.4-3.9,4.1c-1,1-1.7,1.6-2.3,1.6s-1-0.2-1.5-0.6
					c-0.4-0.4-0.6-0.9-0.6-1.5s0.4-1.3,1.1-2.4c0.8-1,1.6-1.9,2.4-2.6c0.8-0.7,1.3-1.1,1.3-1.1h-17.7l-17.7-0.1
					c-0.1-0.1-0.2-0.2-0.3-0.3s-0.3-0.2-0.5-0.3s-0.3-0.2-0.3-0.5c0-0.3-0.1-0.6-0.2-0.8c0-0.5,0.4-1.2,1.3-2.1h37.2
					C-637.4,28.8-638.2,26.8-638.2,25.3z"/>
			</g>
		</g>
		<path class="st5" d="M-231.4,40.1l0.9-0.6c1.2,1.2,3,1.9,5.4,1.9h1.5c5.6-0.1,8.5-1.5,8.8-4.1c0-2.3-2.7-3.4-8-3.4h-1l-1,0.1
			c-0.6,0-1.3,0.1-2.1,0.2c-0.8,0.1-1.2,0.3-1.3,0.4c-0.1,0-0.2,0-0.3,0.1c0-0.1,0-0.4-0.1-0.7c-0.1-0.3-0.1-0.9-0.1-1.6
			c0-0.9,0.1-2,0.3-3.2s0.3-2,0.3-2.4c0-1.2-0.6-1.8-1.9-1.8c-1.8,0-2.8,2.1-2.9,6.3c0,2.1,0.2,3.7,0.6,5l-0.9,0.5
			c-6.6,3.9-12.5,10.2-17.8,18.7c-5.3,8.5-8,17.1-8,25.9c0.1,4.1,0.9,7.5,2.2,10.2c1.3,2.7,3.1,4.7,5.3,6s4.5,2.5,6.9,3.4
			c2.4,1,4.7,1.7,6.9,2.3c2.2,0.6,4,1.4,5.4,2.5s2.1,2.6,2.1,4.4c0,1.5-0.4,2.7-1.2,3.6c-0.8,1-1.8,1.5-2.8,1.7
			c-2.5-0.1-4.6-0.6-6.4-1.6c-1.8-1-2.8-1.5-3.1-1.5c-0.8,0-1.4,0.3-1.9,0.9c-0.4,0.8-0.4,1.4-0.1,2c0.3,0.3,1,0.9,2.2,1.6
			c1.2,0.7,2.3,1.2,3.3,1.5c1.5,0.6,3.2,0.8,5.1,0.8c1.2,0,2.1-0.1,2.7-0.2c2.7-0.9,4.9-2.6,6.6-5c1.7-2.4,2.6-5,2.6-7.7
			c0-4.3-1.9-7.4-5.6-9.3c-1.8-1.1-4.1-2.3-7.1-3c-10.8-2.4-14.6-8-15.7-12.8c-0.1-0.9-0.1-1.9-0.1-2.9c0-1.9,0.2-3.8,0.5-5.7l0,0
			l0,0c0.9-5.1,2.8-10.4,5.8-15.9C-241.4,49.3-236.7,43.7-231.4,40.1z"/>
	</g>
</g>
<rect x="4" y="5.8" class="st6" width="130.5" height="130.5"/>
</svg>
