<svg xmlns="http://www.w3.org/2000/svg" xmlns:xlink="http://www.w3.org/1999/xlink" viewBox="0 0 1002.4 179.6"><style><![CDATA[.H{stroke:#fff}.I{stroke-miterlimit:10}.J{enable-background:new}]]></style><g fill="#fff" class="H I J"><path d="M186.7,12V5.6h84.1v13.1l-77.2,107.5v4.1h77.2v6.4h-84.1v-12.9L264,16.5V12H186.7z"/><use xlink:href="#B"/><use xlink:href="#C"/><use xlink:href="#D"/><use xlink:href="#E"/><path d="M694.3 136.5V0h6.5v136.5h-6.5z"/><use xlink:href="#F"/><use xlink:href="#G"/><use xlink:href="#H"/></g><g fill="#fff" stroke-width="2" class="H I J"><path d="M186.7,12V5.6h84.1v13.1l-77.2,107.5v4.1h77.2v6.4h-84.1v-12.9L264,16.5V12H186.7z"/><use xlink:href="#B"/><use xlink:href="#C"/><use xlink:href="#D"/><use xlink:href="#E"/><path d="M694.3 136.5V0h6.5v136.5h-6.5z"/><use xlink:href="#F"/><use xlink:href="#G"/><use xlink:href="#H"/></g><g fill="#fff"><path d="M63.7 81.8c0-7.9 3-14.8 8.9-20.7s12.5-8.9 19.6-8.9c4.8 0 8.7 1.4 11.6 4.1 2.9 2.8 4.9 6.1 5.9 10.2.4 2 .7 4.3.7 6.9v3c3.4-5.1 6-10.8 7.8-17.2.3-1 .5-1.5.6-1.7s.7-.2 1.7-.3c1.5 0 2.2.3 2.2.8 0 .6-.3 2-.9 4-.6 2.1-1.9 5-3.7 8.8s-4 7.3-6.3 10.4l-1.1 1.5.1 2.5c.1 3.9.4 6.5.8 7.9s1.1 2.1 2 2.2c1-.1 1.9-.5 2.7-1.1s1.4-1.4 1.8-2.4c.1-.5.3-.8.5-.8.2-.1.7-.1 1.6-.2 1.4 0 2.1.3 2.1.8 0 .4-.2 1.1-.6 2-.8 1.7-2 3-3.6 3.9s-3.1 1.5-4.6 1.6h-.7c-4.6 0-7.8-2.5-9.4-7.5l-.3-.7-1.1.8c-.7.6-1.7 1.2-3.1 2.1-1.4.8-2.9 1.6-4.7 2.4-1.7.8-3.7 1.5-6 2.1s-4.5.9-6.6.9c-5.5 0-9.7-1.7-12.9-5.2-3.5-3.5-5-7.6-5-12.2zm18 13.5c3.4 0 6.8-.7 10.2-2.2s5.9-2.9 7.6-4.5l2.5-2.3c-.1-9.9-.4-16-.7-18.4-1-7.9-3.9-12-9.5-11.9-4.8.1-8.9 2.5-12.5 7.6-1.9 2.8-3.4 6.5-4.6 11.2s-1.8 8.3-1.9 10.8c0 3.4.9 5.8 2.6 7.4 1.6 1.4 3.7 2.2 6.3 2.3z" stroke-width=".171" class="H I"/><path d="M107.8 25.3c0-.6.2-1 .5-1.5.3-.4.9-.6 1.6-.6s1.2.3 1.6.8c.3.6.6 1.2.8 2s.7 1.7 1.3 2.8c.7 1.1 1.6 2 2.8 2.8.8.5 1.1 1.1 1.1 1.9 0 .6-.2 1.1-.7 1.6-.5.4-1.1.8-1.8 1-.7.3-1.7.9-3.1 2-1.4 1-2.7 2.4-3.9 4.1-1 1-1.7 1.6-2.3 1.6s-1-.2-1.5-.6c-.4-.4-.6-.9-.6-1.5s.4-1.3 1.1-2.4c.8-1 1.6-1.9 2.4-2.6l1.3-1.1H90.7L73 35.5l-.3-.3c-.1-.1-.3-.2-.5-.3s-.3-.2-.3-.5-.1-.6-.2-.8c0-.5.4-1.2 1.3-2.1h37.2c-1.6-2.7-2.4-4.7-2.4-6.2z"/><path d="M43.6 40.1l.9-.6c1.2 1.2 3 1.9 5.4 1.9h1.5c5.6-.1 8.5-1.5 8.8-4.1 0-2.3-2.7-3.4-8-3.4h-1l-1 .1c-.6 0-1.3.1-2.1.2s-1.2.3-1.3.4c-.1 0-.2 0-.3.1 0-.1 0-.4-.1-.7s-.1-.9-.1-1.6c0-.9.1-2 .3-3.2l.3-2.4c0-1.2-.6-1.8-1.9-1.8-1.8 0-2.8 2.1-2.9 6.3 0 2.1.2 3.7.6 5l-.9.5C35.2 40.7 29.3 47 24 55.5s-8 17.1-8 25.9c.1 4.1.9 7.5 2.2 10.2s3.1 4.7 5.3 6 4.5 2.5 6.9 3.4c2.4 1 4.7 1.7 6.9 2.3s4 1.4 5.4 2.5 2.1 2.6 2.1 4.4c0 1.5-.4 2.7-1.2 3.6-.8 1-1.8 1.5-2.8 1.7-2.5-.1-4.6-.6-6.4-1.6s-2.8-1.5-3.1-1.5a2.32 2.32 0 0 0-1.9.9c-.4.8-.4 1.4-.1 2 .3.3 1 .9 2.2 1.6s2.3 1.2 3.3 1.5c1.5.6 3.2.8 5.1.8 1.2 0 2.1-.1 2.7-.2 2.7-.9 4.9-2.6 6.6-5s2.6-5 2.6-7.7c0-4.3-1.9-7.4-5.6-9.3-1.8-1.1-4.1-2.3-7.1-3-10.8-2.4-14.6-8-15.7-12.8-.1-.9-.1-1.9-.1-2.9 0-1.9.2-3.8.5-5.7h0 0c.9-5.1 2.8-10.4 5.8-15.9 4-7.4 8.7-13 14-16.6z" stroke-width=".12" class="H I"/></g><path d="M4 5.8h130.5v130.5H4z" fill="none" stroke-width="8" class="H I"/><defs ><path id="B" d="M351.7 130.9l5.6-.4.4 6c-14 1.1-25.5 1.7-34.6 1.7-13.2-.1-22.4-4.1-27.5-12.1-5.1-7.9-7.7-20-7.7-36.4 0-32.3 12.6-48.4 37.8-48.4 11.8 0 20.7 3.6 26.6 10.7s8.9 18.5 8.9 34.2v6.2h-66.4c0 13.5 2.1 23.5 6.4 30 4.2 6.5 11.3 9.8 21.1 9.8 9.9 0 19.6-.4 29.4-1.3zm-56.9-44.5h59.5c0-14.1-2.3-24.1-6.8-30.1-4.6-6-11.8-9-21.8-9-20.6 0-30.9 13.1-30.9 39.1z"/><path id="C" d="M430.8 49h-34v49c0 14.3 1 23.7 3.1 28s6.8 6.5 14.1 6.5l18.3-1.5.6 6c-8.2 1-14.5 1.5-18.9 1.5-8.9 0-15-2.3-18.5-6.8s-5.2-13.4-5.2-26.5V49h-14.8v-6h14.8V12.6h6.5v30.5h34V49z"/><path id="D" d="M510.8 70.5v53.9c.5 4.5 5.2 7.1 14 7.9l-.4 5.8c-9.1 0-15.5-2.6-19.3-7.9-12.7 5.4-25.3 8-37.8 8-7.7 0-13.7-2.3-18-6.9s-6.5-11.2-6.5-19.7 2.1-15.1 6.2-19.5c4.1-4.5 10.7-7.2 19.6-8l35.5-3.7v-9.7c0-8-1.7-13.8-5.1-17.4s-8.6-5.4-15.6-5.4c-7.1 0-17 .8-29.5 2.4l-5.8.7-.6-6.2c14-2.2 25.9-3.4 35.9-3.4 18.3 0 27.4 9.7 27.4 29.1zM454.3 96c-3 3.4-4.5 8.4-4.5 15.1s1.5 11.9 4.6 15.6 7.3 5.5 12.8 5.5 11.3-.7 17.4-2 10.9-2.6 14.4-3.8l5.2-1.9V86.2l-34.8 3.6c-7 .7-12.1 2.8-15.1 6.2z"/><path id="E" d="M572.9 136.5L613.1 5.6h19.8l40.2 130.9h-6.7l-12.2-40.2h-62.5l-12.2 40.2h-6.6zM617.8 12l-23.9 78h58.3l-23.9-78h-10.5z"/><path id="F" d="M731.5 179.6V43h6.5v7.9c3.6-2.4 8.7-4.5 15.1-6.5 6.5-2 12.2-3 17.2-3 11.2 0 19.4 3.8 24.4 11.4s7.6 19.8 7.6 36.7-3 29.2-9.1 37c-6 7.9-16.2 11.8-30.6 11.8-8.5 0-16.7-.9-24.7-2.6v43.9h-6.4zm38.9-132.3c-4.7 0-9.8.8-15.2 2.5s-9.6 3.3-12.6 5l-4.5 2.4v72.4c9.6 1.7 17.8 2.6 24.7 2.6 12 0 20.4-3.3 25.3-10s7.4-17.6 7.4-32.9-2.1-26.1-6.3-32.4c-4.2-6.4-10.5-9.6-18.8-9.6z"/><path id="G" d="M834.5 136.5H828V0h6.5v48.6c11-4.9 22.3-7.3 33.8-7.3s19.4 3.1 23.4 9.4 6 18.7 6 37.1v48.6h-6.5V88.2c0-16.5-1.5-27.4-4.5-32.8s-9.5-8.1-19.6-8.1c-5 0-10.2.6-15.6 1.9-5.4 1.2-9.6 2.5-12.4 3.7l-4.5 1.9v81.7h-.1z"/><path id="H" d="M988.4 70.5v53.9c.5 4.5 5.2 7.1 14 7.9l-.4 5.8c-9.1 0-15.5-2.6-19.3-7.9-12.7 5.4-25.3 8-37.8 8-7.7 0-13.7-2.3-18-6.9s-6.5-11.2-6.5-19.7 2.1-15.1 6.2-19.5c4.1-4.5 10.7-7.2 19.6-8l35.5-3.7v-9.7c0-8-1.7-13.8-5.1-17.4s-8.6-5.4-15.6-5.4c-7.1 0-17 .8-29.5 2.4l-5.8.7-.6-6.2c14-2.2 25.9-3.4 35.9-3.4 18.3 0 27.4 9.7 27.4 29.1zM931.9 96c-3 3.4-4.5 8.4-4.5 15.1s1.5 11.9 4.6 15.6 7.3 5.5 12.8 5.5 11.3-.7 17.4-2 10.9-2.6 14.4-3.8l5.2-1.9V86.2L947 89.8c-7 .7-12.1 2.8-15.1 6.2z"/></defs></svg>